<svg width="425" height="424" viewBox="0 0 425 424" fill="none" xmlns="http://www.w3.org/2000/svg">
<ellipse cx="212.5" cy="225" rx="212.5" ry="199" fill="#4E3869"/>
<ellipse cx="147.5" cy="40" rx="45.5" ry="30" fill="#4E3869"/>
<ellipse cx="277.5" cy="40" rx="45.5" ry="30" fill="#4E3869"/>
<ellipse cx="213" cy="45.5" rx="51" ry="45.5" fill="#4E3869"/>
<ellipse cx="9.04291" cy="10.9487" rx="9.04291" ry="10.9487" transform="matrix(-0.656002 -0.75476 0.785903 -0.61835 327.266 277.475)" fill="#EBEBEB"/>
<ellipse cx="21.1516" cy="25.5915" rx="21.1516" ry="25.5915" transform="matrix(-0.649156 -0.760655 0.791457 -0.611224 327.491 192.284)" fill="#E1D5E8"/>
<ellipse cx="15.0428" cy="16.6119" rx="15.0428" ry="16.6119" transform="matrix(-0.656002 -0.75476 0.785903 -0.61835 336.791 242.449)" fill="#E9E4EF"/>
<path d="M216.94 346.793L208.32 348.891L202.127 323.452L210.921 321.311C213.447 320.697 215.741 320.678 217.802 321.255C219.87 321.822 221.623 322.934 223.062 324.593C224.501 326.251 225.542 328.401 226.185 331.043C226.83 333.693 226.891 336.09 226.37 338.234C225.856 340.377 224.8 342.182 223.201 343.65C221.611 345.116 219.524 346.164 216.94 346.793ZM211.958 343.782L215.746 342.86C217.518 342.428 218.918 341.746 219.945 340.811C220.97 339.869 221.623 338.679 221.905 337.242C222.184 335.797 222.087 334.101 221.614 332.155C221.14 330.209 220.449 328.667 219.54 327.529C218.629 326.382 217.513 325.632 216.19 325.279C214.873 324.915 213.354 324.943 211.631 325.362L207.706 326.318L211.958 343.782ZM242.353 340.217C241.178 340.627 240.047 340.786 238.959 340.695C237.877 340.594 236.918 340.224 236.082 339.586C235.254 338.944 234.628 338.016 234.205 336.801C233.841 335.755 233.732 334.822 233.881 334.003C234.029 333.185 234.365 332.454 234.89 331.811C235.415 331.167 236.06 330.596 236.824 330.095C237.594 329.583 238.412 329.122 239.28 328.712C240.327 328.22 241.174 327.813 241.819 327.489C242.461 327.157 242.902 326.841 243.14 326.541C243.384 326.231 243.433 325.866 243.287 325.448L243.262 325.375C242.945 324.466 242.431 323.855 241.718 323.544C241.004 323.233 240.141 323.254 239.127 323.607C238.056 323.98 237.288 324.509 236.823 325.195C236.366 325.877 236.14 326.574 236.144 327.286L231.861 328.128C231.791 326.889 231.994 325.762 232.471 324.747C232.945 323.725 233.652 322.838 234.59 322.087C235.526 321.328 236.642 320.723 237.938 320.271C238.831 319.96 239.757 319.755 240.715 319.656C241.674 319.557 242.603 319.621 243.504 319.849C244.401 320.069 245.215 320.512 245.943 321.179C246.68 321.843 247.263 322.791 247.691 324.022L252.014 336.433L247.812 337.896L246.925 335.349L246.78 335.399C246.694 336.007 246.488 336.62 246.162 337.239C245.841 337.847 245.367 338.414 244.737 338.94C244.114 339.455 243.319 339.881 242.353 340.217ZM242.369 336.611C243.247 336.305 243.947 335.867 244.47 335.297C244.991 334.719 245.323 334.079 245.468 333.379C245.62 332.676 245.577 331.983 245.339 331.299L244.578 329.114C244.48 329.274 244.283 329.46 243.987 329.671C243.698 329.88 243.366 330.091 242.989 330.303C242.611 330.516 242.235 330.719 241.861 330.913C241.486 331.106 241.161 331.274 240.885 331.415C240.264 331.731 239.731 332.079 239.286 332.459C238.841 332.84 238.532 333.263 238.361 333.729C238.186 334.187 238.197 334.698 238.393 335.261C238.674 336.066 239.179 336.571 239.909 336.777C240.64 336.983 241.46 336.927 242.369 336.611ZM259.74 333.566L251.997 315.52L256.25 313.696L263.993 331.741L259.74 333.566ZM253.036 312.042C252.363 312.331 251.687 312.356 251.01 312.118C250.33 311.872 249.853 311.432 249.581 310.798C249.306 310.156 249.315 309.507 249.609 308.852C249.9 308.19 250.382 307.714 251.055 307.425C251.737 307.132 252.414 307.111 253.086 307.36C253.763 307.598 254.24 308.038 254.515 308.681C254.788 309.315 254.778 309.964 254.488 310.626C254.202 311.278 253.718 311.75 253.036 312.042ZM264.169 302.807L275.769 326.279L271.62 328.33L260.021 304.857L264.169 302.807ZM289.407 327.278C288.865 327.6 288.337 327.854 287.823 328.04C287.321 328.23 286.902 328.35 286.565 328.401L285.647 324.753C286.326 324.578 286.891 324.351 287.341 324.074C287.791 323.797 288.105 323.417 288.284 322.934C288.475 322.454 288.502 321.823 288.365 321.042L288.164 319.928L271.804 306.33L276.025 303.823L287.489 314.261L287.665 314.157L283.994 299.089L288.225 296.576L292.708 319.518C292.924 320.599 292.961 321.613 292.82 322.559C292.683 323.513 292.337 324.383 291.782 325.168C291.239 325.957 290.448 326.66 289.407 327.278Z" fill="#EBEBEB"/>
</svg>
