<svg width="584" height="179" viewBox="0 0 584 179" fill="none" xmlns="http://www.w3.org/2000/svg">
<path d="M9.81445 143V36.9453H46.4355C56.9092 36.9453 65.9912 39.0693 73.6084 43.3174C81.2256 47.5654 87.0117 53.6445 91.1133 61.5547C95.2148 69.5381 97.2656 78.9863 97.2656 89.8262C97.2656 100.812 95.2148 110.334 91.1133 118.317C87.0117 126.301 81.0791 132.38 73.3887 136.628C65.625 140.876 56.4697 143 45.8496 143H9.81445ZM44.8242 126.447C55.8838 126.447 64.2334 123.444 69.7998 117.292C75.3662 111.213 78.2227 102.058 78.2227 89.8262C78.2227 77.7412 75.4395 68.6592 69.9463 62.5801C64.3799 56.5742 56.25 53.498 45.4102 53.498H28.8574V126.447H44.8242ZM140.654 143H121.611V36.9453H140.654V143ZM255.088 143H238.096L187.852 70.4902H186.973V143H167.93V36.9453H185.215L235.166 109.455H236.191V36.9453H255.088V143ZM282.217 36.9453H301.26V85.7246H302.725L344.18 36.9453H367.471L326.455 84.5527L367.91 143H344.912L313.125 97.4434L301.26 111.359V143H282.217V36.9453ZM473.262 36.9453V106.232C473.262 113.776 471.431 120.441 467.842 126.228C464.253 132.087 459.199 136.555 452.681 139.777C446.162 143 438.691 144.611 430.195 144.611C421.626 144.611 414.082 143 407.563 139.777C401.045 136.555 395.991 132.087 392.476 126.228C388.887 120.441 387.129 113.776 387.129 106.232V36.9453H406.172V104.621C406.172 109.089 407.124 113.044 409.102 116.486C411.079 120.002 413.862 122.712 417.524 124.689C421.187 126.667 425.361 127.619 430.195 127.619C434.956 127.619 439.131 126.667 442.793 124.689C446.382 122.785 449.165 120.075 451.143 116.56C453.047 113.044 454.072 109.089 454.072 104.621V36.9453H473.262ZM552.026 55.5488C548.438 53.0586 543.75 51.7402 538.037 51.7402C534.082 51.7402 530.713 52.3262 527.783 53.498C524.854 54.6699 522.583 56.3545 521.045 58.4053C519.434 60.5293 518.701 62.873 518.701 65.5098C518.701 69.6113 520.386 72.7607 523.755 74.958C527.124 77.1553 531.445 78.9131 536.865 80.1582L546.826 82.7949C555.908 84.9189 563.379 88.4346 569.165 93.2686C574.951 98.1025 577.881 104.768 577.881 113.264C577.881 119.489 576.27 124.982 573.12 129.67C569.897 134.431 565.283 138.093 559.277 140.729C553.271 143.366 546.094 144.611 537.744 144.611C529.468 144.611 522.29 143.366 516.284 140.803C510.205 138.239 505.444 134.504 502.075 129.597C498.706 124.689 496.875 118.757 496.582 111.799H515.332C515.771 117.219 517.969 121.32 522.07 124.104C526.172 126.96 531.299 128.352 537.598 128.352C541.699 128.352 545.435 127.766 548.657 126.447C551.88 125.202 554.37 123.444 556.128 121.101C557.886 118.757 558.838 116.12 558.838 113.117C558.838 109.309 557.227 106.306 554.004 104.108C550.781 101.911 546.021 100.007 539.648 98.3223L527.637 95.2461C508.74 90.3389 499.365 80.8174 499.365 66.6816C499.365 60.5293 501.05 55.1094 504.419 50.4219C507.788 45.7344 512.402 42.0723 518.335 39.4355C524.268 36.7988 530.933 35.4805 538.33 35.4805C545.728 35.4805 552.319 36.7988 558.032 39.4355C563.745 42.0723 568.213 45.6611 571.436 50.2754C574.658 54.9629 576.27 60.2363 576.416 66.0957H558.105C557.666 61.6279 555.615 58.1123 552.026 55.5488Z" fill="#FED47A"/>
<mask id="mask0_2_581" style="mask-type:alpha" maskUnits="userSpaceOnUse" x="9" y="35" width="569" height="110">
<path d="M9.81445 143V36.9453H46.4355C56.9092 36.9453 65.9912 39.0693 73.6084 43.3174C81.2256 47.5654 87.0117 53.6445 91.1133 61.5547C95.2148 69.5381 97.2656 78.9863 97.2656 89.8262C97.2656 100.812 95.2148 110.334 91.1133 118.317C87.0117 126.301 81.0791 132.38 73.3887 136.628C65.625 140.876 56.4697 143 45.8496 143H9.81445ZM44.8242 126.447C55.8838 126.447 64.2334 123.444 69.7998 117.292C75.3662 111.213 78.2227 102.058 78.2227 89.8262C78.2227 77.7412 75.4395 68.6592 69.9463 62.5801C64.3799 56.5742 56.25 53.498 45.4102 53.498H28.8574V126.447H44.8242ZM140.654 143H121.611V36.9453H140.654V143ZM255.088 143H238.096L187.852 70.4902H186.973V143H167.93V36.9453H185.215L235.166 109.455H236.191V36.9453H255.088V143ZM282.217 36.9453H301.26V85.7246H302.725L344.18 36.9453H367.471L326.455 84.5527L367.91 143H344.912L313.125 97.4434L301.26 111.359V143H282.217V36.9453ZM473.262 36.9453V106.232C473.262 113.776 471.431 120.441 467.842 126.228C464.253 132.087 459.199 136.555 452.681 139.777C446.162 143 438.691 144.611 430.195 144.611C421.626 144.611 414.082 143 407.563 139.777C401.045 136.555 395.991 132.087 392.476 126.228C388.887 120.441 387.129 113.776 387.129 106.232V36.9453H406.172V104.621C406.172 109.089 407.124 113.044 409.102 116.486C411.079 120.002 413.862 122.712 417.524 124.689C421.187 126.667 425.361 127.619 430.195 127.619C434.956 127.619 439.131 126.667 442.793 124.689C446.382 122.785 449.165 120.075 451.143 116.56C453.047 113.044 454.072 109.089 454.072 104.621V36.9453H473.262ZM552.026 55.5488C548.438 53.0586 543.75 51.7402 538.037 51.7402C534.082 51.7402 530.713 52.3262 527.783 53.498C524.854 54.6699 522.583 56.3545 521.045 58.4053C519.434 60.5293 518.701 62.873 518.701 65.5098C518.701 69.6113 520.386 72.7607 523.755 74.958C527.124 77.1553 531.445 78.9131 536.865 80.1582L546.826 82.7949C555.908 84.9189 563.379 88.4346 569.165 93.2686C574.951 98.1025 577.881 104.768 577.881 113.264C577.881 119.489 576.27 124.982 573.12 129.67C569.897 134.431 565.283 138.093 559.277 140.729C553.271 143.366 546.094 144.611 537.744 144.611C529.468 144.611 522.29 143.366 516.284 140.803C510.205 138.239 505.444 134.504 502.075 129.597C498.706 124.689 496.875 118.757 496.582 111.799H515.332C515.771 117.219 517.969 121.32 522.07 124.104C526.172 126.96 531.299 128.352 537.598 128.352C541.699 128.352 545.435 127.766 548.657 126.447C551.88 125.202 554.37 123.444 556.128 121.101C557.886 118.757 558.838 116.12 558.838 113.117C558.838 109.309 557.227 106.306 554.004 104.108C550.781 101.911 546.021 100.007 539.648 98.3223L527.637 95.2461C508.74 90.3389 499.365 80.8174 499.365 66.6816C499.365 60.5293 501.05 55.1094 504.419 50.4219C507.788 45.7344 512.402 42.0723 518.335 39.4355C524.268 36.7988 530.933 35.4805 538.33 35.4805C545.728 35.4805 552.319 36.7988 558.032 39.4355C563.745 42.0723 568.213 45.6611 571.436 50.2754C574.658 54.9629 576.27 60.2363 576.416 66.0957H558.105C557.666 61.6279 555.615 58.1123 552.026 55.5488Z" fill="#FED47A"/>
</mask>
<g mask="url(#mask0_2_581)">
<circle cx="18.5578" cy="45.2094" r="2.7907" fill="#EAEAD9"/>
<circle cx="57.6276" cy="45.2094" r="2.7907" fill="#EAEAD9"/>
<circle cx="96.6969" cy="45.2094" r="2.7907" fill="#EAEAD9"/>
<circle cx="135.767" cy="45.2094" r="2.7907" fill="#EAEAD9"/>
<circle cx="174.838" cy="45.2094" r="2.7907" fill="#EAEAD9"/>
<circle cx="213.906" cy="45.2094" r="2.7907" fill="#EAEAD9"/>
<circle cx="38.0929" cy="45.2094" r="2.7907" fill="#EAEAD9"/>
<circle cx="77.1628" cy="45.2094" r="2.7907" fill="#EAEAD9"/>
<circle cx="116.232" cy="45.2094" r="2.7907" fill="#EAEAD9"/>
<circle cx="155.302" cy="45.2094" r="2.7907" fill="#EAEAD9"/>
<circle cx="194.372" cy="45.2094" r="2.7907" fill="#EAEAD9"/>
<circle cx="233.442" cy="45.2094" r="2.7907" fill="#EAEAD9"/>
<circle cx="8.7907" cy="59.6281" r="2.7907" fill="#EAEAD9"/>
<circle cx="28.3254" cy="59.6281" r="2.7907" fill="#EAEAD9"/>
<circle cx="18.5578" cy="74.0467" r="2.7907" fill="#EAEAD9"/>
<circle cx="57.6276" cy="74.0467" r="2.7907" fill="#EAEAD9"/>
<circle cx="96.6969" cy="74.0467" r="2.7907" fill="#EAEAD9"/>
<circle cx="135.767" cy="74.0467" r="2.7907" fill="#EAEAD9"/>
<circle cx="174.838" cy="74.0467" r="2.7907" fill="#EAEAD9"/>
<circle cx="213.906" cy="74.0467" r="2.7907" fill="#EAEAD9"/>
<circle cx="38.0929" cy="74.0467" r="2.7907" fill="#EAEAD9"/>
<circle cx="77.1628" cy="74.0467" r="2.7907" fill="#EAEAD9"/>
<circle cx="116.232" cy="74.0467" r="2.7907" fill="#EAEAD9"/>
<circle cx="155.302" cy="74.0467" r="2.7907" fill="#EAEAD9"/>
<circle cx="194.372" cy="74.0467" r="2.7907" fill="#EAEAD9"/>
<circle cx="233.442" cy="74.0467" r="2.7907" fill="#EAEAD9"/>
<circle cx="47.8605" cy="59.6281" r="2.7907" fill="#EAEAD9"/>
<circle cx="67.3952" cy="59.6281" r="2.7907" fill="#EAEAD9"/>
<circle cx="86.9303" cy="59.6281" r="2.7907" fill="#EAEAD9"/>
<circle cx="106.465" cy="59.6281" r="2.7907" fill="#EAEAD9"/>
<circle cx="126" cy="59.6281" r="2.7907" fill="#EAEAD9"/>
<circle cx="145.535" cy="59.6281" r="2.7907" fill="#EAEAD9"/>
<circle cx="165.069" cy="59.6281" r="2.7907" fill="#EAEAD9"/>
<circle cx="184.605" cy="59.6281" r="2.7907" fill="#EAEAD9"/>
<circle cx="204.14" cy="59.6281" r="2.7907" fill="#EAEAD9"/>
<circle cx="223.675" cy="59.6281" r="2.7907" fill="#EAEAD9"/>
<circle cx="243.209" cy="59.6281" r="2.7907" fill="#EAEAD9"/>
<circle cx="252.558" cy="45.2094" r="2.7907" fill="#EAEAD9"/>
<circle cx="291.628" cy="45.2094" r="2.7907" fill="#EAEAD9"/>
<circle cx="330.697" cy="45.2094" r="2.7907" fill="#EAEAD9"/>
<circle cx="369.767" cy="45.2094" r="2.7907" fill="#EAEAD9"/>
<circle cx="408.838" cy="45.2094" r="2.7907" fill="#EAEAD9"/>
<circle cx="447.906" cy="45.2094" r="2.7907" fill="#EAEAD9"/>
<circle cx="272.093" cy="45.2094" r="2.7907" fill="#EAEAD9"/>
<circle cx="311.163" cy="45.2094" r="2.7907" fill="#EAEAD9"/>
<circle cx="350.232" cy="45.2094" r="2.7907" fill="#EAEAD9"/>
<circle cx="389.302" cy="45.2094" r="2.7907" fill="#EAEAD9"/>
<circle cx="428.372" cy="45.2094" r="2.7907" fill="#EAEAD9"/>
<circle cx="467.442" cy="45.2094" r="2.7907" fill="#EAEAD9"/>
<circle cx="242.791" cy="59.6281" r="2.7907" fill="#EAEAD9"/>
<circle cx="262.325" cy="59.6281" r="2.7907" fill="#EAEAD9"/>
<circle cx="252.558" cy="74.0467" r="2.7907" fill="#EAEAD9"/>
<circle cx="291.628" cy="74.0467" r="2.7907" fill="#EAEAD9"/>
<circle cx="330.697" cy="74.0467" r="2.7907" fill="#EAEAD9"/>
<circle cx="369.767" cy="74.0467" r="2.7907" fill="#EAEAD9"/>
<circle cx="408.838" cy="74.0467" r="2.7907" fill="#EAEAD9"/>
<circle cx="447.906" cy="74.0467" r="2.7907" fill="#EAEAD9"/>
<circle cx="272.093" cy="74.0467" r="2.7907" fill="#EAEAD9"/>
<circle cx="311.163" cy="74.0467" r="2.7907" fill="#EAEAD9"/>
<circle cx="350.232" cy="74.0467" r="2.7907" fill="#EAEAD9"/>
<circle cx="389.302" cy="74.0467" r="2.7907" fill="#EAEAD9"/>
<circle cx="428.372" cy="74.0467" r="2.7907" fill="#EAEAD9"/>
<circle cx="467.442" cy="74.0467" r="2.7907" fill="#EAEAD9"/>
<circle cx="281.861" cy="59.6281" r="2.7907" fill="#EAEAD9"/>
<circle cx="301.395" cy="59.6281" r="2.7907" fill="#EAEAD9"/>
<circle cx="320.93" cy="59.6281" r="2.7907" fill="#EAEAD9"/>
<circle cx="340.466" cy="59.6281" r="2.7907" fill="#EAEAD9"/>
<circle cx="360" cy="59.6281" r="2.7907" fill="#EAEAD9"/>
<circle cx="379.535" cy="59.6281" r="2.7907" fill="#EAEAD9"/>
<circle cx="399.069" cy="59.6281" r="2.7907" fill="#EAEAD9"/>
<circle cx="418.605" cy="59.6281" r="2.7907" fill="#EAEAD9"/>
<circle cx="438.14" cy="59.6281" r="2.7907" fill="#EAEAD9"/>
<circle cx="457.675" cy="59.6281" r="2.7907" fill="#EAEAD9"/>
<circle cx="477.209" cy="59.6281" r="2.7907" fill="#EAEAD9"/>
<circle cx="242.791" cy="59.7907" r="2.7907" fill="#EAEAD9"/>
<circle cx="262.325" cy="59.7907" r="2.7907" fill="#EAEAD9"/>
<circle cx="252.558" cy="74.2094" r="2.7907" fill="#EAEAD9"/>
<circle cx="291.628" cy="74.2094" r="2.7907" fill="#EAEAD9"/>
<circle cx="330.697" cy="74.2094" r="2.7907" fill="#EAEAD9"/>
<circle cx="369.767" cy="74.2094" r="2.7907" fill="#EAEAD9"/>
<circle cx="408.838" cy="74.2094" r="2.7907" fill="#EAEAD9"/>
<circle cx="447.906" cy="74.2094" r="2.7907" fill="#EAEAD9"/>
<circle cx="272.093" cy="74.2094" r="2.7907" fill="#EAEAD9"/>
<circle cx="311.163" cy="74.2094" r="2.7907" fill="#EAEAD9"/>
<circle cx="350.232" cy="74.2094" r="2.7907" fill="#EAEAD9"/>
<circle cx="389.302" cy="74.2094" r="2.7907" fill="#EAEAD9"/>
<circle cx="428.372" cy="74.2094" r="2.7907" fill="#EAEAD9"/>
<circle cx="467.442" cy="74.2094" r="2.7907" fill="#EAEAD9"/>
<circle cx="281.861" cy="59.7907" r="2.7907" fill="#EAEAD9"/>
<circle cx="301.395" cy="59.7907" r="2.7907" fill="#EAEAD9"/>
<circle cx="320.93" cy="59.7907" r="2.7907" fill="#EAEAD9"/>
<circle cx="340.466" cy="59.7907" r="2.7907" fill="#EAEAD9"/>
<circle cx="360" cy="59.7907" r="2.7907" fill="#EAEAD9"/>
<circle cx="379.535" cy="59.7907" r="2.7907" fill="#EAEAD9"/>
<circle cx="399.069" cy="59.7907" r="2.7907" fill="#EAEAD9"/>
<circle cx="418.605" cy="59.7907" r="2.7907" fill="#EAEAD9"/>
<circle cx="438.14" cy="59.7907" r="2.7907" fill="#EAEAD9"/>
<circle cx="457.675" cy="59.7907" r="2.7907" fill="#EAEAD9"/>
<circle cx="477.209" cy="59.7907" r="2.7907" fill="#EAEAD9"/>
<circle cx="242.791" cy="88.6281" r="2.7907" fill="#EAEAD9"/>
<circle cx="262.325" cy="88.6281" r="2.7907" fill="#EAEAD9"/>
<circle cx="252.558" cy="103.047" r="2.7907" fill="#EAEAD9"/>
<circle cx="291.628" cy="103.047" r="2.7907" fill="#EAEAD9"/>
<circle cx="330.697" cy="103.047" r="2.7907" fill="#EAEAD9"/>
<circle cx="369.767" cy="103.047" r="2.7907" fill="#EAEAD9"/>
<circle cx="408.838" cy="103.047" r="2.7907" fill="#EAEAD9"/>
<circle cx="447.906" cy="103.047" r="2.7907" fill="#EAEAD9"/>
<circle cx="272.093" cy="103.047" r="2.7907" fill="#EAEAD9"/>
<circle cx="311.163" cy="103.047" r="2.7907" fill="#EAEAD9"/>
<circle cx="350.232" cy="103.047" r="2.7907" fill="#EAEAD9"/>
<circle cx="389.302" cy="103.047" r="2.7907" fill="#EAEAD9"/>
<circle cx="428.372" cy="103.047" r="2.7907" fill="#EAEAD9"/>
<circle cx="467.442" cy="103.047" r="2.7907" fill="#EAEAD9"/>
<circle cx="281.861" cy="88.6281" r="2.7907" fill="#EAEAD9"/>
<circle cx="301.395" cy="88.6281" r="2.7907" fill="#EAEAD9"/>
<circle cx="320.93" cy="88.6281" r="2.7907" fill="#EAEAD9"/>
<circle cx="340.466" cy="88.6281" r="2.7907" fill="#EAEAD9"/>
<circle cx="360" cy="88.6281" r="2.7907" fill="#EAEAD9"/>
<circle cx="379.535" cy="88.6281" r="2.7907" fill="#EAEAD9"/>
<circle cx="399.069" cy="88.6281" r="2.7907" fill="#EAEAD9"/>
<circle cx="418.605" cy="88.6281" r="2.7907" fill="#EAEAD9"/>
<circle cx="438.14" cy="88.6281" r="2.7907" fill="#EAEAD9"/>
<circle cx="457.675" cy="88.6281" r="2.7907" fill="#EAEAD9"/>
<circle cx="477.209" cy="88.6281" r="2.7907" fill="#EAEAD9"/>
<circle cx="242.791" cy="88.7907" r="2.7907" fill="#EAEAD9"/>
<circle cx="262.325" cy="88.7907" r="2.7907" fill="#EAEAD9"/>
<circle cx="252.558" cy="103.209" r="2.7907" fill="#EAEAD9"/>
<circle cx="291.628" cy="103.209" r="2.7907" fill="#EAEAD9"/>
<circle cx="330.697" cy="103.209" r="2.7907" fill="#EAEAD9"/>
<circle cx="369.767" cy="103.209" r="2.7907" fill="#EAEAD9"/>
<circle cx="408.838" cy="103.209" r="2.7907" fill="#EAEAD9"/>
<circle cx="447.906" cy="103.209" r="2.7907" fill="#EAEAD9"/>
<circle cx="272.093" cy="103.209" r="2.7907" fill="#EAEAD9"/>
<circle cx="311.163" cy="103.209" r="2.7907" fill="#EAEAD9"/>
<circle cx="350.232" cy="103.209" r="2.7907" fill="#EAEAD9"/>
<circle cx="389.302" cy="103.209" r="2.7907" fill="#EAEAD9"/>
<circle cx="428.372" cy="103.209" r="2.7907" fill="#EAEAD9"/>
<circle cx="467.442" cy="103.209" r="2.7907" fill="#EAEAD9"/>
<circle cx="281.861" cy="88.7907" r="2.7907" fill="#EAEAD9"/>
<circle cx="301.395" cy="88.7907" r="2.7907" fill="#EAEAD9"/>
<circle cx="320.93" cy="88.7907" r="2.7907" fill="#EAEAD9"/>
<circle cx="340.466" cy="88.7907" r="2.7907" fill="#EAEAD9"/>
<circle cx="360" cy="88.7907" r="2.7907" fill="#EAEAD9"/>
<circle cx="379.535" cy="88.7907" r="2.7907" fill="#EAEAD9"/>
<circle cx="399.069" cy="88.7907" r="2.7907" fill="#EAEAD9"/>
<circle cx="418.605" cy="88.7907" r="2.7907" fill="#EAEAD9"/>
<circle cx="438.14" cy="88.7907" r="2.7907" fill="#EAEAD9"/>
<circle cx="457.675" cy="88.7907" r="2.7907" fill="#EAEAD9"/>
<circle cx="477.209" cy="88.7907" r="2.7907" fill="#EAEAD9"/>
<circle cx="242.791" cy="117.628" r="2.7907" fill="#EAEAD9"/>
<circle cx="262.325" cy="117.628" r="2.7907" fill="#EAEAD9"/>
<circle cx="252.558" cy="132.047" r="2.7907" fill="#EAEAD9"/>
<circle cx="291.628" cy="132.047" r="2.7907" fill="#EAEAD9"/>
<circle cx="330.697" cy="132.047" r="2.7907" fill="#EAEAD9"/>
<circle cx="369.767" cy="132.047" r="2.7907" fill="#EAEAD9"/>
<circle cx="408.838" cy="132.047" r="2.7907" fill="#EAEAD9"/>
<circle cx="447.906" cy="132.047" r="2.7907" fill="#EAEAD9"/>
<circle cx="272.093" cy="132.047" r="2.7907" fill="#EAEAD9"/>
<circle cx="311.163" cy="132.047" r="2.7907" fill="#EAEAD9"/>
<circle cx="350.232" cy="132.047" r="2.7907" fill="#EAEAD9"/>
<circle cx="389.302" cy="132.047" r="2.7907" fill="#EAEAD9"/>
<circle cx="428.372" cy="132.047" r="2.7907" fill="#EAEAD9"/>
<circle cx="467.442" cy="132.047" r="2.7907" fill="#EAEAD9"/>
<circle cx="281.861" cy="117.628" r="2.7907" fill="#EAEAD9"/>
<circle cx="301.395" cy="117.628" r="2.7907" fill="#EAEAD9"/>
<circle cx="320.93" cy="117.628" r="2.7907" fill="#EAEAD9"/>
<circle cx="340.466" cy="117.628" r="2.7907" fill="#EAEAD9"/>
<circle cx="360" cy="117.628" r="2.7907" fill="#EAEAD9"/>
<circle cx="379.535" cy="117.628" r="2.7907" fill="#EAEAD9"/>
<circle cx="399.069" cy="117.628" r="2.7907" fill="#EAEAD9"/>
<circle cx="418.605" cy="117.628" r="2.7907" fill="#EAEAD9"/>
<circle cx="438.14" cy="117.628" r="2.7907" fill="#EAEAD9"/>
<circle cx="457.675" cy="117.628" r="2.7907" fill="#EAEAD9"/>
<circle cx="477.209" cy="117.628" r="2.7907" fill="#EAEAD9"/>
<circle cx="291.558" cy="45.2094" r="2.7907" fill="#EAEAD9"/>
<circle cx="330.628" cy="45.2094" r="2.7907" fill="#EAEAD9"/>
<circle cx="369.697" cy="45.2094" r="2.7907" fill="#EAEAD9"/>
<circle cx="408.767" cy="45.2094" r="2.7907" fill="#EAEAD9"/>
<circle cx="447.838" cy="45.2094" r="2.7907" fill="#EAEAD9"/>
<circle cx="486.906" cy="45.2094" r="2.7907" fill="#EAEAD9"/>
<circle cx="311.093" cy="45.2094" r="2.7907" fill="#EAEAD9"/>
<circle cx="350.163" cy="45.2094" r="2.7907" fill="#EAEAD9"/>
<circle cx="389.232" cy="45.2094" r="2.7907" fill="#EAEAD9"/>
<circle cx="428.302" cy="45.2094" r="2.7907" fill="#EAEAD9"/>
<circle cx="467.372" cy="45.2094" r="2.7907" fill="#EAEAD9"/>
<circle cx="506.442" cy="45.2094" r="2.7907" fill="#EAEAD9"/>
<circle cx="281.791" cy="59.6281" r="2.7907" fill="#EAEAD9"/>
<circle cx="301.325" cy="59.6281" r="2.7907" fill="#EAEAD9"/>
<circle cx="291.558" cy="74.0467" r="2.7907" fill="#EAEAD9"/>
<circle cx="330.628" cy="74.0467" r="2.7907" fill="#EAEAD9"/>
<circle cx="369.697" cy="74.0467" r="2.7907" fill="#EAEAD9"/>
<circle cx="408.767" cy="74.0467" r="2.7907" fill="#EAEAD9"/>
<circle cx="447.838" cy="74.0467" r="2.7907" fill="#EAEAD9"/>
<circle cx="486.906" cy="74.0467" r="2.7907" fill="#EAEAD9"/>
<circle cx="311.093" cy="74.0467" r="2.7907" fill="#EAEAD9"/>
<circle cx="350.163" cy="74.0467" r="2.7907" fill="#EAEAD9"/>
<circle cx="389.232" cy="74.0467" r="2.7907" fill="#EAEAD9"/>
<circle cx="428.302" cy="74.0467" r="2.7907" fill="#EAEAD9"/>
<circle cx="467.372" cy="74.0467" r="2.7907" fill="#EAEAD9"/>
<circle cx="506.442" cy="74.0467" r="2.7907" fill="#EAEAD9"/>
<circle cx="320.861" cy="59.6281" r="2.7907" fill="#EAEAD9"/>
<circle cx="340.395" cy="59.6281" r="2.7907" fill="#EAEAD9"/>
<circle cx="359.93" cy="59.6281" r="2.7907" fill="#EAEAD9"/>
<circle cx="379.466" cy="59.6281" r="2.7907" fill="#EAEAD9"/>
<circle cx="399" cy="59.6281" r="2.7907" fill="#EAEAD9"/>
<circle cx="418.535" cy="59.6281" r="2.7907" fill="#EAEAD9"/>
<circle cx="438.069" cy="59.6281" r="2.7907" fill="#EAEAD9"/>
<circle cx="457.605" cy="59.6281" r="2.7907" fill="#EAEAD9"/>
<circle cx="477.14" cy="59.6281" r="2.7907" fill="#EAEAD9"/>
<circle cx="496.675" cy="59.6281" r="2.7907" fill="#EAEAD9"/>
<circle cx="516.209" cy="59.6281" r="2.7907" fill="#EAEAD9"/>
<circle cx="281.791" cy="59.7907" r="2.7907" fill="#EAEAD9"/>
<circle cx="301.325" cy="59.7907" r="2.7907" fill="#EAEAD9"/>
<circle cx="291.558" cy="74.2094" r="2.7907" fill="#EAEAD9"/>
<circle cx="330.628" cy="74.2094" r="2.7907" fill="#EAEAD9"/>
<circle cx="369.697" cy="74.2094" r="2.7907" fill="#EAEAD9"/>
<circle cx="408.767" cy="74.2094" r="2.7907" fill="#EAEAD9"/>
<circle cx="447.838" cy="74.2094" r="2.7907" fill="#EAEAD9"/>
<circle cx="486.906" cy="74.2094" r="2.7907" fill="#EAEAD9"/>
<circle cx="311.093" cy="74.2094" r="2.7907" fill="#EAEAD9"/>
<circle cx="350.163" cy="74.2094" r="2.7907" fill="#EAEAD9"/>
<circle cx="389.232" cy="74.2094" r="2.7907" fill="#EAEAD9"/>
<circle cx="428.302" cy="74.2094" r="2.7907" fill="#EAEAD9"/>
<circle cx="467.372" cy="74.2094" r="2.7907" fill="#EAEAD9"/>
<circle cx="506.442" cy="74.2094" r="2.7907" fill="#EAEAD9"/>
<circle cx="320.861" cy="59.7907" r="2.7907" fill="#EAEAD9"/>
<circle cx="340.395" cy="59.7907" r="2.7907" fill="#EAEAD9"/>
<circle cx="359.93" cy="59.7907" r="2.7907" fill="#EAEAD9"/>
<circle cx="379.466" cy="59.7907" r="2.7907" fill="#EAEAD9"/>
<circle cx="399" cy="59.7907" r="2.7907" fill="#EAEAD9"/>
<circle cx="418.535" cy="59.7907" r="2.7907" fill="#EAEAD9"/>
<circle cx="438.069" cy="59.7907" r="2.7907" fill="#EAEAD9"/>
<circle cx="457.605" cy="59.7907" r="2.7907" fill="#EAEAD9"/>
<circle cx="477.14" cy="59.7907" r="2.7907" fill="#EAEAD9"/>
<circle cx="496.675" cy="59.7907" r="2.7907" fill="#EAEAD9"/>
<circle cx="516.209" cy="59.7907" r="2.7907" fill="#EAEAD9"/>
<circle cx="281.791" cy="88.6281" r="2.7907" fill="#EAEAD9"/>
<circle cx="301.325" cy="88.6281" r="2.7907" fill="#EAEAD9"/>
<circle cx="291.558" cy="103.047" r="2.7907" fill="#EAEAD9"/>
<circle cx="330.628" cy="103.047" r="2.7907" fill="#EAEAD9"/>
<circle cx="369.697" cy="103.047" r="2.7907" fill="#EAEAD9"/>
<circle cx="408.767" cy="103.047" r="2.7907" fill="#EAEAD9"/>
<circle cx="447.838" cy="103.047" r="2.7907" fill="#EAEAD9"/>
<circle cx="486.906" cy="103.047" r="2.7907" fill="#EAEAD9"/>
<circle cx="311.093" cy="103.047" r="2.7907" fill="#EAEAD9"/>
<circle cx="350.163" cy="103.047" r="2.7907" fill="#EAEAD9"/>
<circle cx="389.232" cy="103.047" r="2.7907" fill="#EAEAD9"/>
<circle cx="428.302" cy="103.047" r="2.7907" fill="#EAEAD9"/>
<circle cx="467.372" cy="103.047" r="2.7907" fill="#EAEAD9"/>
<circle cx="506.442" cy="103.047" r="2.7907" fill="#EAEAD9"/>
<circle cx="320.861" cy="88.6281" r="2.7907" fill="#EAEAD9"/>
<circle cx="340.395" cy="88.6281" r="2.7907" fill="#EAEAD9"/>
<circle cx="359.93" cy="88.6281" r="2.7907" fill="#EAEAD9"/>
<circle cx="379.466" cy="88.6281" r="2.7907" fill="#EAEAD9"/>
<circle cx="399" cy="88.6281" r="2.7907" fill="#EAEAD9"/>
<circle cx="418.535" cy="88.6281" r="2.7907" fill="#EAEAD9"/>
<circle cx="438.069" cy="88.6281" r="2.7907" fill="#EAEAD9"/>
<circle cx="457.605" cy="88.6281" r="2.7907" fill="#EAEAD9"/>
<circle cx="477.14" cy="88.6281" r="2.7907" fill="#EAEAD9"/>
<circle cx="496.675" cy="88.6281" r="2.7907" fill="#EAEAD9"/>
<circle cx="516.209" cy="88.6281" r="2.7907" fill="#EAEAD9"/>
<circle cx="281.791" cy="88.7907" r="2.7907" fill="#EAEAD9"/>
<circle cx="301.325" cy="88.7907" r="2.7907" fill="#EAEAD9"/>
<circle cx="291.558" cy="103.209" r="2.7907" fill="#EAEAD9"/>
<circle cx="330.628" cy="103.209" r="2.7907" fill="#EAEAD9"/>
<circle cx="369.697" cy="103.209" r="2.7907" fill="#EAEAD9"/>
<circle cx="408.767" cy="103.209" r="2.7907" fill="#EAEAD9"/>
<circle cx="447.838" cy="103.209" r="2.7907" fill="#EAEAD9"/>
<circle cx="486.906" cy="103.209" r="2.7907" fill="#EAEAD9"/>
<circle cx="311.093" cy="103.209" r="2.7907" fill="#EAEAD9"/>
<circle cx="350.163" cy="103.209" r="2.7907" fill="#EAEAD9"/>
<circle cx="389.232" cy="103.209" r="2.7907" fill="#EAEAD9"/>
<circle cx="428.302" cy="103.209" r="2.7907" fill="#EAEAD9"/>
<circle cx="467.372" cy="103.209" r="2.7907" fill="#EAEAD9"/>
<circle cx="506.442" cy="103.209" r="2.7907" fill="#EAEAD9"/>
<circle cx="320.861" cy="88.7907" r="2.7907" fill="#EAEAD9"/>
<circle cx="340.395" cy="88.7907" r="2.7907" fill="#EAEAD9"/>
<circle cx="359.93" cy="88.7907" r="2.7907" fill="#EAEAD9"/>
<circle cx="379.466" cy="88.7907" r="2.7907" fill="#EAEAD9"/>
<circle cx="399" cy="88.7907" r="2.7907" fill="#EAEAD9"/>
<circle cx="418.535" cy="88.7907" r="2.7907" fill="#EAEAD9"/>
<circle cx="438.069" cy="88.7907" r="2.7907" fill="#EAEAD9"/>
<circle cx="457.605" cy="88.7907" r="2.7907" fill="#EAEAD9"/>
<circle cx="477.14" cy="88.7907" r="2.7907" fill="#EAEAD9"/>
<circle cx="496.675" cy="88.7907" r="2.7907" fill="#EAEAD9"/>
<circle cx="516.209" cy="88.7907" r="2.7907" fill="#EAEAD9"/>
<circle cx="281.791" cy="117.628" r="2.7907" fill="#EAEAD9"/>
<circle cx="301.325" cy="117.628" r="2.7907" fill="#EAEAD9"/>
<circle cx="291.558" cy="132.047" r="2.7907" fill="#EAEAD9"/>
<circle cx="330.628" cy="132.047" r="2.7907" fill="#EAEAD9"/>
<circle cx="369.697" cy="132.047" r="2.7907" fill="#EAEAD9"/>
<circle cx="408.767" cy="132.047" r="2.7907" fill="#EAEAD9"/>
<circle cx="447.838" cy="132.047" r="2.7907" fill="#EAEAD9"/>
<circle cx="486.906" cy="132.047" r="2.7907" fill="#EAEAD9"/>
<circle cx="311.093" cy="132.047" r="2.7907" fill="#EAEAD9"/>
<circle cx="350.163" cy="132.047" r="2.7907" fill="#EAEAD9"/>
<circle cx="389.232" cy="132.047" r="2.7907" fill="#EAEAD9"/>
<circle cx="428.302" cy="132.047" r="2.7907" fill="#EAEAD9"/>
<circle cx="467.372" cy="132.047" r="2.7907" fill="#EAEAD9"/>
<circle cx="506.442" cy="132.047" r="2.7907" fill="#EAEAD9"/>
<circle cx="320.861" cy="117.628" r="2.7907" fill="#EAEAD9"/>
<circle cx="340.395" cy="117.628" r="2.7907" fill="#EAEAD9"/>
<circle cx="359.93" cy="117.628" r="2.7907" fill="#EAEAD9"/>
<circle cx="379.466" cy="117.628" r="2.7907" fill="#EAEAD9"/>
<circle cx="399" cy="117.628" r="2.7907" fill="#EAEAD9"/>
<circle cx="418.535" cy="117.628" r="2.7907" fill="#EAEAD9"/>
<circle cx="438.069" cy="117.628" r="2.7907" fill="#EAEAD9"/>
<circle cx="457.605" cy="117.628" r="2.7907" fill="#EAEAD9"/>
<circle cx="477.14" cy="117.628" r="2.7907" fill="#EAEAD9"/>
<circle cx="496.675" cy="117.628" r="2.7907" fill="#EAEAD9"/>
<circle cx="516.209" cy="117.628" r="2.7907" fill="#EAEAD9"/>
<circle cx="8.7907" cy="59.7907" r="2.7907" fill="#EAEAD9"/>
<circle cx="28.3254" cy="59.7907" r="2.7907" fill="#EAEAD9"/>
<circle cx="18.5578" cy="74.2094" r="2.7907" fill="#EAEAD9"/>
<circle cx="57.6276" cy="74.2094" r="2.7907" fill="#EAEAD9"/>
<circle cx="96.6969" cy="74.2094" r="2.7907" fill="#EAEAD9"/>
<circle cx="135.767" cy="74.2094" r="2.7907" fill="#EAEAD9"/>
<circle cx="174.838" cy="74.2094" r="2.7907" fill="#EAEAD9"/>
<circle cx="213.906" cy="74.2094" r="2.7907" fill="#EAEAD9"/>
<circle cx="38.0929" cy="74.2094" r="2.7907" fill="#EAEAD9"/>
<circle cx="77.1628" cy="74.2094" r="2.7907" fill="#EAEAD9"/>
<circle cx="116.232" cy="74.2094" r="2.7907" fill="#EAEAD9"/>
<circle cx="155.302" cy="74.2094" r="2.7907" fill="#EAEAD9"/>
<circle cx="194.372" cy="74.2094" r="2.7907" fill="#EAEAD9"/>
<circle cx="233.442" cy="74.2094" r="2.7907" fill="#EAEAD9"/>
<circle cx="47.8605" cy="59.7907" r="2.7907" fill="#EAEAD9"/>
<circle cx="67.3952" cy="59.7907" r="2.7907" fill="#EAEAD9"/>
<circle cx="86.9303" cy="59.7907" r="2.7907" fill="#EAEAD9"/>
<circle cx="106.465" cy="59.7907" r="2.7907" fill="#EAEAD9"/>
<circle cx="126" cy="59.7907" r="2.7907" fill="#EAEAD9"/>
<circle cx="145.535" cy="59.7907" r="2.7907" fill="#EAEAD9"/>
<circle cx="165.069" cy="59.7907" r="2.7907" fill="#EAEAD9"/>
<circle cx="184.605" cy="59.7907" r="2.7907" fill="#EAEAD9"/>
<circle cx="204.14" cy="59.7907" r="2.7907" fill="#EAEAD9"/>
<circle cx="223.675" cy="59.7907" r="2.7907" fill="#EAEAD9"/>
<circle cx="243.209" cy="59.7907" r="2.7907" fill="#EAEAD9"/>
<circle cx="8.7907" cy="88.6281" r="2.7907" fill="#EAEAD9"/>
<circle cx="28.3254" cy="88.6281" r="2.7907" fill="#EAEAD9"/>
<circle cx="18.5578" cy="103.047" r="2.7907" fill="#EAEAD9"/>
<circle cx="57.6276" cy="103.047" r="2.7907" fill="#EAEAD9"/>
<circle cx="96.6969" cy="103.047" r="2.7907" fill="#EAEAD9"/>
<circle cx="135.767" cy="103.047" r="2.7907" fill="#EAEAD9"/>
<circle cx="174.838" cy="103.047" r="2.7907" fill="#EAEAD9"/>
<circle cx="213.906" cy="103.047" r="2.7907" fill="#EAEAD9"/>
<circle cx="38.0929" cy="103.047" r="2.7907" fill="#EAEAD9"/>
<circle cx="77.1628" cy="103.047" r="2.7907" fill="#EAEAD9"/>
<circle cx="116.232" cy="103.047" r="2.7907" fill="#EAEAD9"/>
<circle cx="155.302" cy="103.047" r="2.7907" fill="#EAEAD9"/>
<circle cx="194.372" cy="103.047" r="2.7907" fill="#EAEAD9"/>
<circle cx="233.442" cy="103.047" r="2.7907" fill="#EAEAD9"/>
<circle cx="47.8605" cy="88.6281" r="2.7907" fill="#EAEAD9"/>
<circle cx="67.3952" cy="88.6281" r="2.7907" fill="#EAEAD9"/>
<circle cx="86.9303" cy="88.6281" r="2.7907" fill="#EAEAD9"/>
<circle cx="106.465" cy="88.6281" r="2.7907" fill="#EAEAD9"/>
<circle cx="126" cy="88.6281" r="2.7907" fill="#EAEAD9"/>
<circle cx="145.535" cy="88.6281" r="2.7907" fill="#EAEAD9"/>
<circle cx="165.069" cy="88.6281" r="2.7907" fill="#EAEAD9"/>
<circle cx="184.605" cy="88.6281" r="2.7907" fill="#EAEAD9"/>
<circle cx="204.14" cy="88.6281" r="2.7907" fill="#EAEAD9"/>
<circle cx="223.675" cy="88.6281" r="2.7907" fill="#EAEAD9"/>
<circle cx="243.209" cy="88.6281" r="2.7907" fill="#EAEAD9"/>
<circle cx="8.7907" cy="88.7907" r="2.7907" fill="#EAEAD9"/>
<circle cx="28.3254" cy="88.7907" r="2.7907" fill="#EAEAD9"/>
<circle cx="18.5578" cy="103.209" r="2.7907" fill="#EAEAD9"/>
<circle cx="57.6276" cy="103.209" r="2.7907" fill="#EAEAD9"/>
<circle cx="96.6969" cy="103.209" r="2.7907" fill="#EAEAD9"/>
<circle cx="135.767" cy="103.209" r="2.7907" fill="#EAEAD9"/>
<circle cx="174.838" cy="103.209" r="2.7907" fill="#EAEAD9"/>
<circle cx="213.906" cy="103.209" r="2.7907" fill="#EAEAD9"/>
<circle cx="38.0929" cy="103.209" r="2.7907" fill="#EAEAD9"/>
<circle cx="77.1628" cy="103.209" r="2.7907" fill="#EAEAD9"/>
<circle cx="116.232" cy="103.209" r="2.7907" fill="#EAEAD9"/>
<circle cx="155.302" cy="103.209" r="2.7907" fill="#EAEAD9"/>
<circle cx="194.372" cy="103.209" r="2.7907" fill="#EAEAD9"/>
<circle cx="233.442" cy="103.209" r="2.7907" fill="#EAEAD9"/>
<circle cx="47.8605" cy="88.7907" r="2.7907" fill="#EAEAD9"/>
<circle cx="67.3952" cy="88.7907" r="2.7907" fill="#EAEAD9"/>
<circle cx="86.9303" cy="88.7907" r="2.7907" fill="#EAEAD9"/>
<circle cx="106.465" cy="88.7907" r="2.7907" fill="#EAEAD9"/>
<circle cx="126" cy="88.7907" r="2.7907" fill="#EAEAD9"/>
<circle cx="145.535" cy="88.7907" r="2.7907" fill="#EAEAD9"/>
<circle cx="165.069" cy="88.7907" r="2.7907" fill="#EAEAD9"/>
<circle cx="184.605" cy="88.7907" r="2.7907" fill="#EAEAD9"/>
<circle cx="204.14" cy="88.7907" r="2.7907" fill="#EAEAD9"/>
<circle cx="223.675" cy="88.7907" r="2.7907" fill="#EAEAD9"/>
<circle cx="243.209" cy="88.7907" r="2.7907" fill="#EAEAD9"/>
<circle cx="8.7907" cy="117.628" r="2.7907" fill="#EAEAD9"/>
<circle cx="28.3254" cy="117.628" r="2.7907" fill="#EAEAD9"/>
<circle cx="18.5578" cy="132.047" r="2.7907" fill="#EAEAD9"/>
<circle cx="57.6276" cy="132.047" r="2.7907" fill="#EAEAD9"/>
<circle cx="96.6969" cy="132.047" r="2.7907" fill="#EAEAD9"/>
<circle cx="135.767" cy="132.047" r="2.7907" fill="#EAEAD9"/>
<circle cx="174.838" cy="132.047" r="2.7907" fill="#EAEAD9"/>
<circle cx="213.906" cy="132.047" r="2.7907" fill="#EAEAD9"/>
<circle cx="38.0929" cy="132.047" r="2.7907" fill="#EAEAD9"/>
<circle cx="77.1628" cy="132.047" r="2.7907" fill="#EAEAD9"/>
<circle cx="116.232" cy="132.047" r="2.7907" fill="#EAEAD9"/>
<circle cx="155.302" cy="132.047" r="2.7907" fill="#EAEAD9"/>
<circle cx="194.372" cy="132.047" r="2.7907" fill="#EAEAD9"/>
<circle cx="233.442" cy="132.047" r="2.7907" fill="#EAEAD9"/>
<circle cx="47.8605" cy="117.628" r="2.7907" fill="#EAEAD9"/>
<circle cx="67.3952" cy="117.628" r="2.7907" fill="#EAEAD9"/>
<circle cx="86.9303" cy="117.628" r="2.7907" fill="#EAEAD9"/>
<circle cx="106.465" cy="117.628" r="2.7907" fill="#EAEAD9"/>
<circle cx="126" cy="117.628" r="2.7907" fill="#EAEAD9"/>
<circle cx="145.535" cy="117.628" r="2.7907" fill="#EAEAD9"/>
<circle cx="165.069" cy="117.628" r="2.7907" fill="#EAEAD9"/>
<circle cx="184.605" cy="117.628" r="2.7907" fill="#EAEAD9"/>
<circle cx="204.14" cy="117.628" r="2.7907" fill="#EAEAD9"/>
<circle cx="223.675" cy="117.628" r="2.7907" fill="#EAEAD9"/>
<circle cx="243.209" cy="117.628" r="2.7907" fill="#EAEAD9"/>
<circle cx="8.7907" cy="59.7907" r="2.7907" fill="#EAEAD9"/>
<circle cx="28.3254" cy="59.7907" r="2.7907" fill="#EAEAD9"/>
<circle cx="18.5578" cy="74.2094" r="2.7907" fill="#EAEAD9"/>
<circle cx="57.6276" cy="74.2094" r="2.7907" fill="#EAEAD9"/>
<circle cx="96.6969" cy="74.2094" r="2.7907" fill="#EAEAD9"/>
<circle cx="135.767" cy="74.2094" r="2.7907" fill="#EAEAD9"/>
<circle cx="174.838" cy="74.2094" r="2.7907" fill="#EAEAD9"/>
<circle cx="213.906" cy="74.2094" r="2.7907" fill="#EAEAD9"/>
<circle cx="38.0929" cy="74.2094" r="2.7907" fill="#EAEAD9"/>
<circle cx="77.1628" cy="74.2094" r="2.7907" fill="#EAEAD9"/>
<circle cx="116.232" cy="74.2094" r="2.7907" fill="#EAEAD9"/>
<circle cx="155.302" cy="74.2094" r="2.7907" fill="#EAEAD9"/>
<circle cx="194.372" cy="74.2094" r="2.7907" fill="#EAEAD9"/>
<circle cx="233.442" cy="74.2094" r="2.7907" fill="#EAEAD9"/>
<circle cx="47.8605" cy="59.7907" r="2.7907" fill="#EAEAD9"/>
<circle cx="67.3952" cy="59.7907" r="2.7907" fill="#EAEAD9"/>
<circle cx="86.9303" cy="59.7907" r="2.7907" fill="#EAEAD9"/>
<circle cx="106.465" cy="59.7907" r="2.7907" fill="#EAEAD9"/>
<circle cx="126" cy="59.7907" r="2.7907" fill="#EAEAD9"/>
<circle cx="145.535" cy="59.7907" r="2.7907" fill="#EAEAD9"/>
<circle cx="165.069" cy="59.7907" r="2.7907" fill="#EAEAD9"/>
<circle cx="184.605" cy="59.7907" r="2.7907" fill="#EAEAD9"/>
<circle cx="204.14" cy="59.7907" r="2.7907" fill="#EAEAD9"/>
<circle cx="223.675" cy="59.7907" r="2.7907" fill="#EAEAD9"/>
<circle cx="243.209" cy="59.7907" r="2.7907" fill="#EAEAD9"/>
<circle cx="8.7907" cy="88.6281" r="2.7907" fill="#EAEAD9"/>
<circle cx="28.3254" cy="88.6281" r="2.7907" fill="#EAEAD9"/>
<circle cx="18.5578" cy="103.047" r="2.7907" fill="#EAEAD9"/>
<circle cx="57.6276" cy="103.047" r="2.7907" fill="#EAEAD9"/>
<circle cx="96.6969" cy="103.047" r="2.7907" fill="#EAEAD9"/>
<circle cx="135.767" cy="103.047" r="2.7907" fill="#EAEAD9"/>
<circle cx="174.838" cy="103.047" r="2.7907" fill="#EAEAD9"/>
<circle cx="213.906" cy="103.047" r="2.7907" fill="#EAEAD9"/>
<circle cx="38.0929" cy="103.047" r="2.7907" fill="#EAEAD9"/>
<circle cx="77.1628" cy="103.047" r="2.7907" fill="#EAEAD9"/>
<circle cx="116.232" cy="103.047" r="2.7907" fill="#EAEAD9"/>
<circle cx="155.302" cy="103.047" r="2.7907" fill="#EAEAD9"/>
<circle cx="194.372" cy="103.047" r="2.7907" fill="#EAEAD9"/>
<circle cx="233.442" cy="103.047" r="2.7907" fill="#EAEAD9"/>
<circle cx="47.8605" cy="88.6281" r="2.7907" fill="#EAEAD9"/>
<circle cx="67.3952" cy="88.6281" r="2.7907" fill="#EAEAD9"/>
<circle cx="86.9303" cy="88.6281" r="2.7907" fill="#EAEAD9"/>
<circle cx="106.465" cy="88.6281" r="2.7907" fill="#EAEAD9"/>
<circle cx="126" cy="88.6281" r="2.7907" fill="#EAEAD9"/>
<circle cx="145.535" cy="88.6281" r="2.7907" fill="#EAEAD9"/>
<circle cx="165.069" cy="88.6281" r="2.7907" fill="#EAEAD9"/>
<circle cx="184.605" cy="88.6281" r="2.7907" fill="#EAEAD9"/>
<circle cx="204.14" cy="88.6281" r="2.7907" fill="#EAEAD9"/>
<circle cx="223.675" cy="88.6281" r="2.7907" fill="#EAEAD9"/>
<circle cx="243.209" cy="88.6281" r="2.7907" fill="#EAEAD9"/>
<circle cx="242.791" cy="59.7907" r="2.7907" fill="#EAEAD9"/>
<circle cx="262.325" cy="59.7907" r="2.7907" fill="#EAEAD9"/>
<circle cx="252.558" cy="74.2094" r="2.7907" fill="#EAEAD9"/>
<circle cx="291.628" cy="74.2094" r="2.7907" fill="#EAEAD9"/>
<circle cx="330.697" cy="74.2094" r="2.7907" fill="#EAEAD9"/>
<circle cx="369.767" cy="74.2094" r="2.7907" fill="#EAEAD9"/>
<circle cx="408.838" cy="74.2094" r="2.7907" fill="#EAEAD9"/>
<circle cx="447.906" cy="74.2094" r="2.7907" fill="#EAEAD9"/>
<circle cx="272.093" cy="74.2094" r="2.7907" fill="#EAEAD9"/>
<circle cx="311.163" cy="74.2094" r="2.7907" fill="#EAEAD9"/>
<circle cx="350.232" cy="74.2094" r="2.7907" fill="#EAEAD9"/>
<circle cx="389.302" cy="74.2094" r="2.7907" fill="#EAEAD9"/>
<circle cx="428.372" cy="74.2094" r="2.7907" fill="#EAEAD9"/>
<circle cx="467.442" cy="74.2094" r="2.7907" fill="#EAEAD9"/>
<circle cx="281.861" cy="59.7907" r="2.7907" fill="#EAEAD9"/>
<circle cx="301.395" cy="59.7907" r="2.7907" fill="#EAEAD9"/>
<circle cx="320.93" cy="59.7907" r="2.7907" fill="#EAEAD9"/>
<circle cx="340.466" cy="59.7907" r="2.7907" fill="#EAEAD9"/>
<circle cx="360" cy="59.7907" r="2.7907" fill="#EAEAD9"/>
<circle cx="379.535" cy="59.7907" r="2.7907" fill="#EAEAD9"/>
<circle cx="399.069" cy="59.7907" r="2.7907" fill="#EAEAD9"/>
<circle cx="418.605" cy="59.7907" r="2.7907" fill="#EAEAD9"/>
<circle cx="438.14" cy="59.7907" r="2.7907" fill="#EAEAD9"/>
<circle cx="457.675" cy="59.7907" r="2.7907" fill="#EAEAD9"/>
<circle cx="477.209" cy="59.7907" r="2.7907" fill="#EAEAD9"/>
<circle cx="242.791" cy="88.6281" r="2.7907" fill="#EAEAD9"/>
<circle cx="262.325" cy="88.6281" r="2.7907" fill="#EAEAD9"/>
<circle cx="252.558" cy="103.047" r="2.7907" fill="#EAEAD9"/>
<circle cx="291.628" cy="103.047" r="2.7907" fill="#EAEAD9"/>
<circle cx="330.697" cy="103.047" r="2.7907" fill="#EAEAD9"/>
<circle cx="369.767" cy="103.047" r="2.7907" fill="#EAEAD9"/>
<circle cx="408.838" cy="103.047" r="2.7907" fill="#EAEAD9"/>
<circle cx="447.906" cy="103.047" r="2.7907" fill="#EAEAD9"/>
<circle cx="272.093" cy="103.047" r="2.7907" fill="#EAEAD9"/>
<circle cx="311.163" cy="103.047" r="2.7907" fill="#EAEAD9"/>
<circle cx="350.232" cy="103.047" r="2.7907" fill="#EAEAD9"/>
<circle cx="389.302" cy="103.047" r="2.7907" fill="#EAEAD9"/>
<circle cx="428.372" cy="103.047" r="2.7907" fill="#EAEAD9"/>
<circle cx="467.442" cy="103.047" r="2.7907" fill="#EAEAD9"/>
<circle cx="281.861" cy="88.6281" r="2.7907" fill="#EAEAD9"/>
<circle cx="301.395" cy="88.6281" r="2.7907" fill="#EAEAD9"/>
<circle cx="320.93" cy="88.6281" r="2.7907" fill="#EAEAD9"/>
<circle cx="340.466" cy="88.6281" r="2.7907" fill="#EAEAD9"/>
<circle cx="360" cy="88.6281" r="2.7907" fill="#EAEAD9"/>
<circle cx="379.535" cy="88.6281" r="2.7907" fill="#EAEAD9"/>
<circle cx="399.069" cy="88.6281" r="2.7907" fill="#EAEAD9"/>
<circle cx="418.605" cy="88.6281" r="2.7907" fill="#EAEAD9"/>
<circle cx="438.14" cy="88.6281" r="2.7907" fill="#EAEAD9"/>
<circle cx="457.675" cy="88.6281" r="2.7907" fill="#EAEAD9"/>
<circle cx="477.209" cy="88.6281" r="2.7907" fill="#EAEAD9"/>
<circle cx="242.791" cy="88.7907" r="2.7907" fill="#EAEAD9"/>
<circle cx="262.325" cy="88.7907" r="2.7907" fill="#EAEAD9"/>
<circle cx="252.558" cy="103.209" r="2.7907" fill="#EAEAD9"/>
<circle cx="291.628" cy="103.209" r="2.7907" fill="#EAEAD9"/>
<circle cx="330.697" cy="103.209" r="2.7907" fill="#EAEAD9"/>
<circle cx="369.767" cy="103.209" r="2.7907" fill="#EAEAD9"/>
<circle cx="408.838" cy="103.209" r="2.7907" fill="#EAEAD9"/>
<circle cx="447.906" cy="103.209" r="2.7907" fill="#EAEAD9"/>
<circle cx="272.093" cy="103.209" r="2.7907" fill="#EAEAD9"/>
<circle cx="311.163" cy="103.209" r="2.7907" fill="#EAEAD9"/>
<circle cx="350.232" cy="103.209" r="2.7907" fill="#EAEAD9"/>
<circle cx="389.302" cy="103.209" r="2.7907" fill="#EAEAD9"/>
<circle cx="428.372" cy="103.209" r="2.7907" fill="#EAEAD9"/>
<circle cx="467.442" cy="103.209" r="2.7907" fill="#EAEAD9"/>
<circle cx="281.861" cy="88.7907" r="2.7907" fill="#EAEAD9"/>
<circle cx="301.395" cy="88.7907" r="2.7907" fill="#EAEAD9"/>
<circle cx="320.93" cy="88.7907" r="2.7907" fill="#EAEAD9"/>
<circle cx="340.466" cy="88.7907" r="2.7907" fill="#EAEAD9"/>
<circle cx="360" cy="88.7907" r="2.7907" fill="#EAEAD9"/>
<circle cx="379.535" cy="88.7907" r="2.7907" fill="#EAEAD9"/>
<circle cx="399.069" cy="88.7907" r="2.7907" fill="#EAEAD9"/>
<circle cx="418.605" cy="88.7907" r="2.7907" fill="#EAEAD9"/>
<circle cx="438.14" cy="88.7907" r="2.7907" fill="#EAEAD9"/>
<circle cx="457.675" cy="88.7907" r="2.7907" fill="#EAEAD9"/>
<circle cx="477.209" cy="88.7907" r="2.7907" fill="#EAEAD9"/>
<circle cx="242.791" cy="117.628" r="2.7907" fill="#EAEAD9"/>
<circle cx="262.325" cy="117.628" r="2.7907" fill="#EAEAD9"/>
<circle cx="252.558" cy="132.047" r="2.7907" fill="#EAEAD9"/>
<circle cx="291.628" cy="132.047" r="2.7907" fill="#EAEAD9"/>
<circle cx="330.697" cy="132.047" r="2.7907" fill="#EAEAD9"/>
<circle cx="369.767" cy="132.047" r="2.7907" fill="#EAEAD9"/>
<circle cx="408.838" cy="132.047" r="2.7907" fill="#EAEAD9"/>
<circle cx="447.906" cy="132.047" r="2.7907" fill="#EAEAD9"/>
<circle cx="272.093" cy="132.047" r="2.7907" fill="#EAEAD9"/>
<circle cx="311.163" cy="132.047" r="2.7907" fill="#EAEAD9"/>
<circle cx="350.232" cy="132.047" r="2.7907" fill="#EAEAD9"/>
<circle cx="389.302" cy="132.047" r="2.7907" fill="#EAEAD9"/>
<circle cx="428.372" cy="132.047" r="2.7907" fill="#EAEAD9"/>
<circle cx="467.442" cy="132.047" r="2.7907" fill="#EAEAD9"/>
<circle cx="281.861" cy="117.628" r="2.7907" fill="#EAEAD9"/>
<circle cx="301.395" cy="117.628" r="2.7907" fill="#EAEAD9"/>
<circle cx="320.93" cy="117.628" r="2.7907" fill="#EAEAD9"/>
<circle cx="340.466" cy="117.628" r="2.7907" fill="#EAEAD9"/>
<circle cx="360" cy="117.628" r="2.7907" fill="#EAEAD9"/>
<circle cx="379.535" cy="117.628" r="2.7907" fill="#EAEAD9"/>
<circle cx="399.069" cy="117.628" r="2.7907" fill="#EAEAD9"/>
<circle cx="418.605" cy="117.628" r="2.7907" fill="#EAEAD9"/>
<circle cx="438.14" cy="117.628" r="2.7907" fill="#EAEAD9"/>
<circle cx="457.675" cy="117.628" r="2.7907" fill="#EAEAD9"/>
<circle cx="477.209" cy="117.628" r="2.7907" fill="#EAEAD9"/>
<circle cx="242.791" cy="117.791" r="2.7907" fill="#EAEAD9"/>
<circle cx="262.325" cy="117.791" r="2.7907" fill="#EAEAD9"/>
<circle cx="252.558" cy="132.209" r="2.7907" fill="#EAEAD9"/>
<circle cx="291.628" cy="132.209" r="2.7907" fill="#EAEAD9"/>
<circle cx="330.697" cy="132.209" r="2.7907" fill="#EAEAD9"/>
<circle cx="369.767" cy="132.209" r="2.7907" fill="#EAEAD9"/>
<circle cx="408.838" cy="132.209" r="2.7907" fill="#EAEAD9"/>
<circle cx="447.906" cy="132.209" r="2.7907" fill="#EAEAD9"/>
<circle cx="272.093" cy="132.209" r="2.7907" fill="#EAEAD9"/>
<circle cx="311.163" cy="132.209" r="2.7907" fill="#EAEAD9"/>
<circle cx="350.232" cy="132.209" r="2.7907" fill="#EAEAD9"/>
<circle cx="389.302" cy="132.209" r="2.7907" fill="#EAEAD9"/>
<circle cx="428.372" cy="132.209" r="2.7907" fill="#EAEAD9"/>
<circle cx="467.442" cy="132.209" r="2.7907" fill="#EAEAD9"/>
<circle cx="281.861" cy="117.791" r="2.7907" fill="#EAEAD9"/>
<circle cx="301.395" cy="117.791" r="2.7907" fill="#EAEAD9"/>
<circle cx="320.93" cy="117.791" r="2.7907" fill="#EAEAD9"/>
<circle cx="340.466" cy="117.791" r="2.7907" fill="#EAEAD9"/>
<circle cx="360" cy="117.791" r="2.7907" fill="#EAEAD9"/>
<circle cx="379.535" cy="117.791" r="2.7907" fill="#EAEAD9"/>
<circle cx="399.069" cy="117.791" r="2.7907" fill="#EAEAD9"/>
<circle cx="418.605" cy="117.791" r="2.7907" fill="#EAEAD9"/>
<circle cx="438.14" cy="117.791" r="2.7907" fill="#EAEAD9"/>
<circle cx="457.675" cy="117.791" r="2.7907" fill="#EAEAD9"/>
<circle cx="477.209" cy="117.791" r="2.7907" fill="#EAEAD9"/>
<circle cx="242.791" cy="146.628" r="2.7907" fill="#EAEAD9"/>
<circle cx="262.325" cy="146.628" r="2.7907" fill="#EAEAD9"/>
<circle cx="281.861" cy="146.628" r="2.7907" fill="#EAEAD9"/>
<circle cx="301.395" cy="146.628" r="2.7907" fill="#EAEAD9"/>
<circle cx="320.93" cy="146.628" r="2.7907" fill="#EAEAD9"/>
<circle cx="340.466" cy="146.628" r="2.7907" fill="#EAEAD9"/>
<circle cx="360" cy="146.628" r="2.7907" fill="#EAEAD9"/>
<circle cx="379.535" cy="146.628" r="2.7907" fill="#EAEAD9"/>
<circle cx="399.069" cy="146.628" r="2.7907" fill="#EAEAD9"/>
<circle cx="418.605" cy="146.628" r="2.7907" fill="#EAEAD9"/>
<circle cx="438.14" cy="146.628" r="2.7907" fill="#EAEAD9"/>
<circle cx="457.675" cy="146.628" r="2.7907" fill="#EAEAD9"/>
<circle cx="477.209" cy="146.628" r="2.7907" fill="#EAEAD9"/>
<circle cx="281.791" cy="59.7907" r="2.7907" fill="#EAEAD9"/>
<circle cx="301.325" cy="59.7907" r="2.7907" fill="#EAEAD9"/>
<circle cx="291.558" cy="74.2094" r="2.7907" fill="#EAEAD9"/>
<circle cx="330.628" cy="74.2094" r="2.7907" fill="#EAEAD9"/>
<circle cx="369.697" cy="74.2094" r="2.7907" fill="#EAEAD9"/>
<circle cx="408.767" cy="74.2094" r="2.7907" fill="#EAEAD9"/>
<circle cx="447.838" cy="74.2094" r="2.7907" fill="#EAEAD9"/>
<circle cx="486.906" cy="74.2094" r="2.7907" fill="#EAEAD9"/>
<circle cx="311.093" cy="74.2094" r="2.7907" fill="#EAEAD9"/>
<circle cx="350.163" cy="74.2094" r="2.7907" fill="#EAEAD9"/>
<circle cx="389.232" cy="74.2094" r="2.7907" fill="#EAEAD9"/>
<circle cx="428.302" cy="74.2094" r="2.7907" fill="#EAEAD9"/>
<circle cx="467.372" cy="74.2094" r="2.7907" fill="#EAEAD9"/>
<circle cx="506.442" cy="74.2094" r="2.7907" fill="#EAEAD9"/>
<circle cx="320.861" cy="59.7907" r="2.7907" fill="#EAEAD9"/>
<circle cx="340.395" cy="59.7907" r="2.7907" fill="#EAEAD9"/>
<circle cx="359.93" cy="59.7907" r="2.7907" fill="#EAEAD9"/>
<circle cx="379.466" cy="59.7907" r="2.7907" fill="#EAEAD9"/>
<circle cx="399" cy="59.7907" r="2.7907" fill="#EAEAD9"/>
<circle cx="418.535" cy="59.7907" r="2.7907" fill="#EAEAD9"/>
<circle cx="438.069" cy="59.7907" r="2.7907" fill="#EAEAD9"/>
<circle cx="457.605" cy="59.7907" r="2.7907" fill="#EAEAD9"/>
<circle cx="477.14" cy="59.7907" r="2.7907" fill="#EAEAD9"/>
<circle cx="496.675" cy="59.7907" r="2.7907" fill="#EAEAD9"/>
<circle cx="516.209" cy="59.7907" r="2.7907" fill="#EAEAD9"/>
<circle cx="281.791" cy="88.6281" r="2.7907" fill="#EAEAD9"/>
<circle cx="301.325" cy="88.6281" r="2.7907" fill="#EAEAD9"/>
<circle cx="291.558" cy="103.047" r="2.7907" fill="#EAEAD9"/>
<circle cx="330.628" cy="103.047" r="2.7907" fill="#EAEAD9"/>
<circle cx="369.697" cy="103.047" r="2.7907" fill="#EAEAD9"/>
<circle cx="408.767" cy="103.047" r="2.7907" fill="#EAEAD9"/>
<circle cx="447.838" cy="103.047" r="2.7907" fill="#EAEAD9"/>
<circle cx="486.906" cy="103.047" r="2.7907" fill="#EAEAD9"/>
<circle cx="311.093" cy="103.047" r="2.7907" fill="#EAEAD9"/>
<circle cx="350.163" cy="103.047" r="2.7907" fill="#EAEAD9"/>
<circle cx="389.232" cy="103.047" r="2.7907" fill="#EAEAD9"/>
<circle cx="428.302" cy="103.047" r="2.7907" fill="#EAEAD9"/>
<circle cx="467.372" cy="103.047" r="2.7907" fill="#EAEAD9"/>
<circle cx="506.442" cy="103.047" r="2.7907" fill="#EAEAD9"/>
<circle cx="320.861" cy="88.6281" r="2.7907" fill="#EAEAD9"/>
<circle cx="340.395" cy="88.6281" r="2.7907" fill="#EAEAD9"/>
<circle cx="359.93" cy="88.6281" r="2.7907" fill="#EAEAD9"/>
<circle cx="379.466" cy="88.6281" r="2.7907" fill="#EAEAD9"/>
<circle cx="399" cy="88.6281" r="2.7907" fill="#EAEAD9"/>
<circle cx="418.535" cy="88.6281" r="2.7907" fill="#EAEAD9"/>
<circle cx="438.069" cy="88.6281" r="2.7907" fill="#EAEAD9"/>
<circle cx="457.605" cy="88.6281" r="2.7907" fill="#EAEAD9"/>
<circle cx="477.14" cy="88.6281" r="2.7907" fill="#EAEAD9"/>
<circle cx="496.675" cy="88.6281" r="2.7907" fill="#EAEAD9"/>
<circle cx="516.209" cy="88.6281" r="2.7907" fill="#EAEAD9"/>
<circle cx="281.791" cy="88.7907" r="2.7907" fill="#EAEAD9"/>
<circle cx="301.325" cy="88.7907" r="2.7907" fill="#EAEAD9"/>
<circle cx="291.558" cy="103.209" r="2.7907" fill="#EAEAD9"/>
<circle cx="330.628" cy="103.209" r="2.7907" fill="#EAEAD9"/>
<circle cx="369.697" cy="103.209" r="2.7907" fill="#EAEAD9"/>
<circle cx="408.767" cy="103.209" r="2.7907" fill="#EAEAD9"/>
<circle cx="447.838" cy="103.209" r="2.7907" fill="#EAEAD9"/>
<circle cx="486.906" cy="103.209" r="2.7907" fill="#EAEAD9"/>
<circle cx="311.093" cy="103.209" r="2.7907" fill="#EAEAD9"/>
<circle cx="350.163" cy="103.209" r="2.7907" fill="#EAEAD9"/>
<circle cx="389.232" cy="103.209" r="2.7907" fill="#EAEAD9"/>
<circle cx="428.302" cy="103.209" r="2.7907" fill="#EAEAD9"/>
<circle cx="467.372" cy="103.209" r="2.7907" fill="#EAEAD9"/>
<circle cx="506.442" cy="103.209" r="2.7907" fill="#EAEAD9"/>
<circle cx="320.861" cy="88.7907" r="2.7907" fill="#EAEAD9"/>
<circle cx="340.395" cy="88.7907" r="2.7907" fill="#EAEAD9"/>
<circle cx="359.93" cy="88.7907" r="2.7907" fill="#EAEAD9"/>
<circle cx="379.466" cy="88.7907" r="2.7907" fill="#EAEAD9"/>
<circle cx="399" cy="88.7907" r="2.7907" fill="#EAEAD9"/>
<circle cx="418.535" cy="88.7907" r="2.7907" fill="#EAEAD9"/>
<circle cx="438.069" cy="88.7907" r="2.7907" fill="#EAEAD9"/>
<circle cx="457.605" cy="88.7907" r="2.7907" fill="#EAEAD9"/>
<circle cx="477.14" cy="88.7907" r="2.7907" fill="#EAEAD9"/>
<circle cx="496.675" cy="88.7907" r="2.7907" fill="#EAEAD9"/>
<circle cx="516.209" cy="88.7907" r="2.7907" fill="#EAEAD9"/>
<circle cx="281.791" cy="117.628" r="2.7907" fill="#EAEAD9"/>
<circle cx="301.325" cy="117.628" r="2.7907" fill="#EAEAD9"/>
<circle cx="291.558" cy="132.047" r="2.7907" fill="#EAEAD9"/>
<circle cx="330.628" cy="132.047" r="2.7907" fill="#EAEAD9"/>
<circle cx="369.697" cy="132.047" r="2.7907" fill="#EAEAD9"/>
<circle cx="408.767" cy="132.047" r="2.7907" fill="#EAEAD9"/>
<circle cx="447.838" cy="132.047" r="2.7907" fill="#EAEAD9"/>
<circle cx="486.906" cy="132.047" r="2.7907" fill="#EAEAD9"/>
<circle cx="311.093" cy="132.047" r="2.7907" fill="#EAEAD9"/>
<circle cx="350.163" cy="132.047" r="2.7907" fill="#EAEAD9"/>
<circle cx="389.232" cy="132.047" r="2.7907" fill="#EAEAD9"/>
<circle cx="428.302" cy="132.047" r="2.7907" fill="#EAEAD9"/>
<circle cx="467.372" cy="132.047" r="2.7907" fill="#EAEAD9"/>
<circle cx="506.442" cy="132.047" r="2.7907" fill="#EAEAD9"/>
<circle cx="320.861" cy="117.628" r="2.7907" fill="#EAEAD9"/>
<circle cx="340.395" cy="117.628" r="2.7907" fill="#EAEAD9"/>
<circle cx="359.93" cy="117.628" r="2.7907" fill="#EAEAD9"/>
<circle cx="379.466" cy="117.628" r="2.7907" fill="#EAEAD9"/>
<circle cx="399" cy="117.628" r="2.7907" fill="#EAEAD9"/>
<circle cx="418.535" cy="117.628" r="2.7907" fill="#EAEAD9"/>
<circle cx="438.069" cy="117.628" r="2.7907" fill="#EAEAD9"/>
<circle cx="457.605" cy="117.628" r="2.7907" fill="#EAEAD9"/>
<circle cx="477.14" cy="117.628" r="2.7907" fill="#EAEAD9"/>
<circle cx="496.675" cy="117.628" r="2.7907" fill="#EAEAD9"/>
<circle cx="516.209" cy="117.628" r="2.7907" fill="#EAEAD9"/>
<circle cx="281.791" cy="117.791" r="2.7907" fill="#EAEAD9"/>
<circle cx="301.325" cy="117.791" r="2.7907" fill="#EAEAD9"/>
<circle cx="291.558" cy="132.209" r="2.7907" fill="#EAEAD9"/>
<circle cx="330.628" cy="132.209" r="2.7907" fill="#EAEAD9"/>
<circle cx="369.697" cy="132.209" r="2.7907" fill="#EAEAD9"/>
<circle cx="408.767" cy="132.209" r="2.7907" fill="#EAEAD9"/>
<circle cx="447.838" cy="132.209" r="2.7907" fill="#EAEAD9"/>
<circle cx="486.906" cy="132.209" r="2.7907" fill="#EAEAD9"/>
<circle cx="311.093" cy="132.209" r="2.7907" fill="#EAEAD9"/>
<circle cx="350.163" cy="132.209" r="2.7907" fill="#EAEAD9"/>
<circle cx="389.232" cy="132.209" r="2.7907" fill="#EAEAD9"/>
<circle cx="428.302" cy="132.209" r="2.7907" fill="#EAEAD9"/>
<circle cx="467.372" cy="132.209" r="2.7907" fill="#EAEAD9"/>
<circle cx="506.442" cy="132.209" r="2.7907" fill="#EAEAD9"/>
<circle cx="320.861" cy="117.791" r="2.7907" fill="#EAEAD9"/>
<circle cx="340.395" cy="117.791" r="2.7907" fill="#EAEAD9"/>
<circle cx="359.93" cy="117.791" r="2.7907" fill="#EAEAD9"/>
<circle cx="379.466" cy="117.791" r="2.7907" fill="#EAEAD9"/>
<circle cx="399" cy="117.791" r="2.7907" fill="#EAEAD9"/>
<circle cx="418.535" cy="117.791" r="2.7907" fill="#EAEAD9"/>
<circle cx="438.069" cy="117.791" r="2.7907" fill="#EAEAD9"/>
<circle cx="457.605" cy="117.791" r="2.7907" fill="#EAEAD9"/>
<circle cx="477.14" cy="117.791" r="2.7907" fill="#EAEAD9"/>
<circle cx="496.675" cy="117.791" r="2.7907" fill="#EAEAD9"/>
<circle cx="516.209" cy="117.791" r="2.7907" fill="#EAEAD9"/>
<circle cx="281.791" cy="146.628" r="2.7907" fill="#EAEAD9"/>
<circle cx="301.325" cy="146.628" r="2.7907" fill="#EAEAD9"/>
<circle cx="320.861" cy="146.628" r="2.7907" fill="#EAEAD9"/>
<circle cx="340.395" cy="146.628" r="2.7907" fill="#EAEAD9"/>
<circle cx="359.93" cy="146.628" r="2.7907" fill="#EAEAD9"/>
<circle cx="379.466" cy="146.628" r="2.7907" fill="#EAEAD9"/>
<circle cx="399" cy="146.628" r="2.7907" fill="#EAEAD9"/>
<circle cx="418.535" cy="146.628" r="2.7907" fill="#EAEAD9"/>
<circle cx="438.069" cy="146.628" r="2.7907" fill="#EAEAD9"/>
<circle cx="457.605" cy="146.628" r="2.7907" fill="#EAEAD9"/>
<circle cx="477.14" cy="146.628" r="2.7907" fill="#EAEAD9"/>
<circle cx="496.675" cy="146.628" r="2.7907" fill="#EAEAD9"/>
<circle cx="516.209" cy="146.628" r="2.7907" fill="#EAEAD9"/>
<circle cx="8.7907" cy="88.7907" r="2.7907" fill="#EAEAD9"/>
<circle cx="28.3254" cy="88.7907" r="2.7907" fill="#EAEAD9"/>
<circle cx="18.5578" cy="103.209" r="2.7907" fill="#EAEAD9"/>
<circle cx="57.6276" cy="103.209" r="2.7907" fill="#EAEAD9"/>
<circle cx="96.6969" cy="103.209" r="2.7907" fill="#EAEAD9"/>
<circle cx="135.767" cy="103.209" r="2.7907" fill="#EAEAD9"/>
<circle cx="174.838" cy="103.209" r="2.7907" fill="#EAEAD9"/>
<circle cx="213.906" cy="103.209" r="2.7907" fill="#EAEAD9"/>
<circle cx="38.0929" cy="103.209" r="2.7907" fill="#EAEAD9"/>
<circle cx="77.1628" cy="103.209" r="2.7907" fill="#EAEAD9"/>
<circle cx="116.232" cy="103.209" r="2.7907" fill="#EAEAD9"/>
<circle cx="155.302" cy="103.209" r="2.7907" fill="#EAEAD9"/>
<circle cx="194.372" cy="103.209" r="2.7907" fill="#EAEAD9"/>
<circle cx="233.442" cy="103.209" r="2.7907" fill="#EAEAD9"/>
<circle cx="47.8605" cy="88.7907" r="2.7907" fill="#EAEAD9"/>
<circle cx="67.3952" cy="88.7907" r="2.7907" fill="#EAEAD9"/>
<circle cx="86.9303" cy="88.7907" r="2.7907" fill="#EAEAD9"/>
<circle cx="106.465" cy="88.7907" r="2.7907" fill="#EAEAD9"/>
<circle cx="126" cy="88.7907" r="2.7907" fill="#EAEAD9"/>
<circle cx="145.535" cy="88.7907" r="2.7907" fill="#EAEAD9"/>
<circle cx="165.069" cy="88.7907" r="2.7907" fill="#EAEAD9"/>
<circle cx="184.605" cy="88.7907" r="2.7907" fill="#EAEAD9"/>
<circle cx="204.14" cy="88.7907" r="2.7907" fill="#EAEAD9"/>
<circle cx="223.675" cy="88.7907" r="2.7907" fill="#EAEAD9"/>
<circle cx="243.209" cy="88.7907" r="2.7907" fill="#EAEAD9"/>
<circle cx="8.7907" cy="117.628" r="2.7907" fill="#EAEAD9"/>
<circle cx="28.3254" cy="117.628" r="2.7907" fill="#EAEAD9"/>
<circle cx="18.5578" cy="132.047" r="2.7907" fill="#EAEAD9"/>
<circle cx="57.6276" cy="132.047" r="2.7907" fill="#EAEAD9"/>
<circle cx="96.6969" cy="132.047" r="2.7907" fill="#EAEAD9"/>
<circle cx="135.767" cy="132.047" r="2.7907" fill="#EAEAD9"/>
<circle cx="174.838" cy="132.047" r="2.7907" fill="#EAEAD9"/>
<circle cx="213.906" cy="132.047" r="2.7907" fill="#EAEAD9"/>
<circle cx="38.0929" cy="132.047" r="2.7907" fill="#EAEAD9"/>
<circle cx="77.1628" cy="132.047" r="2.7907" fill="#EAEAD9"/>
<circle cx="116.232" cy="132.047" r="2.7907" fill="#EAEAD9"/>
<circle cx="155.302" cy="132.047" r="2.7907" fill="#EAEAD9"/>
<circle cx="194.372" cy="132.047" r="2.7907" fill="#EAEAD9"/>
<circle cx="233.442" cy="132.047" r="2.7907" fill="#EAEAD9"/>
<circle cx="47.8605" cy="117.628" r="2.7907" fill="#EAEAD9"/>
<circle cx="67.3952" cy="117.628" r="2.7907" fill="#EAEAD9"/>
<circle cx="86.9303" cy="117.628" r="2.7907" fill="#EAEAD9"/>
<circle cx="106.465" cy="117.628" r="2.7907" fill="#EAEAD9"/>
<circle cx="126" cy="117.628" r="2.7907" fill="#EAEAD9"/>
<circle cx="145.535" cy="117.628" r="2.7907" fill="#EAEAD9"/>
<circle cx="165.069" cy="117.628" r="2.7907" fill="#EAEAD9"/>
<circle cx="184.605" cy="117.628" r="2.7907" fill="#EAEAD9"/>
<circle cx="204.14" cy="117.628" r="2.7907" fill="#EAEAD9"/>
<circle cx="223.675" cy="117.628" r="2.7907" fill="#EAEAD9"/>
<circle cx="243.209" cy="117.628" r="2.7907" fill="#EAEAD9"/>
<circle cx="8.7907" cy="117.791" r="2.7907" fill="#EAEAD9"/>
<circle cx="28.3254" cy="117.791" r="2.7907" fill="#EAEAD9"/>
<circle cx="18.5578" cy="132.209" r="2.7907" fill="#EAEAD9"/>
<circle cx="57.6276" cy="132.209" r="2.7907" fill="#EAEAD9"/>
<circle cx="96.6969" cy="132.209" r="2.7907" fill="#EAEAD9"/>
<circle cx="135.767" cy="132.209" r="2.7907" fill="#EAEAD9"/>
<circle cx="174.838" cy="132.209" r="2.7907" fill="#EAEAD9"/>
<circle cx="213.906" cy="132.209" r="2.7907" fill="#EAEAD9"/>
<circle cx="38.0929" cy="132.209" r="2.7907" fill="#EAEAD9"/>
<circle cx="77.1628" cy="132.209" r="2.7907" fill="#EAEAD9"/>
<circle cx="116.232" cy="132.209" r="2.7907" fill="#EAEAD9"/>
<circle cx="155.302" cy="132.209" r="2.7907" fill="#EAEAD9"/>
<circle cx="194.372" cy="132.209" r="2.7907" fill="#EAEAD9"/>
<circle cx="233.442" cy="132.209" r="2.7907" fill="#EAEAD9"/>
<circle cx="47.8605" cy="117.791" r="2.7907" fill="#EAEAD9"/>
<circle cx="67.3952" cy="117.791" r="2.7907" fill="#EAEAD9"/>
<circle cx="86.9303" cy="117.791" r="2.7907" fill="#EAEAD9"/>
<circle cx="106.465" cy="117.791" r="2.7907" fill="#EAEAD9"/>
<circle cx="126" cy="117.791" r="2.7907" fill="#EAEAD9"/>
<circle cx="145.535" cy="117.791" r="2.7907" fill="#EAEAD9"/>
<circle cx="165.069" cy="117.791" r="2.7907" fill="#EAEAD9"/>
<circle cx="184.605" cy="117.791" r="2.7907" fill="#EAEAD9"/>
<circle cx="204.14" cy="117.791" r="2.7907" fill="#EAEAD9"/>
<circle cx="223.675" cy="117.791" r="2.7907" fill="#EAEAD9"/>
<circle cx="243.209" cy="117.791" r="2.7907" fill="#EAEAD9"/>
<circle cx="8.7907" cy="146.628" r="2.7907" fill="#EAEAD9"/>
<circle cx="28.3254" cy="146.628" r="2.7907" fill="#EAEAD9"/>
<circle cx="47.8605" cy="146.628" r="2.7907" fill="#EAEAD9"/>
<circle cx="67.3952" cy="146.628" r="2.7907" fill="#EAEAD9"/>
<circle cx="86.9303" cy="146.628" r="2.7907" fill="#EAEAD9"/>
<circle cx="106.465" cy="146.628" r="2.7907" fill="#EAEAD9"/>
<circle cx="126" cy="146.628" r="2.7907" fill="#EAEAD9"/>
<circle cx="145.535" cy="146.628" r="2.7907" fill="#EAEAD9"/>
<circle cx="165.069" cy="146.628" r="2.7907" fill="#EAEAD9"/>
<circle cx="184.605" cy="146.628" r="2.7907" fill="#EAEAD9"/>
<circle cx="204.14" cy="146.628" r="2.7907" fill="#EAEAD9"/>
<circle cx="223.675" cy="146.628" r="2.7907" fill="#EAEAD9"/>
<circle cx="243.209" cy="146.628" r="2.7907" fill="#EAEAD9"/>
<circle cx="106.791" cy="59.7907" r="2.7907" fill="#EAEAD9"/>
<circle cx="126.325" cy="59.7907" r="2.7907" fill="#EAEAD9"/>
<circle cx="116.558" cy="74.2094" r="2.7907" fill="#EAEAD9"/>
<circle cx="155.628" cy="74.2094" r="2.7907" fill="#EAEAD9"/>
<circle cx="194.697" cy="74.2094" r="2.7907" fill="#EAEAD9"/>
<circle cx="233.767" cy="74.2094" r="2.7907" fill="#EAEAD9"/>
<circle cx="272.838" cy="74.2094" r="2.7907" fill="#EAEAD9"/>
<circle cx="311.906" cy="74.2094" r="2.7907" fill="#EAEAD9"/>
<circle cx="136.093" cy="74.2094" r="2.7907" fill="#EAEAD9"/>
<circle cx="175.163" cy="74.2094" r="2.7907" fill="#EAEAD9"/>
<circle cx="214.232" cy="74.2094" r="2.7907" fill="#EAEAD9"/>
<circle cx="253.302" cy="74.2094" r="2.7907" fill="#EAEAD9"/>
<circle cx="292.372" cy="74.2094" r="2.7907" fill="#EAEAD9"/>
<circle cx="331.442" cy="74.2094" r="2.7907" fill="#EAEAD9"/>
<circle cx="145.861" cy="59.7907" r="2.7907" fill="#EAEAD9"/>
<circle cx="165.395" cy="59.7907" r="2.7907" fill="#EAEAD9"/>
<circle cx="184.93" cy="59.7907" r="2.7907" fill="#EAEAD9"/>
<circle cx="204.465" cy="59.7907" r="2.7907" fill="#EAEAD9"/>
<circle cx="224" cy="59.7907" r="2.7907" fill="#EAEAD9"/>
<circle cx="243.535" cy="59.7907" r="2.7907" fill="#EAEAD9"/>
<circle cx="263.069" cy="59.7907" r="2.7907" fill="#EAEAD9"/>
<circle cx="282.605" cy="59.7907" r="2.7907" fill="#EAEAD9"/>
<circle cx="302.14" cy="59.7907" r="2.7907" fill="#EAEAD9"/>
<circle cx="321.675" cy="59.7907" r="2.7907" fill="#EAEAD9"/>
<circle cx="341.209" cy="59.7907" r="2.7907" fill="#EAEAD9"/>
<circle cx="106.791" cy="88.6281" r="2.7907" fill="#EAEAD9"/>
<circle cx="126.325" cy="88.6281" r="2.7907" fill="#EAEAD9"/>
<circle cx="116.558" cy="103.047" r="2.7907" fill="#EAEAD9"/>
<circle cx="155.628" cy="103.047" r="2.7907" fill="#EAEAD9"/>
<circle cx="194.697" cy="103.047" r="2.7907" fill="#EAEAD9"/>
<circle cx="233.767" cy="103.047" r="2.7907" fill="#EAEAD9"/>
<circle cx="272.838" cy="103.047" r="2.7907" fill="#EAEAD9"/>
<circle cx="311.906" cy="103.047" r="2.7907" fill="#EAEAD9"/>
<circle cx="136.093" cy="103.047" r="2.7907" fill="#EAEAD9"/>
<circle cx="175.163" cy="103.047" r="2.7907" fill="#EAEAD9"/>
<circle cx="214.232" cy="103.047" r="2.7907" fill="#EAEAD9"/>
<circle cx="253.302" cy="103.047" r="2.7907" fill="#EAEAD9"/>
<circle cx="292.372" cy="103.047" r="2.7907" fill="#EAEAD9"/>
<circle cx="331.442" cy="103.047" r="2.7907" fill="#EAEAD9"/>
<circle cx="145.861" cy="88.6281" r="2.7907" fill="#EAEAD9"/>
<circle cx="165.395" cy="88.6281" r="2.7907" fill="#EAEAD9"/>
<circle cx="184.93" cy="88.6281" r="2.7907" fill="#EAEAD9"/>
<circle cx="204.465" cy="88.6281" r="2.7907" fill="#EAEAD9"/>
<circle cx="224" cy="88.6281" r="2.7907" fill="#EAEAD9"/>
<circle cx="243.535" cy="88.6281" r="2.7907" fill="#EAEAD9"/>
<circle cx="263.069" cy="88.6281" r="2.7907" fill="#EAEAD9"/>
<circle cx="282.605" cy="88.6281" r="2.7907" fill="#EAEAD9"/>
<circle cx="302.14" cy="88.6281" r="2.7907" fill="#EAEAD9"/>
<circle cx="321.675" cy="88.6281" r="2.7907" fill="#EAEAD9"/>
<circle cx="341.209" cy="88.6281" r="2.7907" fill="#EAEAD9"/>
<circle cx="340.791" cy="59.7907" r="2.7907" fill="#EAEAD9"/>
<circle cx="360.325" cy="59.7907" r="2.7907" fill="#EAEAD9"/>
<circle cx="350.558" cy="74.2094" r="2.7907" fill="#EAEAD9"/>
<circle cx="389.628" cy="74.2094" r="2.7907" fill="#EAEAD9"/>
<circle cx="428.697" cy="74.2094" r="2.7907" fill="#EAEAD9"/>
<circle cx="467.767" cy="74.2094" r="2.7907" fill="#EAEAD9"/>
<circle cx="506.838" cy="74.2094" r="2.7907" fill="#EAEAD9"/>
<circle cx="545.906" cy="74.2094" r="2.7907" fill="#EAEAD9"/>
<circle cx="370.093" cy="74.2094" r="2.7907" fill="#EAEAD9"/>
<circle cx="409.163" cy="74.2094" r="2.7907" fill="#EAEAD9"/>
<circle cx="448.232" cy="74.2094" r="2.7907" fill="#EAEAD9"/>
<circle cx="487.302" cy="74.2094" r="2.7907" fill="#EAEAD9"/>
<circle cx="526.372" cy="74.2094" r="2.7907" fill="#EAEAD9"/>
<circle cx="565.442" cy="74.2094" r="2.7907" fill="#EAEAD9"/>
<circle cx="379.861" cy="59.7907" r="2.7907" fill="#EAEAD9"/>
<circle cx="399.395" cy="59.7907" r="2.7907" fill="#EAEAD9"/>
<circle cx="418.93" cy="59.7907" r="2.7907" fill="#EAEAD9"/>
<circle cx="438.466" cy="59.7907" r="2.7907" fill="#EAEAD9"/>
<circle cx="458" cy="59.7907" r="2.7907" fill="#EAEAD9"/>
<circle cx="477.535" cy="59.7907" r="2.7907" fill="#EAEAD9"/>
<circle cx="497.069" cy="59.7907" r="2.7907" fill="#EAEAD9"/>
<circle cx="516.605" cy="59.7907" r="2.7907" fill="#EAEAD9"/>
<circle cx="536.14" cy="59.7907" r="2.7907" fill="#EAEAD9"/>
<circle cx="555.675" cy="59.7907" r="2.7907" fill="#EAEAD9"/>
<circle cx="575.209" cy="59.7907" r="2.7907" fill="#EAEAD9"/>
<circle cx="340.791" cy="88.6281" r="2.7907" fill="#EAEAD9"/>
<circle cx="360.325" cy="88.6281" r="2.7907" fill="#EAEAD9"/>
<circle cx="350.558" cy="103.047" r="2.7907" fill="#EAEAD9"/>
<circle cx="389.628" cy="103.047" r="2.7907" fill="#EAEAD9"/>
<circle cx="428.697" cy="103.047" r="2.7907" fill="#EAEAD9"/>
<circle cx="467.767" cy="103.047" r="2.7907" fill="#EAEAD9"/>
<circle cx="506.838" cy="103.047" r="2.7907" fill="#EAEAD9"/>
<circle cx="545.906" cy="103.047" r="2.7907" fill="#EAEAD9"/>
<circle cx="370.093" cy="103.047" r="2.7907" fill="#EAEAD9"/>
<circle cx="409.163" cy="103.047" r="2.7907" fill="#EAEAD9"/>
<circle cx="448.232" cy="103.047" r="2.7907" fill="#EAEAD9"/>
<circle cx="487.302" cy="103.047" r="2.7907" fill="#EAEAD9"/>
<circle cx="526.372" cy="103.047" r="2.7907" fill="#EAEAD9"/>
<circle cx="565.442" cy="103.047" r="2.7907" fill="#EAEAD9"/>
<circle cx="379.861" cy="88.6281" r="2.7907" fill="#EAEAD9"/>
<circle cx="399.395" cy="88.6281" r="2.7907" fill="#EAEAD9"/>
<circle cx="418.93" cy="88.6281" r="2.7907" fill="#EAEAD9"/>
<circle cx="438.466" cy="88.6281" r="2.7907" fill="#EAEAD9"/>
<circle cx="458" cy="88.6281" r="2.7907" fill="#EAEAD9"/>
<circle cx="477.535" cy="88.6281" r="2.7907" fill="#EAEAD9"/>
<circle cx="497.069" cy="88.6281" r="2.7907" fill="#EAEAD9"/>
<circle cx="516.605" cy="88.6281" r="2.7907" fill="#EAEAD9"/>
<circle cx="536.14" cy="88.6281" r="2.7907" fill="#EAEAD9"/>
<circle cx="555.675" cy="88.6281" r="2.7907" fill="#EAEAD9"/>
<circle cx="575.209" cy="88.6281" r="2.7907" fill="#EAEAD9"/>
<circle cx="340.791" cy="88.7907" r="2.7907" fill="#EAEAD9"/>
<circle cx="360.325" cy="88.7907" r="2.7907" fill="#EAEAD9"/>
<circle cx="350.558" cy="103.209" r="2.7907" fill="#EAEAD9"/>
<circle cx="389.628" cy="103.209" r="2.7907" fill="#EAEAD9"/>
<circle cx="428.697" cy="103.209" r="2.7907" fill="#EAEAD9"/>
<circle cx="467.767" cy="103.209" r="2.7907" fill="#EAEAD9"/>
<circle cx="506.838" cy="103.209" r="2.7907" fill="#EAEAD9"/>
<circle cx="545.906" cy="103.209" r="2.7907" fill="#EAEAD9"/>
<circle cx="370.093" cy="103.209" r="2.7907" fill="#EAEAD9"/>
<circle cx="409.163" cy="103.209" r="2.7907" fill="#EAEAD9"/>
<circle cx="448.232" cy="103.209" r="2.7907" fill="#EAEAD9"/>
<circle cx="487.302" cy="103.209" r="2.7907" fill="#EAEAD9"/>
<circle cx="526.372" cy="103.209" r="2.7907" fill="#EAEAD9"/>
<circle cx="565.442" cy="103.209" r="2.7907" fill="#EAEAD9"/>
<circle cx="379.861" cy="88.7907" r="2.7907" fill="#EAEAD9"/>
<circle cx="399.395" cy="88.7907" r="2.7907" fill="#EAEAD9"/>
<circle cx="418.93" cy="88.7907" r="2.7907" fill="#EAEAD9"/>
<circle cx="438.466" cy="88.7907" r="2.7907" fill="#EAEAD9"/>
<circle cx="458" cy="88.7907" r="2.7907" fill="#EAEAD9"/>
<circle cx="477.535" cy="88.7907" r="2.7907" fill="#EAEAD9"/>
<circle cx="497.069" cy="88.7907" r="2.7907" fill="#EAEAD9"/>
<circle cx="516.605" cy="88.7907" r="2.7907" fill="#EAEAD9"/>
<circle cx="536.14" cy="88.7907" r="2.7907" fill="#EAEAD9"/>
<circle cx="555.675" cy="88.7907" r="2.7907" fill="#EAEAD9"/>
<circle cx="575.209" cy="88.7907" r="2.7907" fill="#EAEAD9"/>
<circle cx="340.791" cy="117.628" r="2.7907" fill="#EAEAD9"/>
<circle cx="360.325" cy="117.628" r="2.7907" fill="#EAEAD9"/>
<circle cx="350.558" cy="132.047" r="2.7907" fill="#EAEAD9"/>
<circle cx="389.628" cy="132.047" r="2.7907" fill="#EAEAD9"/>
<circle cx="428.697" cy="132.047" r="2.7907" fill="#EAEAD9"/>
<circle cx="467.767" cy="132.047" r="2.7907" fill="#EAEAD9"/>
<circle cx="506.838" cy="132.047" r="2.7907" fill="#EAEAD9"/>
<circle cx="545.906" cy="132.047" r="2.7907" fill="#EAEAD9"/>
<circle cx="370.093" cy="132.047" r="2.7907" fill="#EAEAD9"/>
<circle cx="409.163" cy="132.047" r="2.7907" fill="#EAEAD9"/>
<circle cx="448.232" cy="132.047" r="2.7907" fill="#EAEAD9"/>
<circle cx="487.302" cy="132.047" r="2.7907" fill="#EAEAD9"/>
<circle cx="526.372" cy="132.047" r="2.7907" fill="#EAEAD9"/>
<circle cx="565.442" cy="132.047" r="2.7907" fill="#EAEAD9"/>
<circle cx="379.861" cy="117.628" r="2.7907" fill="#EAEAD9"/>
<circle cx="399.395" cy="117.628" r="2.7907" fill="#EAEAD9"/>
<circle cx="418.93" cy="117.628" r="2.7907" fill="#EAEAD9"/>
<circle cx="438.466" cy="117.628" r="2.7907" fill="#EAEAD9"/>
<circle cx="458" cy="117.628" r="2.7907" fill="#EAEAD9"/>
<circle cx="477.535" cy="117.628" r="2.7907" fill="#EAEAD9"/>
<circle cx="497.069" cy="117.628" r="2.7907" fill="#EAEAD9"/>
<circle cx="516.605" cy="117.628" r="2.7907" fill="#EAEAD9"/>
<circle cx="536.14" cy="117.628" r="2.7907" fill="#EAEAD9"/>
<circle cx="555.675" cy="117.628" r="2.7907" fill="#EAEAD9"/>
<circle cx="575.209" cy="117.628" r="2.7907" fill="#EAEAD9"/>
<circle cx="340.791" cy="117.791" r="2.7907" fill="#EAEAD9"/>
<circle cx="360.325" cy="117.791" r="2.7907" fill="#EAEAD9"/>
<circle cx="350.558" cy="132.209" r="2.7907" fill="#EAEAD9"/>
<circle cx="389.628" cy="132.209" r="2.7907" fill="#EAEAD9"/>
<circle cx="428.697" cy="132.209" r="2.7907" fill="#EAEAD9"/>
<circle cx="467.767" cy="132.209" r="2.7907" fill="#EAEAD9"/>
<circle cx="506.838" cy="132.209" r="2.7907" fill="#EAEAD9"/>
<circle cx="545.906" cy="132.209" r="2.7907" fill="#EAEAD9"/>
<circle cx="370.093" cy="132.209" r="2.7907" fill="#EAEAD9"/>
<circle cx="409.163" cy="132.209" r="2.7907" fill="#EAEAD9"/>
<circle cx="448.232" cy="132.209" r="2.7907" fill="#EAEAD9"/>
<circle cx="487.302" cy="132.209" r="2.7907" fill="#EAEAD9"/>
<circle cx="526.372" cy="132.209" r="2.7907" fill="#EAEAD9"/>
<circle cx="565.442" cy="132.209" r="2.7907" fill="#EAEAD9"/>
<circle cx="379.861" cy="117.791" r="2.7907" fill="#EAEAD9"/>
<circle cx="399.395" cy="117.791" r="2.7907" fill="#EAEAD9"/>
<circle cx="418.93" cy="117.791" r="2.7907" fill="#EAEAD9"/>
<circle cx="438.466" cy="117.791" r="2.7907" fill="#EAEAD9"/>
<circle cx="458" cy="117.791" r="2.7907" fill="#EAEAD9"/>
<circle cx="477.535" cy="117.791" r="2.7907" fill="#EAEAD9"/>
<circle cx="497.069" cy="117.791" r="2.7907" fill="#EAEAD9"/>
<circle cx="516.605" cy="117.791" r="2.7907" fill="#EAEAD9"/>
<circle cx="536.14" cy="117.791" r="2.7907" fill="#EAEAD9"/>
<circle cx="555.675" cy="117.791" r="2.7907" fill="#EAEAD9"/>
<circle cx="575.209" cy="117.791" r="2.7907" fill="#EAEAD9"/>
<circle cx="340.791" cy="146.628" r="2.7907" fill="#EAEAD9"/>
<circle cx="360.325" cy="146.628" r="2.7907" fill="#EAEAD9"/>
<circle cx="379.861" cy="146.628" r="2.7907" fill="#EAEAD9"/>
<circle cx="399.395" cy="146.628" r="2.7907" fill="#EAEAD9"/>
<circle cx="418.93" cy="146.628" r="2.7907" fill="#EAEAD9"/>
<circle cx="438.466" cy="146.628" r="2.7907" fill="#EAEAD9"/>
<circle cx="458" cy="146.628" r="2.7907" fill="#EAEAD9"/>
<circle cx="477.535" cy="146.628" r="2.7907" fill="#EAEAD9"/>
<circle cx="497.069" cy="146.628" r="2.7907" fill="#EAEAD9"/>
<circle cx="516.605" cy="146.628" r="2.7907" fill="#EAEAD9"/>
<circle cx="536.14" cy="146.628" r="2.7907" fill="#EAEAD9"/>
<circle cx="555.675" cy="146.628" r="2.7907" fill="#EAEAD9"/>
<circle cx="575.209" cy="146.628" r="2.7907" fill="#EAEAD9"/>
<circle cx="379.791" cy="59.7907" r="2.7907" fill="#EAEAD9"/>
<circle cx="399.325" cy="59.7907" r="2.7907" fill="#EAEAD9"/>
<circle cx="389.558" cy="74.2094" r="2.7907" fill="#EAEAD9"/>
<circle cx="428.628" cy="74.2094" r="2.7907" fill="#EAEAD9"/>
<circle cx="467.697" cy="74.2094" r="2.7907" fill="#EAEAD9"/>
<circle cx="506.767" cy="74.2094" r="2.7907" fill="#EAEAD9"/>
<circle cx="545.838" cy="74.2094" r="2.7907" fill="#EAEAD9"/>
<circle cx="409.093" cy="74.2094" r="2.7907" fill="#EAEAD9"/>
<circle cx="448.163" cy="74.2094" r="2.7907" fill="#EAEAD9"/>
<circle cx="487.232" cy="74.2094" r="2.7907" fill="#EAEAD9"/>
<circle cx="526.302" cy="74.2094" r="2.7907" fill="#EAEAD9"/>
<circle cx="565.372" cy="74.2094" r="2.7907" fill="#EAEAD9"/>
<circle cx="418.861" cy="59.7907" r="2.7907" fill="#EAEAD9"/>
<circle cx="438.395" cy="59.7907" r="2.7907" fill="#EAEAD9"/>
<circle cx="457.93" cy="59.7907" r="2.7907" fill="#EAEAD9"/>
<circle cx="477.466" cy="59.7907" r="2.7907" fill="#EAEAD9"/>
<circle cx="497" cy="59.7907" r="2.7907" fill="#EAEAD9"/>
<circle cx="516.535" cy="59.7907" r="2.7907" fill="#EAEAD9"/>
<circle cx="536.069" cy="59.7907" r="2.7907" fill="#EAEAD9"/>
<circle cx="555.605" cy="59.7907" r="2.7907" fill="#EAEAD9"/>
<circle cx="575.14" cy="59.7907" r="2.7907" fill="#EAEAD9"/>
<circle cx="379.791" cy="88.6281" r="2.7907" fill="#EAEAD9"/>
<circle cx="399.325" cy="88.6281" r="2.7907" fill="#EAEAD9"/>
<circle cx="389.558" cy="103.047" r="2.7907" fill="#EAEAD9"/>
<circle cx="428.628" cy="103.047" r="2.7907" fill="#EAEAD9"/>
<circle cx="467.697" cy="103.047" r="2.7907" fill="#EAEAD9"/>
<circle cx="506.767" cy="103.047" r="2.7907" fill="#EAEAD9"/>
<circle cx="545.838" cy="103.047" r="2.7907" fill="#EAEAD9"/>
<circle cx="409.093" cy="103.047" r="2.7907" fill="#EAEAD9"/>
<circle cx="448.163" cy="103.047" r="2.7907" fill="#EAEAD9"/>
<circle cx="487.232" cy="103.047" r="2.7907" fill="#EAEAD9"/>
<circle cx="526.302" cy="103.047" r="2.7907" fill="#EAEAD9"/>
<circle cx="565.372" cy="103.047" r="2.7907" fill="#EAEAD9"/>
<circle cx="418.861" cy="88.6281" r="2.7907" fill="#EAEAD9"/>
<circle cx="438.395" cy="88.6281" r="2.7907" fill="#EAEAD9"/>
<circle cx="457.93" cy="88.6281" r="2.7907" fill="#EAEAD9"/>
<circle cx="477.466" cy="88.6281" r="2.7907" fill="#EAEAD9"/>
<circle cx="497" cy="88.6281" r="2.7907" fill="#EAEAD9"/>
<circle cx="516.535" cy="88.6281" r="2.7907" fill="#EAEAD9"/>
<circle cx="536.069" cy="88.6281" r="2.7907" fill="#EAEAD9"/>
<circle cx="555.605" cy="88.6281" r="2.7907" fill="#EAEAD9"/>
<circle cx="575.14" cy="88.6281" r="2.7907" fill="#EAEAD9"/>
<circle cx="379.791" cy="88.7907" r="2.7907" fill="#EAEAD9"/>
<circle cx="399.325" cy="88.7907" r="2.7907" fill="#EAEAD9"/>
<circle cx="389.558" cy="103.209" r="2.7907" fill="#EAEAD9"/>
<circle cx="428.628" cy="103.209" r="2.7907" fill="#EAEAD9"/>
<circle cx="467.697" cy="103.209" r="2.7907" fill="#EAEAD9"/>
<circle cx="506.767" cy="103.209" r="2.7907" fill="#EAEAD9"/>
<circle cx="545.838" cy="103.209" r="2.7907" fill="#EAEAD9"/>
<circle cx="409.093" cy="103.209" r="2.7907" fill="#EAEAD9"/>
<circle cx="448.163" cy="103.209" r="2.7907" fill="#EAEAD9"/>
<circle cx="487.232" cy="103.209" r="2.7907" fill="#EAEAD9"/>
<circle cx="526.302" cy="103.209" r="2.7907" fill="#EAEAD9"/>
<circle cx="565.372" cy="103.209" r="2.7907" fill="#EAEAD9"/>
<circle cx="418.861" cy="88.7907" r="2.7907" fill="#EAEAD9"/>
<circle cx="438.395" cy="88.7907" r="2.7907" fill="#EAEAD9"/>
<circle cx="457.93" cy="88.7907" r="2.7907" fill="#EAEAD9"/>
<circle cx="477.466" cy="88.7907" r="2.7907" fill="#EAEAD9"/>
<circle cx="497" cy="88.7907" r="2.7907" fill="#EAEAD9"/>
<circle cx="516.535" cy="88.7907" r="2.7907" fill="#EAEAD9"/>
<circle cx="536.069" cy="88.7907" r="2.7907" fill="#EAEAD9"/>
<circle cx="555.605" cy="88.7907" r="2.7907" fill="#EAEAD9"/>
<circle cx="575.14" cy="88.7907" r="2.7907" fill="#EAEAD9"/>
<circle cx="379.791" cy="117.628" r="2.7907" fill="#EAEAD9"/>
<circle cx="399.325" cy="117.628" r="2.7907" fill="#EAEAD9"/>
<circle cx="389.558" cy="132.047" r="2.7907" fill="#EAEAD9"/>
<circle cx="428.628" cy="132.047" r="2.7907" fill="#EAEAD9"/>
<circle cx="467.697" cy="132.047" r="2.7907" fill="#EAEAD9"/>
<circle cx="506.767" cy="132.047" r="2.7907" fill="#EAEAD9"/>
<circle cx="545.838" cy="132.047" r="2.7907" fill="#EAEAD9"/>
<circle cx="409.093" cy="132.047" r="2.7907" fill="#EAEAD9"/>
<circle cx="448.163" cy="132.047" r="2.7907" fill="#EAEAD9"/>
<circle cx="487.232" cy="132.047" r="2.7907" fill="#EAEAD9"/>
<circle cx="526.302" cy="132.047" r="2.7907" fill="#EAEAD9"/>
<circle cx="565.372" cy="132.047" r="2.7907" fill="#EAEAD9"/>
<circle cx="418.861" cy="117.628" r="2.7907" fill="#EAEAD9"/>
<circle cx="438.395" cy="117.628" r="2.7907" fill="#EAEAD9"/>
<circle cx="457.93" cy="117.628" r="2.7907" fill="#EAEAD9"/>
<circle cx="477.466" cy="117.628" r="2.7907" fill="#EAEAD9"/>
<circle cx="497" cy="117.628" r="2.7907" fill="#EAEAD9"/>
<circle cx="516.535" cy="117.628" r="2.7907" fill="#EAEAD9"/>
<circle cx="536.069" cy="117.628" r="2.7907" fill="#EAEAD9"/>
<circle cx="555.605" cy="117.628" r="2.7907" fill="#EAEAD9"/>
<circle cx="575.14" cy="117.628" r="2.7907" fill="#EAEAD9"/>
<circle cx="379.791" cy="117.791" r="2.7907" fill="#EAEAD9"/>
<circle cx="399.325" cy="117.791" r="2.7907" fill="#EAEAD9"/>
<circle cx="389.558" cy="132.209" r="2.7907" fill="#EAEAD9"/>
<circle cx="428.628" cy="132.209" r="2.7907" fill="#EAEAD9"/>
<circle cx="467.697" cy="132.209" r="2.7907" fill="#EAEAD9"/>
<circle cx="506.767" cy="132.209" r="2.7907" fill="#EAEAD9"/>
<circle cx="545.838" cy="132.209" r="2.7907" fill="#EAEAD9"/>
<circle cx="409.093" cy="132.209" r="2.7907" fill="#EAEAD9"/>
<circle cx="448.163" cy="132.209" r="2.7907" fill="#EAEAD9"/>
<circle cx="487.232" cy="132.209" r="2.7907" fill="#EAEAD9"/>
<circle cx="526.302" cy="132.209" r="2.7907" fill="#EAEAD9"/>
<circle cx="565.372" cy="132.209" r="2.7907" fill="#EAEAD9"/>
<circle cx="418.861" cy="117.791" r="2.7907" fill="#EAEAD9"/>
<circle cx="438.395" cy="117.791" r="2.7907" fill="#EAEAD9"/>
<circle cx="457.93" cy="117.791" r="2.7907" fill="#EAEAD9"/>
<circle cx="477.466" cy="117.791" r="2.7907" fill="#EAEAD9"/>
<circle cx="497" cy="117.791" r="2.7907" fill="#EAEAD9"/>
<circle cx="516.535" cy="117.791" r="2.7907" fill="#EAEAD9"/>
<circle cx="536.069" cy="117.791" r="2.7907" fill="#EAEAD9"/>
<circle cx="555.605" cy="117.791" r="2.7907" fill="#EAEAD9"/>
<circle cx="575.14" cy="117.791" r="2.7907" fill="#EAEAD9"/>
<circle cx="379.791" cy="146.628" r="2.7907" fill="#EAEAD9"/>
<circle cx="399.325" cy="146.628" r="2.7907" fill="#EAEAD9"/>
<circle cx="418.861" cy="146.628" r="2.7907" fill="#EAEAD9"/>
<circle cx="438.395" cy="146.628" r="2.7907" fill="#EAEAD9"/>
<circle cx="457.93" cy="146.628" r="2.7907" fill="#EAEAD9"/>
<circle cx="477.466" cy="146.628" r="2.7907" fill="#EAEAD9"/>
<circle cx="497" cy="146.628" r="2.7907" fill="#EAEAD9"/>
<circle cx="516.535" cy="146.628" r="2.7907" fill="#EAEAD9"/>
<circle cx="536.069" cy="146.628" r="2.7907" fill="#EAEAD9"/>
<circle cx="555.605" cy="146.628" r="2.7907" fill="#EAEAD9"/>
<circle cx="575.14" cy="146.628" r="2.7907" fill="#EAEAD9"/>
<circle cx="106.791" cy="88.7907" r="2.7907" fill="#EAEAD9"/>
<circle cx="126.325" cy="88.7907" r="2.7907" fill="#EAEAD9"/>
<circle cx="116.558" cy="103.209" r="2.7907" fill="#EAEAD9"/>
<circle cx="155.628" cy="103.209" r="2.7907" fill="#EAEAD9"/>
<circle cx="194.697" cy="103.209" r="2.7907" fill="#EAEAD9"/>
<circle cx="233.767" cy="103.209" r="2.7907" fill="#EAEAD9"/>
<circle cx="272.838" cy="103.209" r="2.7907" fill="#EAEAD9"/>
<circle cx="311.906" cy="103.209" r="2.7907" fill="#EAEAD9"/>
<circle cx="136.093" cy="103.209" r="2.7907" fill="#EAEAD9"/>
<circle cx="175.163" cy="103.209" r="2.7907" fill="#EAEAD9"/>
<circle cx="214.232" cy="103.209" r="2.7907" fill="#EAEAD9"/>
<circle cx="253.302" cy="103.209" r="2.7907" fill="#EAEAD9"/>
<circle cx="292.372" cy="103.209" r="2.7907" fill="#EAEAD9"/>
<circle cx="331.442" cy="103.209" r="2.7907" fill="#EAEAD9"/>
<circle cx="145.861" cy="88.7907" r="2.7907" fill="#EAEAD9"/>
<circle cx="165.395" cy="88.7907" r="2.7907" fill="#EAEAD9"/>
<circle cx="184.93" cy="88.7907" r="2.7907" fill="#EAEAD9"/>
<circle cx="204.465" cy="88.7907" r="2.7907" fill="#EAEAD9"/>
<circle cx="224" cy="88.7907" r="2.7907" fill="#EAEAD9"/>
<circle cx="243.535" cy="88.7907" r="2.7907" fill="#EAEAD9"/>
<circle cx="263.069" cy="88.7907" r="2.7907" fill="#EAEAD9"/>
<circle cx="282.605" cy="88.7907" r="2.7907" fill="#EAEAD9"/>
<circle cx="302.14" cy="88.7907" r="2.7907" fill="#EAEAD9"/>
<circle cx="321.675" cy="88.7907" r="2.7907" fill="#EAEAD9"/>
<circle cx="341.209" cy="88.7907" r="2.7907" fill="#EAEAD9"/>
<circle cx="106.791" cy="117.628" r="2.7907" fill="#EAEAD9"/>
<circle cx="126.325" cy="117.628" r="2.7907" fill="#EAEAD9"/>
<circle cx="116.558" cy="132.047" r="2.7907" fill="#EAEAD9"/>
<circle cx="155.628" cy="132.047" r="2.7907" fill="#EAEAD9"/>
<circle cx="194.697" cy="132.047" r="2.7907" fill="#EAEAD9"/>
<circle cx="233.767" cy="132.047" r="2.7907" fill="#EAEAD9"/>
<circle cx="272.838" cy="132.047" r="2.7907" fill="#EAEAD9"/>
<circle cx="311.906" cy="132.047" r="2.7907" fill="#EAEAD9"/>
<circle cx="136.093" cy="132.047" r="2.7907" fill="#EAEAD9"/>
<circle cx="175.163" cy="132.047" r="2.7907" fill="#EAEAD9"/>
<circle cx="214.232" cy="132.047" r="2.7907" fill="#EAEAD9"/>
<circle cx="253.302" cy="132.047" r="2.7907" fill="#EAEAD9"/>
<circle cx="292.372" cy="132.047" r="2.7907" fill="#EAEAD9"/>
<circle cx="331.442" cy="132.047" r="2.7907" fill="#EAEAD9"/>
<circle cx="145.861" cy="117.628" r="2.7907" fill="#EAEAD9"/>
<circle cx="165.395" cy="117.628" r="2.7907" fill="#EAEAD9"/>
<circle cx="184.93" cy="117.628" r="2.7907" fill="#EAEAD9"/>
<circle cx="204.465" cy="117.628" r="2.7907" fill="#EAEAD9"/>
<circle cx="224" cy="117.628" r="2.7907" fill="#EAEAD9"/>
<circle cx="243.535" cy="117.628" r="2.7907" fill="#EAEAD9"/>
<circle cx="263.069" cy="117.628" r="2.7907" fill="#EAEAD9"/>
<circle cx="282.605" cy="117.628" r="2.7907" fill="#EAEAD9"/>
<circle cx="302.14" cy="117.628" r="2.7907" fill="#EAEAD9"/>
<circle cx="321.675" cy="117.628" r="2.7907" fill="#EAEAD9"/>
<circle cx="341.209" cy="117.628" r="2.7907" fill="#EAEAD9"/>
<circle cx="106.791" cy="117.791" r="2.7907" fill="#EAEAD9"/>
<circle cx="126.325" cy="117.791" r="2.7907" fill="#EAEAD9"/>
<circle cx="116.558" cy="132.209" r="2.7907" fill="#EAEAD9"/>
<circle cx="155.628" cy="132.209" r="2.7907" fill="#EAEAD9"/>
<circle cx="194.697" cy="132.209" r="2.7907" fill="#EAEAD9"/>
<circle cx="233.767" cy="132.209" r="2.7907" fill="#EAEAD9"/>
<circle cx="272.838" cy="132.209" r="2.7907" fill="#EAEAD9"/>
<circle cx="311.906" cy="132.209" r="2.7907" fill="#EAEAD9"/>
<circle cx="136.093" cy="132.209" r="2.7907" fill="#EAEAD9"/>
<circle cx="175.163" cy="132.209" r="2.7907" fill="#EAEAD9"/>
<circle cx="214.232" cy="132.209" r="2.7907" fill="#EAEAD9"/>
<circle cx="253.302" cy="132.209" r="2.7907" fill="#EAEAD9"/>
<circle cx="292.372" cy="132.209" r="2.7907" fill="#EAEAD9"/>
<circle cx="331.442" cy="132.209" r="2.7907" fill="#EAEAD9"/>
<circle cx="145.861" cy="117.791" r="2.7907" fill="#EAEAD9"/>
<circle cx="165.395" cy="117.791" r="2.7907" fill="#EAEAD9"/>
<circle cx="184.93" cy="117.791" r="2.7907" fill="#EAEAD9"/>
<circle cx="204.465" cy="117.791" r="2.7907" fill="#EAEAD9"/>
<circle cx="224" cy="117.791" r="2.7907" fill="#EAEAD9"/>
<circle cx="243.535" cy="117.791" r="2.7907" fill="#EAEAD9"/>
<circle cx="263.069" cy="117.791" r="2.7907" fill="#EAEAD9"/>
<circle cx="282.605" cy="117.791" r="2.7907" fill="#EAEAD9"/>
<circle cx="302.14" cy="117.791" r="2.7907" fill="#EAEAD9"/>
<circle cx="321.675" cy="117.791" r="2.7907" fill="#EAEAD9"/>
<circle cx="341.209" cy="117.791" r="2.7907" fill="#EAEAD9"/>
<circle cx="106.791" cy="146.628" r="2.7907" fill="#EAEAD9"/>
<circle cx="126.325" cy="146.628" r="2.7907" fill="#EAEAD9"/>
<circle cx="145.861" cy="146.628" r="2.7907" fill="#EAEAD9"/>
<circle cx="165.395" cy="146.628" r="2.7907" fill="#EAEAD9"/>
<circle cx="184.93" cy="146.628" r="2.7907" fill="#EAEAD9"/>
<circle cx="204.465" cy="146.628" r="2.7907" fill="#EAEAD9"/>
<circle cx="224" cy="146.628" r="2.7907" fill="#EAEAD9"/>
<circle cx="243.535" cy="146.628" r="2.7907" fill="#EAEAD9"/>
<circle cx="263.069" cy="146.628" r="2.7907" fill="#EAEAD9"/>
<circle cx="282.605" cy="146.628" r="2.7907" fill="#EAEAD9"/>
<circle cx="302.14" cy="146.628" r="2.7907" fill="#EAEAD9"/>
<circle cx="321.675" cy="146.628" r="2.7907" fill="#EAEAD9"/>
<circle cx="341.209" cy="146.628" r="2.7907" fill="#EAEAD9"/>
<circle cx="116.558" cy="45.0467" r="2.7907" fill="#EAEAD9"/>
<circle cx="155.628" cy="45.0467" r="2.7907" fill="#EAEAD9"/>
<circle cx="194.697" cy="45.0467" r="2.7907" fill="#EAEAD9"/>
<circle cx="233.767" cy="45.0467" r="2.7907" fill="#EAEAD9"/>
<circle cx="272.838" cy="45.0467" r="2.7907" fill="#EAEAD9"/>
<circle cx="311.906" cy="45.0467" r="2.7907" fill="#EAEAD9"/>
<circle cx="136.093" cy="45.0467" r="2.7907" fill="#EAEAD9"/>
<circle cx="175.163" cy="45.0467" r="2.7907" fill="#EAEAD9"/>
<circle cx="214.232" cy="45.0467" r="2.7907" fill="#EAEAD9"/>
<circle cx="253.302" cy="45.0467" r="2.7907" fill="#EAEAD9"/>
<circle cx="292.372" cy="45.0467" r="2.7907" fill="#EAEAD9"/>
<circle cx="331.442" cy="45.0467" r="2.7907" fill="#EAEAD9"/>
<circle cx="350.558" cy="45.0467" r="2.7907" fill="#EAEAD9"/>
<circle cx="389.628" cy="45.0467" r="2.7907" fill="#EAEAD9"/>
<circle cx="428.697" cy="45.0467" r="2.7907" fill="#EAEAD9"/>
<circle cx="467.767" cy="45.0467" r="2.7907" fill="#EAEAD9"/>
<circle cx="506.838" cy="45.0467" r="2.7907" fill="#EAEAD9"/>
<circle cx="545.906" cy="45.0467" r="2.7907" fill="#EAEAD9"/>
<circle cx="370.093" cy="45.0467" r="2.7907" fill="#EAEAD9"/>
<circle cx="409.163" cy="45.0467" r="2.7907" fill="#EAEAD9"/>
<circle cx="448.232" cy="45.0467" r="2.7907" fill="#EAEAD9"/>
<circle cx="487.302" cy="45.0467" r="2.7907" fill="#EAEAD9"/>
<circle cx="526.372" cy="45.0467" r="2.7907" fill="#EAEAD9"/>
<circle cx="565.442" cy="45.0467" r="2.7907" fill="#EAEAD9"/>
<circle cx="350.558" cy="45.2094" r="2.7907" fill="#EAEAD9"/>
<circle cx="389.628" cy="45.2094" r="2.7907" fill="#EAEAD9"/>
<circle cx="428.697" cy="45.2094" r="2.7907" fill="#EAEAD9"/>
<circle cx="467.767" cy="45.2094" r="2.7907" fill="#EAEAD9"/>
<circle cx="506.838" cy="45.2094" r="2.7907" fill="#EAEAD9"/>
<circle cx="545.906" cy="45.2094" r="2.7907" fill="#EAEAD9"/>
<circle cx="370.093" cy="45.2094" r="2.7907" fill="#EAEAD9"/>
<circle cx="409.163" cy="45.2094" r="2.7907" fill="#EAEAD9"/>
<circle cx="448.232" cy="45.2094" r="2.7907" fill="#EAEAD9"/>
<circle cx="487.302" cy="45.2094" r="2.7907" fill="#EAEAD9"/>
<circle cx="526.372" cy="45.2094" r="2.7907" fill="#EAEAD9"/>
<circle cx="565.442" cy="45.2094" r="2.7907" fill="#EAEAD9"/>
<circle cx="340.791" cy="59.6281" r="2.7907" fill="#EAEAD9"/>
<circle cx="360.325" cy="59.6281" r="2.7907" fill="#EAEAD9"/>
<circle cx="350.558" cy="74.0467" r="2.7907" fill="#EAEAD9"/>
<circle cx="389.628" cy="74.0467" r="2.7907" fill="#EAEAD9"/>
<circle cx="428.697" cy="74.0467" r="2.7907" fill="#EAEAD9"/>
<circle cx="467.767" cy="74.0467" r="2.7907" fill="#EAEAD9"/>
<circle cx="506.838" cy="74.0467" r="2.7907" fill="#EAEAD9"/>
<circle cx="545.906" cy="74.0467" r="2.7907" fill="#EAEAD9"/>
<circle cx="370.093" cy="74.0467" r="2.7907" fill="#EAEAD9"/>
<circle cx="409.163" cy="74.0467" r="2.7907" fill="#EAEAD9"/>
<circle cx="448.232" cy="74.0467" r="2.7907" fill="#EAEAD9"/>
<circle cx="487.302" cy="74.0467" r="2.7907" fill="#EAEAD9"/>
<circle cx="526.372" cy="74.0467" r="2.7907" fill="#EAEAD9"/>
<circle cx="565.442" cy="74.0467" r="2.7907" fill="#EAEAD9"/>
<circle cx="379.861" cy="59.6281" r="2.7907" fill="#EAEAD9"/>
<circle cx="399.395" cy="59.6281" r="2.7907" fill="#EAEAD9"/>
<circle cx="418.93" cy="59.6281" r="2.7907" fill="#EAEAD9"/>
<circle cx="438.466" cy="59.6281" r="2.7907" fill="#EAEAD9"/>
<circle cx="458" cy="59.6281" r="2.7907" fill="#EAEAD9"/>
<circle cx="477.535" cy="59.6281" r="2.7907" fill="#EAEAD9"/>
<circle cx="497.069" cy="59.6281" r="2.7907" fill="#EAEAD9"/>
<circle cx="516.605" cy="59.6281" r="2.7907" fill="#EAEAD9"/>
<circle cx="536.14" cy="59.6281" r="2.7907" fill="#EAEAD9"/>
<circle cx="555.675" cy="59.6281" r="2.7907" fill="#EAEAD9"/>
<circle cx="575.209" cy="59.6281" r="2.7907" fill="#EAEAD9"/>
<circle cx="340.791" cy="59.7907" r="2.7907" fill="#EAEAD9"/>
<circle cx="360.325" cy="59.7907" r="2.7907" fill="#EAEAD9"/>
<circle cx="350.558" cy="74.2094" r="2.7907" fill="#EAEAD9"/>
<circle cx="389.628" cy="74.2094" r="2.7907" fill="#EAEAD9"/>
<circle cx="428.697" cy="74.2094" r="2.7907" fill="#EAEAD9"/>
<circle cx="467.767" cy="74.2094" r="2.7907" fill="#EAEAD9"/>
<circle cx="506.838" cy="74.2094" r="2.7907" fill="#EAEAD9"/>
<circle cx="545.906" cy="74.2094" r="2.7907" fill="#EAEAD9"/>
<circle cx="370.093" cy="74.2094" r="2.7907" fill="#EAEAD9"/>
<circle cx="409.163" cy="74.2094" r="2.7907" fill="#EAEAD9"/>
<circle cx="448.232" cy="74.2094" r="2.7907" fill="#EAEAD9"/>
<circle cx="487.302" cy="74.2094" r="2.7907" fill="#EAEAD9"/>
<circle cx="526.372" cy="74.2094" r="2.7907" fill="#EAEAD9"/>
<circle cx="565.442" cy="74.2094" r="2.7907" fill="#EAEAD9"/>
<circle cx="379.861" cy="59.7907" r="2.7907" fill="#EAEAD9"/>
<circle cx="399.395" cy="59.7907" r="2.7907" fill="#EAEAD9"/>
<circle cx="418.93" cy="59.7907" r="2.7907" fill="#EAEAD9"/>
<circle cx="438.466" cy="59.7907" r="2.7907" fill="#EAEAD9"/>
<circle cx="458" cy="59.7907" r="2.7907" fill="#EAEAD9"/>
<circle cx="477.535" cy="59.7907" r="2.7907" fill="#EAEAD9"/>
<circle cx="497.069" cy="59.7907" r="2.7907" fill="#EAEAD9"/>
<circle cx="516.605" cy="59.7907" r="2.7907" fill="#EAEAD9"/>
<circle cx="536.14" cy="59.7907" r="2.7907" fill="#EAEAD9"/>
<circle cx="555.675" cy="59.7907" r="2.7907" fill="#EAEAD9"/>
<circle cx="575.209" cy="59.7907" r="2.7907" fill="#EAEAD9"/>
<circle cx="340.791" cy="88.6281" r="2.7907" fill="#EAEAD9"/>
<circle cx="360.325" cy="88.6281" r="2.7907" fill="#EAEAD9"/>
<circle cx="350.558" cy="103.047" r="2.7907" fill="#EAEAD9"/>
<circle cx="389.628" cy="103.047" r="2.7907" fill="#EAEAD9"/>
<circle cx="428.697" cy="103.047" r="2.7907" fill="#EAEAD9"/>
<circle cx="467.767" cy="103.047" r="2.7907" fill="#EAEAD9"/>
<circle cx="506.838" cy="103.047" r="2.7907" fill="#EAEAD9"/>
<circle cx="545.906" cy="103.047" r="2.7907" fill="#EAEAD9"/>
<circle cx="370.093" cy="103.047" r="2.7907" fill="#EAEAD9"/>
<circle cx="409.163" cy="103.047" r="2.7907" fill="#EAEAD9"/>
<circle cx="448.232" cy="103.047" r="2.7907" fill="#EAEAD9"/>
<circle cx="487.302" cy="103.047" r="2.7907" fill="#EAEAD9"/>
<circle cx="526.372" cy="103.047" r="2.7907" fill="#EAEAD9"/>
<circle cx="565.442" cy="103.047" r="2.7907" fill="#EAEAD9"/>
<circle cx="379.861" cy="88.6281" r="2.7907" fill="#EAEAD9"/>
<circle cx="399.395" cy="88.6281" r="2.7907" fill="#EAEAD9"/>
<circle cx="418.93" cy="88.6281" r="2.7907" fill="#EAEAD9"/>
<circle cx="438.466" cy="88.6281" r="2.7907" fill="#EAEAD9"/>
<circle cx="458" cy="88.6281" r="2.7907" fill="#EAEAD9"/>
<circle cx="477.535" cy="88.6281" r="2.7907" fill="#EAEAD9"/>
<circle cx="497.069" cy="88.6281" r="2.7907" fill="#EAEAD9"/>
<circle cx="516.605" cy="88.6281" r="2.7907" fill="#EAEAD9"/>
<circle cx="536.14" cy="88.6281" r="2.7907" fill="#EAEAD9"/>
<circle cx="555.675" cy="88.6281" r="2.7907" fill="#EAEAD9"/>
<circle cx="575.209" cy="88.6281" r="2.7907" fill="#EAEAD9"/>
<circle cx="389.558" cy="45.0467" r="2.7907" fill="#EAEAD9"/>
<circle cx="428.628" cy="45.0467" r="2.7907" fill="#EAEAD9"/>
<circle cx="467.697" cy="45.0467" r="2.7907" fill="#EAEAD9"/>
<circle cx="506.767" cy="45.0467" r="2.7907" fill="#EAEAD9"/>
<circle cx="545.838" cy="45.0467" r="2.7907" fill="#EAEAD9"/>
<circle cx="409.093" cy="45.0467" r="2.7907" fill="#EAEAD9"/>
<circle cx="448.163" cy="45.0467" r="2.7907" fill="#EAEAD9"/>
<circle cx="487.232" cy="45.0467" r="2.7907" fill="#EAEAD9"/>
<circle cx="526.302" cy="45.0467" r="2.7907" fill="#EAEAD9"/>
<circle cx="565.372" cy="45.0467" r="2.7907" fill="#EAEAD9"/>
<circle cx="389.558" cy="45.2094" r="2.7907" fill="#EAEAD9"/>
<circle cx="428.628" cy="45.2094" r="2.7907" fill="#EAEAD9"/>
<circle cx="467.697" cy="45.2094" r="2.7907" fill="#EAEAD9"/>
<circle cx="506.767" cy="45.2094" r="2.7907" fill="#EAEAD9"/>
<circle cx="545.838" cy="45.2094" r="2.7907" fill="#EAEAD9"/>
<circle cx="409.093" cy="45.2094" r="2.7907" fill="#EAEAD9"/>
<circle cx="448.163" cy="45.2094" r="2.7907" fill="#EAEAD9"/>
<circle cx="487.232" cy="45.2094" r="2.7907" fill="#EAEAD9"/>
<circle cx="526.302" cy="45.2094" r="2.7907" fill="#EAEAD9"/>
<circle cx="565.372" cy="45.2094" r="2.7907" fill="#EAEAD9"/>
<circle cx="379.791" cy="59.6281" r="2.7907" fill="#EAEAD9"/>
<circle cx="399.325" cy="59.6281" r="2.7907" fill="#EAEAD9"/>
<circle cx="389.558" cy="74.0467" r="2.7907" fill="#EAEAD9"/>
<circle cx="428.628" cy="74.0467" r="2.7907" fill="#EAEAD9"/>
<circle cx="467.697" cy="74.0467" r="2.7907" fill="#EAEAD9"/>
<circle cx="506.767" cy="74.0467" r="2.7907" fill="#EAEAD9"/>
<circle cx="545.838" cy="74.0467" r="2.7907" fill="#EAEAD9"/>
<circle cx="409.093" cy="74.0467" r="2.7907" fill="#EAEAD9"/>
<circle cx="448.163" cy="74.0467" r="2.7907" fill="#EAEAD9"/>
<circle cx="487.232" cy="74.0467" r="2.7907" fill="#EAEAD9"/>
<circle cx="526.302" cy="74.0467" r="2.7907" fill="#EAEAD9"/>
<circle cx="565.372" cy="74.0467" r="2.7907" fill="#EAEAD9"/>
<circle cx="418.861" cy="59.6281" r="2.7907" fill="#EAEAD9"/>
<circle cx="438.395" cy="59.6281" r="2.7907" fill="#EAEAD9"/>
<circle cx="457.93" cy="59.6281" r="2.7907" fill="#EAEAD9"/>
<circle cx="477.466" cy="59.6281" r="2.7907" fill="#EAEAD9"/>
<circle cx="497" cy="59.6281" r="2.7907" fill="#EAEAD9"/>
<circle cx="516.535" cy="59.6281" r="2.7907" fill="#EAEAD9"/>
<circle cx="536.069" cy="59.6281" r="2.7907" fill="#EAEAD9"/>
<circle cx="555.605" cy="59.6281" r="2.7907" fill="#EAEAD9"/>
<circle cx="575.14" cy="59.6281" r="2.7907" fill="#EAEAD9"/>
<circle cx="379.791" cy="59.7907" r="2.7907" fill="#EAEAD9"/>
<circle cx="399.325" cy="59.7907" r="2.7907" fill="#EAEAD9"/>
<circle cx="389.558" cy="74.2094" r="2.7907" fill="#EAEAD9"/>
<circle cx="428.628" cy="74.2094" r="2.7907" fill="#EAEAD9"/>
<circle cx="467.697" cy="74.2094" r="2.7907" fill="#EAEAD9"/>
<circle cx="506.767" cy="74.2094" r="2.7907" fill="#EAEAD9"/>
<circle cx="545.838" cy="74.2094" r="2.7907" fill="#EAEAD9"/>
<circle cx="409.093" cy="74.2094" r="2.7907" fill="#EAEAD9"/>
<circle cx="448.163" cy="74.2094" r="2.7907" fill="#EAEAD9"/>
<circle cx="487.232" cy="74.2094" r="2.7907" fill="#EAEAD9"/>
<circle cx="526.302" cy="74.2094" r="2.7907" fill="#EAEAD9"/>
<circle cx="565.372" cy="74.2094" r="2.7907" fill="#EAEAD9"/>
<circle cx="418.861" cy="59.7907" r="2.7907" fill="#EAEAD9"/>
<circle cx="438.395" cy="59.7907" r="2.7907" fill="#EAEAD9"/>
<circle cx="457.93" cy="59.7907" r="2.7907" fill="#EAEAD9"/>
<circle cx="477.466" cy="59.7907" r="2.7907" fill="#EAEAD9"/>
<circle cx="497" cy="59.7907" r="2.7907" fill="#EAEAD9"/>
<circle cx="516.535" cy="59.7907" r="2.7907" fill="#EAEAD9"/>
<circle cx="536.069" cy="59.7907" r="2.7907" fill="#EAEAD9"/>
<circle cx="555.605" cy="59.7907" r="2.7907" fill="#EAEAD9"/>
<circle cx="575.14" cy="59.7907" r="2.7907" fill="#EAEAD9"/>
<circle cx="379.791" cy="88.6281" r="2.7907" fill="#EAEAD9"/>
<circle cx="399.325" cy="88.6281" r="2.7907" fill="#EAEAD9"/>
<circle cx="389.558" cy="103.047" r="2.7907" fill="#EAEAD9"/>
<circle cx="428.628" cy="103.047" r="2.7907" fill="#EAEAD9"/>
<circle cx="467.697" cy="103.047" r="2.7907" fill="#EAEAD9"/>
<circle cx="506.767" cy="103.047" r="2.7907" fill="#EAEAD9"/>
<circle cx="545.838" cy="103.047" r="2.7907" fill="#EAEAD9"/>
<circle cx="409.093" cy="103.047" r="2.7907" fill="#EAEAD9"/>
<circle cx="448.163" cy="103.047" r="2.7907" fill="#EAEAD9"/>
<circle cx="487.232" cy="103.047" r="2.7907" fill="#EAEAD9"/>
<circle cx="526.302" cy="103.047" r="2.7907" fill="#EAEAD9"/>
<circle cx="565.372" cy="103.047" r="2.7907" fill="#EAEAD9"/>
<circle cx="418.861" cy="88.6281" r="2.7907" fill="#EAEAD9"/>
<circle cx="438.395" cy="88.6281" r="2.7907" fill="#EAEAD9"/>
<circle cx="457.93" cy="88.6281" r="2.7907" fill="#EAEAD9"/>
<circle cx="477.466" cy="88.6281" r="2.7907" fill="#EAEAD9"/>
<circle cx="497" cy="88.6281" r="2.7907" fill="#EAEAD9"/>
<circle cx="516.535" cy="88.6281" r="2.7907" fill="#EAEAD9"/>
<circle cx="536.069" cy="88.6281" r="2.7907" fill="#EAEAD9"/>
<circle cx="555.605" cy="88.6281" r="2.7907" fill="#EAEAD9"/>
<circle cx="575.14" cy="88.6281" r="2.7907" fill="#EAEAD9"/>
<circle cx="116.558" cy="45.2094" r="2.7907" fill="#EAEAD9"/>
<circle cx="155.628" cy="45.2094" r="2.7907" fill="#EAEAD9"/>
<circle cx="194.697" cy="45.2094" r="2.7907" fill="#EAEAD9"/>
<circle cx="233.767" cy="45.2094" r="2.7907" fill="#EAEAD9"/>
<circle cx="272.838" cy="45.2094" r="2.7907" fill="#EAEAD9"/>
<circle cx="311.906" cy="45.2094" r="2.7907" fill="#EAEAD9"/>
<circle cx="136.093" cy="45.2094" r="2.7907" fill="#EAEAD9"/>
<circle cx="175.163" cy="45.2094" r="2.7907" fill="#EAEAD9"/>
<circle cx="214.232" cy="45.2094" r="2.7907" fill="#EAEAD9"/>
<circle cx="253.302" cy="45.2094" r="2.7907" fill="#EAEAD9"/>
<circle cx="292.372" cy="45.2094" r="2.7907" fill="#EAEAD9"/>
<circle cx="331.442" cy="45.2094" r="2.7907" fill="#EAEAD9"/>
<circle cx="106.791" cy="59.6281" r="2.7907" fill="#EAEAD9"/>
<circle cx="126.325" cy="59.6281" r="2.7907" fill="#EAEAD9"/>
<circle cx="116.558" cy="74.0467" r="2.7907" fill="#EAEAD9"/>
<circle cx="155.628" cy="74.0467" r="2.7907" fill="#EAEAD9"/>
<circle cx="194.697" cy="74.0467" r="2.7907" fill="#EAEAD9"/>
<circle cx="233.767" cy="74.0467" r="2.7907" fill="#EAEAD9"/>
<circle cx="272.838" cy="74.0467" r="2.7907" fill="#EAEAD9"/>
<circle cx="311.906" cy="74.0467" r="2.7907" fill="#EAEAD9"/>
<circle cx="136.093" cy="74.0467" r="2.7907" fill="#EAEAD9"/>
<circle cx="175.163" cy="74.0467" r="2.7907" fill="#EAEAD9"/>
<circle cx="214.232" cy="74.0467" r="2.7907" fill="#EAEAD9"/>
<circle cx="253.302" cy="74.0467" r="2.7907" fill="#EAEAD9"/>
<circle cx="292.372" cy="74.0467" r="2.7907" fill="#EAEAD9"/>
<circle cx="331.442" cy="74.0467" r="2.7907" fill="#EAEAD9"/>
<circle cx="145.861" cy="59.6281" r="2.7907" fill="#EAEAD9"/>
<circle cx="165.395" cy="59.6281" r="2.7907" fill="#EAEAD9"/>
<circle cx="184.93" cy="59.6281" r="2.7907" fill="#EAEAD9"/>
<circle cx="204.465" cy="59.6281" r="2.7907" fill="#EAEAD9"/>
<circle cx="224" cy="59.6281" r="2.7907" fill="#EAEAD9"/>
<circle cx="243.535" cy="59.6281" r="2.7907" fill="#EAEAD9"/>
<circle cx="263.069" cy="59.6281" r="2.7907" fill="#EAEAD9"/>
<circle cx="282.605" cy="59.6281" r="2.7907" fill="#EAEAD9"/>
<circle cx="302.14" cy="59.6281" r="2.7907" fill="#EAEAD9"/>
<circle cx="321.675" cy="59.6281" r="2.7907" fill="#EAEAD9"/>
<circle cx="341.209" cy="59.6281" r="2.7907" fill="#EAEAD9"/>
<circle cx="106.791" cy="59.7907" r="2.7907" fill="#EAEAD9"/>
<circle cx="126.325" cy="59.7907" r="2.7907" fill="#EAEAD9"/>
<circle cx="116.558" cy="74.2094" r="2.7907" fill="#EAEAD9"/>
<circle cx="155.628" cy="74.2094" r="2.7907" fill="#EAEAD9"/>
<circle cx="194.697" cy="74.2094" r="2.7907" fill="#EAEAD9"/>
<circle cx="233.767" cy="74.2094" r="2.7907" fill="#EAEAD9"/>
<circle cx="272.838" cy="74.2094" r="2.7907" fill="#EAEAD9"/>
<circle cx="311.906" cy="74.2094" r="2.7907" fill="#EAEAD9"/>
<circle cx="136.093" cy="74.2094" r="2.7907" fill="#EAEAD9"/>
<circle cx="175.163" cy="74.2094" r="2.7907" fill="#EAEAD9"/>
<circle cx="214.232" cy="74.2094" r="2.7907" fill="#EAEAD9"/>
<circle cx="253.302" cy="74.2094" r="2.7907" fill="#EAEAD9"/>
<circle cx="292.372" cy="74.2094" r="2.7907" fill="#EAEAD9"/>
<circle cx="331.442" cy="74.2094" r="2.7907" fill="#EAEAD9"/>
<circle cx="145.861" cy="59.7907" r="2.7907" fill="#EAEAD9"/>
<circle cx="165.395" cy="59.7907" r="2.7907" fill="#EAEAD9"/>
<circle cx="184.93" cy="59.7907" r="2.7907" fill="#EAEAD9"/>
<circle cx="204.465" cy="59.7907" r="2.7907" fill="#EAEAD9"/>
<circle cx="224" cy="59.7907" r="2.7907" fill="#EAEAD9"/>
<circle cx="243.535" cy="59.7907" r="2.7907" fill="#EAEAD9"/>
<circle cx="263.069" cy="59.7907" r="2.7907" fill="#EAEAD9"/>
<circle cx="282.605" cy="59.7907" r="2.7907" fill="#EAEAD9"/>
<circle cx="302.14" cy="59.7907" r="2.7907" fill="#EAEAD9"/>
<circle cx="321.675" cy="59.7907" r="2.7907" fill="#EAEAD9"/>
<circle cx="341.209" cy="59.7907" r="2.7907" fill="#EAEAD9"/>
<circle cx="106.791" cy="88.6281" r="2.7907" fill="#EAEAD9"/>
<circle cx="126.325" cy="88.6281" r="2.7907" fill="#EAEAD9"/>
<circle cx="116.558" cy="103.047" r="2.7907" fill="#EAEAD9"/>
<circle cx="155.628" cy="103.047" r="2.7907" fill="#EAEAD9"/>
<circle cx="194.697" cy="103.047" r="2.7907" fill="#EAEAD9"/>
<circle cx="233.767" cy="103.047" r="2.7907" fill="#EAEAD9"/>
<circle cx="272.838" cy="103.047" r="2.7907" fill="#EAEAD9"/>
<circle cx="311.906" cy="103.047" r="2.7907" fill="#EAEAD9"/>
<circle cx="136.093" cy="103.047" r="2.7907" fill="#EAEAD9"/>
<circle cx="175.163" cy="103.047" r="2.7907" fill="#EAEAD9"/>
<circle cx="214.232" cy="103.047" r="2.7907" fill="#EAEAD9"/>
<circle cx="253.302" cy="103.047" r="2.7907" fill="#EAEAD9"/>
<circle cx="292.372" cy="103.047" r="2.7907" fill="#EAEAD9"/>
<circle cx="331.442" cy="103.047" r="2.7907" fill="#EAEAD9"/>
<circle cx="145.861" cy="88.6281" r="2.7907" fill="#EAEAD9"/>
<circle cx="165.395" cy="88.6281" r="2.7907" fill="#EAEAD9"/>
<circle cx="184.93" cy="88.6281" r="2.7907" fill="#EAEAD9"/>
<circle cx="204.465" cy="88.6281" r="2.7907" fill="#EAEAD9"/>
<circle cx="224" cy="88.6281" r="2.7907" fill="#EAEAD9"/>
<circle cx="243.535" cy="88.6281" r="2.7907" fill="#EAEAD9"/>
<circle cx="263.069" cy="88.6281" r="2.7907" fill="#EAEAD9"/>
<circle cx="282.605" cy="88.6281" r="2.7907" fill="#EAEAD9"/>
<circle cx="302.14" cy="88.6281" r="2.7907" fill="#EAEAD9"/>
<circle cx="321.675" cy="88.6281" r="2.7907" fill="#EAEAD9"/>
<circle cx="341.209" cy="88.6281" r="2.7907" fill="#EAEAD9"/>
</g>
</svg>
