<svg width="569" height="110" viewBox="0 0 569 110" fill="none" xmlns="http://www.w3.org/2000/svg">
<path d="M0 107.52V1.46484H36.6211C47.0947 1.46484 56.1768 3.58887 63.7939 7.83691C71.4111 12.085 77.1973 18.1641 81.2988 26.0742C85.4004 34.0576 87.4512 43.5059 87.4512 54.3457C87.4512 65.332 85.4004 74.8535 81.2988 82.8369C77.1973 90.8203 71.2646 96.8994 63.5742 101.147C55.8105 105.396 46.6553 107.52 36.0352 107.52H0ZM35.0098 90.9668C46.0693 90.9668 54.4189 87.9639 59.9854 81.8115C65.5518 75.7324 68.4082 66.5771 68.4082 54.3457C68.4082 42.2607 65.625 33.1787 60.1318 27.0996C54.5654 21.0938 46.4355 18.0176 35.5957 18.0176H19.043V90.9668H35.0098Z" fill="#FED47A"/>
<path d="M130.84 107.52H111.797V1.46484H130.84V107.52Z" fill="#FED47A"/>
<path d="M245.273 107.52H228.281L178.037 35.0098H177.158V107.52H158.115V1.46484H175.4L225.352 73.9746H226.377V1.46484H245.273V107.52Z" fill="#FED47A"/>
<path d="M272.402 1.46484H291.445V50.2441H292.91L334.365 1.46484H357.656L316.641 49.0723L358.096 107.52H335.098L303.311 61.9629L291.445 75.8789V107.52H272.402V1.46484Z" fill="#FED47A"/>
<path d="M463.447 1.46484V70.752C463.447 78.2959 461.616 84.9609 458.027 90.7471C454.438 96.6064 449.385 101.074 442.866 104.297C436.348 107.52 428.877 109.131 420.381 109.131C411.812 109.131 404.268 107.52 397.749 104.297C391.23 101.074 386.177 96.6064 382.661 90.7471C379.072 84.9609 377.314 78.2959 377.314 70.752V1.46484H396.357V69.1406C396.357 73.6084 397.31 77.5635 399.287 81.0059C401.265 84.5215 404.048 87.2314 407.71 89.209C411.372 91.1865 415.547 92.1387 420.381 92.1387C425.142 92.1387 429.316 91.1865 432.979 89.209C436.567 87.3047 439.351 84.5947 441.328 81.0791C443.232 77.5635 444.258 73.6084 444.258 69.1406V1.46484H463.447Z" fill="#FED47A"/>
<path d="M542.212 20.0684C538.623 17.5781 533.936 16.2598 528.223 16.2598C524.268 16.2598 520.898 16.8457 517.969 18.0176C515.039 19.1895 512.769 20.874 511.23 22.9248C509.619 25.0488 508.887 27.3926 508.887 30.0293C508.887 34.1309 510.571 37.2803 513.94 39.4775C517.31 41.6748 521.631 43.4326 527.051 44.6777L537.012 47.3145C546.094 49.4385 553.564 52.9541 559.351 57.7881C565.137 62.6221 568.066 69.2871 568.066 77.7832C568.066 84.0088 566.455 89.502 563.306 94.1895C560.083 98.9502 555.469 102.612 549.463 105.249C543.457 107.886 536.279 109.131 527.93 109.131C519.653 109.131 512.476 107.886 506.47 105.322C500.391 102.759 495.63 99.0234 492.261 94.1162C488.892 89.209 487.061 83.2764 486.768 76.3184H505.518C505.957 81.7383 508.154 85.8398 512.256 88.623C516.357 91.4795 521.484 92.8711 527.783 92.8711C531.885 92.8711 535.62 92.2852 538.843 90.9668C542.065 89.7217 544.556 87.9639 546.313 85.6201C548.071 83.2764 549.023 80.6396 549.023 77.6367C549.023 73.8281 547.412 70.8252 544.189 68.6279C540.967 66.4307 536.206 64.5264 529.834 62.8418L517.822 59.7656C498.926 54.8584 489.551 45.3369 489.551 31.2012C489.551 25.0488 491.235 19.6289 494.604 14.9414C497.974 10.2539 502.588 6.5918 508.521 3.95508C514.453 1.31836 521.118 0 528.516 0C535.913 0 542.505 1.31836 548.218 3.95508C553.931 6.5918 558.398 10.1807 561.621 14.7949C564.844 19.4824 566.455 24.7559 566.602 30.6152H548.291C547.852 26.1475 545.801 22.6318 542.212 20.0684Z" fill="#FED47A"/>
<path d="M526.325 108.357C527.071 108.357 527.746 108.651 528.247 109.127C528.141 109.127 528.036 109.131 527.93 109.131C526.735 109.131 525.564 109.103 524.416 109.051C524.907 108.62 525.55 108.357 526.255 108.357C526.267 108.357 526.278 108.358 526.29 108.358C526.302 108.358 526.313 108.357 526.325 108.357Z" fill="#EAEAD9"/>
<path d="M428.651 108.357C428.916 108.357 429.171 108.396 429.414 108.465C428.533 108.601 427.639 108.716 426.731 108.811C427.17 108.524 427.693 108.357 428.255 108.357C428.267 108.357 428.278 108.358 428.29 108.358C428.302 108.358 428.313 108.357 428.325 108.357C428.371 108.357 428.416 108.36 428.461 108.362C428.501 108.361 428.541 108.357 428.581 108.357C428.592 108.357 428.603 108.358 428.613 108.358C428.626 108.358 428.639 108.357 428.651 108.357Z" fill="#EAEAD9"/>
<path d="M8.74316 93.7754C10.2844 93.7754 11.5342 95.0251 11.5342 96.5664C11.5342 96.5936 11.5301 96.6205 11.5293 96.6475C11.5301 96.6744 11.5342 96.7014 11.5342 96.7285C11.5342 98.2698 10.2844 99.5195 8.74316 99.5195C7.20206 99.5193 5.95312 98.2697 5.95312 96.7285C5.95313 96.7014 5.95528 96.6744 5.95605 96.6475C5.95528 96.6205 5.95313 96.5935 5.95312 96.5664C5.95312 95.0253 7.20206 93.7756 8.74316 93.7754Z" fill="#EAEAD9"/>
<path d="M28.2783 93.7754C29.8196 93.7754 31.0693 95.0251 31.0693 96.5664C31.0693 96.5936 31.0652 96.6205 31.0645 96.6475C31.0652 96.6744 31.0693 96.7014 31.0693 96.7285C31.0693 98.2698 29.8196 99.5195 28.2783 99.5195C26.7372 99.5194 25.4883 98.2697 25.4883 96.7285C25.4883 96.7014 25.4904 96.6744 25.4912 96.6475C25.4904 96.6205 25.4883 96.5935 25.4883 96.5664C25.4883 95.0252 26.7372 93.7755 28.2783 93.7754Z" fill="#EAEAD9"/>
<path d="M47.8135 93.7754C49.3546 93.7756 50.6035 95.0253 50.6035 96.5664C50.6035 96.5935 50.6004 96.6205 50.5996 96.6475C50.6004 96.6744 50.6035 96.7014 50.6035 96.7285C50.6035 98.2696 49.3546 99.5193 47.8135 99.5195C46.2722 99.5195 45.0225 98.2698 45.0225 96.7285C45.0225 96.7014 45.0256 96.6744 45.0264 96.6475C45.0256 96.6205 45.0225 96.5935 45.0225 96.5664C45.0225 95.0251 46.2722 93.7754 47.8135 93.7754Z" fill="#EAEAD9"/>
<path d="M126.278 93.7754C127.82 93.7754 129.069 95.0251 129.069 96.5664C129.069 96.5936 129.065 96.6205 129.064 96.6475C129.065 96.6744 129.069 96.7014 129.069 96.7285C129.069 98.2698 127.82 99.5195 126.278 99.5195C126.223 99.5195 126.169 99.5139 126.115 99.5107C126.062 99.5138 126.008 99.5195 125.953 99.5195C124.412 99.5195 123.162 98.2698 123.162 96.7285C123.162 96.7014 123.165 96.6744 123.166 96.6475C123.165 96.6205 123.162 96.5935 123.162 96.5664C123.162 95.0251 124.412 93.7754 125.953 93.7754C126.008 93.7754 126.062 93.7801 126.115 93.7832C126.169 93.7801 126.224 93.7754 126.278 93.7754Z" fill="#EAEAD9"/>
<path d="M165.349 93.7754C166.89 93.7756 168.139 95.0253 168.139 96.5664C168.139 96.5936 168.135 96.6205 168.134 96.6475C168.135 96.6744 168.139 96.7014 168.139 96.7285C168.139 98.2696 166.89 99.5193 165.349 99.5195C165.294 99.5195 165.239 99.5138 165.186 99.5107C165.132 99.5138 165.077 99.5195 165.022 99.5195C163.481 99.5193 162.232 98.2696 162.232 96.7285C162.232 96.7014 162.236 96.6744 162.236 96.6475C162.236 96.6205 162.232 96.5935 162.232 96.5664C162.232 95.0253 163.481 93.7756 165.022 93.7754C165.077 93.7754 165.132 93.7801 165.186 93.7832C165.239 93.7801 165.294 93.7754 165.349 93.7754Z" fill="#EAEAD9"/>
<path d="M223.953 93.7754C225.494 93.7756 226.743 95.0253 226.743 96.5664C226.743 96.5935 226.74 96.6205 226.739 96.6475C226.74 96.6744 226.743 96.7014 226.743 96.7285C226.743 98.2697 225.494 99.5194 223.953 99.5195C223.898 99.5195 223.844 99.5138 223.79 99.5107C223.736 99.5138 223.682 99.5195 223.628 99.5195C223.265 99.5195 222.919 99.4483 222.601 99.3223L220.839 96.7793C220.839 96.7625 220.837 96.7453 220.837 96.7285C220.837 96.7014 220.84 96.6744 220.841 96.6475C220.84 96.6205 220.837 96.5935 220.837 96.5664C220.837 95.0251 222.087 93.7754 223.628 93.7754C223.682 93.7754 223.736 93.7801 223.79 93.7832C223.844 93.7801 223.898 93.7754 223.953 93.7754Z" fill="#EAEAD9"/>
<path d="M243.488 93.7754C244.167 93.7755 244.79 94.0186 245.273 94.4219V98.8721C244.79 99.2757 244.168 99.5194 243.488 99.5195C243.362 99.5195 243.237 99.5075 243.115 99.4912C242.993 99.5074 242.869 99.5195 242.743 99.5195C241.202 99.5193 239.953 98.2697 239.953 96.7285C239.953 96.7014 239.955 96.6744 239.956 96.6475C239.955 96.6205 239.953 96.5935 239.953 96.5664C239.953 95.0253 241.202 93.7756 242.743 93.7754C242.869 93.7754 242.994 93.7865 243.115 93.8027C243.237 93.7864 243.362 93.7754 243.488 93.7754Z" fill="#EAEAD9"/>
<path d="M282.558 93.7754C284.099 93.7755 285.349 95.0252 285.349 96.5664C285.349 96.5935 285.345 96.6205 285.344 96.6475C285.345 96.6744 285.349 96.7014 285.349 96.7285C285.349 98.2697 284.099 99.5194 282.558 99.5195C282.431 99.5195 282.307 99.5075 282.186 99.4912C282.064 99.5075 281.94 99.5195 281.813 99.5195C281.802 99.5195 281.79 99.5177 281.778 99.5176C281.767 99.5177 281.755 99.5195 281.743 99.5195C280.202 99.5193 278.953 98.2697 278.953 96.7285C278.953 96.7014 278.955 96.6744 278.956 96.6475C278.955 96.6205 278.953 96.5935 278.953 96.5664C278.953 95.0253 280.202 93.7756 281.743 93.7754C281.755 93.7754 281.767 93.7762 281.778 93.7764C281.79 93.7762 281.802 93.7754 281.813 93.7754C281.94 93.7754 282.064 93.7865 282.186 93.8027C282.307 93.7865 282.431 93.7754 282.558 93.7754Z" fill="#EAEAD9"/>
<path d="M340.743 93.7754C342.284 93.7754 343.534 95.0251 343.534 96.5664C343.534 96.5936 343.53 96.6205 343.529 96.6475C343.53 96.6744 343.534 96.7014 343.534 96.7285C343.534 98.2698 342.284 99.5195 340.743 99.5195C340.688 99.5195 340.634 99.5139 340.58 99.5107C340.526 99.5138 340.472 99.5195 340.418 99.5195C340.406 99.5195 340.394 99.5177 340.383 99.5176C340.371 99.5177 340.36 99.5195 340.349 99.5195C338.807 99.5195 337.558 98.2698 337.558 96.7285C337.558 96.7014 337.561 96.6744 337.562 96.6475C337.561 96.6205 337.558 96.5935 337.558 96.5664C337.558 95.0251 338.807 93.7754 340.349 93.7754L340.383 93.7764C340.394 93.7762 340.406 93.7754 340.418 93.7754C340.472 93.7754 340.526 93.7801 340.58 93.7832C340.634 93.7801 340.688 93.7754 340.743 93.7754Z" fill="#EAEAD9"/>
<path d="M399.349 93.7754C400.89 93.7757 402.139 95.0253 402.139 96.5664C402.139 96.5936 402.135 96.6205 402.134 96.6475C402.135 96.6744 402.139 96.7014 402.139 96.7285C402.139 98.2696 400.89 99.5193 399.349 99.5195C399.337 99.5195 399.325 99.5177 399.313 99.5176C399.302 99.5177 399.29 99.5195 399.278 99.5195C399.234 99.5195 399.19 99.5147 399.146 99.5127C399.106 99.5145 399.065 99.5195 399.023 99.5195C399.012 99.5195 398.999 99.5177 398.987 99.5176C398.976 99.5177 398.965 99.5195 398.953 99.5195C397.412 99.5195 396.162 98.2698 396.162 96.7285C396.162 96.7014 396.165 96.6744 396.166 96.6475C396.165 96.6205 396.162 96.5935 396.162 96.5664C396.162 95.0251 397.412 93.7754 398.953 93.7754C398.965 93.7754 398.976 93.7762 398.987 93.7764C398.999 93.7762 399.012 93.7754 399.023 93.7754C399.067 93.7754 399.111 93.7792 399.154 93.7812C399.195 93.7794 399.237 93.7754 399.278 93.7754C399.289 93.7754 399.301 93.7762 399.312 93.7764C399.324 93.7762 399.336 93.7754 399.349 93.7754Z" fill="#EAEAD9"/>
<path d="M418.883 93.7754C420.424 93.7755 421.674 95.0252 421.674 96.5664C421.674 96.5935 421.67 96.6205 421.669 96.6475C421.67 96.6744 421.674 96.7014 421.674 96.7285C421.674 98.2697 420.424 99.5195 418.883 99.5195C418.871 99.5195 418.86 99.5177 418.849 99.5176C418.837 99.5177 418.825 99.5195 418.813 99.5195C418.769 99.5195 418.725 99.5147 418.682 99.5127C418.64 99.5145 418.599 99.5195 418.558 99.5195C418.546 99.5195 418.534 99.5177 418.522 99.5176C418.511 99.5177 418.5 99.5195 418.488 99.5195C416.947 99.5195 415.697 98.2698 415.697 96.7285C415.697 96.7014 415.7 96.6744 415.701 96.6475C415.7 96.6205 415.697 96.5935 415.697 96.5664C415.697 95.0251 416.947 93.7754 418.488 93.7754L418.522 93.7764C418.534 93.7762 418.546 93.7754 418.558 93.7754C418.602 93.7754 418.645 93.7792 418.688 93.7812C418.73 93.7794 418.772 93.7754 418.813 93.7754C418.825 93.7754 418.836 93.7762 418.847 93.7764C418.859 93.7762 418.871 93.7754 418.883 93.7754Z" fill="#EAEAD9"/>
<path d="M438.418 93.7754C439.959 93.7755 441.208 95.0252 441.208 96.5664C441.208 96.5935 441.205 96.6205 441.204 96.6475C441.205 96.6744 441.208 96.7014 441.208 96.7285C441.208 98.2697 439.959 99.5194 438.418 99.5195C438.407 99.5195 438.395 99.5177 438.384 99.5176C438.372 99.5177 438.36 99.5195 438.349 99.5195C438.305 99.5195 438.26 99.5147 438.217 99.5127C438.175 99.5145 438.134 99.5195 438.092 99.5195C438.08 99.5195 438.069 99.5177 438.058 99.5176C438.046 99.5177 438.035 99.5195 438.023 99.5195C436.482 99.5195 435.232 98.2698 435.232 96.7285C435.232 96.7014 435.236 96.6744 435.236 96.6475C435.236 96.6205 435.232 96.5935 435.232 96.5664C435.232 95.0251 436.482 93.7754 438.023 93.7754C438.035 93.7754 438.046 93.7762 438.058 93.7764C438.069 93.7762 438.08 93.7754 438.092 93.7754C438.136 93.7754 438.18 93.7792 438.224 93.7812C438.265 93.7794 438.307 93.7754 438.349 93.7754C438.36 93.7754 438.371 93.7762 438.382 93.7764C438.394 93.7762 438.406 93.7754 438.418 93.7754Z" fill="#EAEAD9"/>
<path d="M516.558 93.7754C518.099 93.7755 519.349 95.0252 519.349 96.5664C519.349 96.5935 519.345 96.6205 519.344 96.6475C519.345 96.6744 519.349 96.7014 519.349 96.7285C519.349 98.2697 518.099 99.5194 516.558 99.5195C516.546 99.5195 516.534 99.5177 516.522 99.5176C516.511 99.5177 516.5 99.5195 516.488 99.5195C514.947 99.5195 513.697 98.2698 513.697 96.7285C513.697 96.7014 513.7 96.6744 513.701 96.6475C513.7 96.6205 513.697 96.5935 513.697 96.5664C513.697 95.0251 514.947 93.7754 516.488 93.7754C516.5 93.7754 516.511 93.7762 516.522 93.7764C516.534 93.7762 516.546 93.7754 516.558 93.7754Z" fill="#EAEAD9"/>
<path d="M536.092 93.7754C537.633 93.7754 538.883 95.0251 538.883 96.5664C538.883 96.5936 538.879 96.6205 538.878 96.6475C538.879 96.6744 538.883 96.7014 538.883 96.7285C538.883 98.2698 537.633 99.5195 536.092 99.5195C536.08 99.5195 536.069 99.5177 536.058 99.5176C536.046 99.5177 536.035 99.5195 536.023 99.5195C534.482 99.5195 533.232 98.2698 533.232 96.7285C533.232 96.7014 533.236 96.6744 533.236 96.6475C533.236 96.6205 533.232 96.5935 533.232 96.5664C533.232 95.0251 534.482 93.7754 536.023 93.7754C536.035 93.7754 536.046 93.7762 536.058 93.7764C536.069 93.7762 536.08 93.7754 536.092 93.7754Z" fill="#EAEAD9"/>
<path d="M555.628 93.7754C557.169 93.7756 558.418 95.0253 558.418 96.5664C558.418 96.5935 558.415 96.6205 558.414 96.6475C558.415 96.6744 558.418 96.7014 558.418 96.7285C558.418 98.2697 557.169 99.5193 555.628 99.5195C555.616 99.5195 555.604 99.5177 555.592 99.5176C555.58 99.5177 555.569 99.5195 555.558 99.5195C554.016 99.5195 552.767 98.2698 552.767 96.7285C552.767 96.7014 552.77 96.6744 552.771 96.6475C552.77 96.6205 552.767 96.5935 552.767 96.5664C552.767 95.0251 554.016 93.7754 555.558 93.7754C555.569 93.7754 555.58 93.7762 555.592 93.7764C555.604 93.7762 555.616 93.7754 555.628 93.7754Z" fill="#EAEAD9"/>
<path d="M497.023 93.7754C498.564 93.7757 499.813 95.0253 499.813 96.5664C499.813 96.5936 499.809 96.6205 499.809 96.6475C499.809 96.6744 499.813 96.7014 499.813 96.7285C499.813 98.2602 498.58 99.5021 497.052 99.5176C495.897 98.4996 494.832 97.4037 493.858 96.2305C494.024 94.8476 495.2 93.7754 496.628 93.7754C496.683 93.7754 496.738 93.78 496.793 93.7832C496.846 93.7802 496.899 93.7754 496.953 93.7754C496.965 93.7754 496.976 93.7762 496.987 93.7764C496.999 93.7762 497.012 93.7754 497.023 93.7754Z" fill="#EAEAD9"/>
<path d="M67.3486 93.7754C68.8897 93.7757 70.1387 95.0253 70.1387 96.5664C70.1387 96.5936 70.1346 96.6205 70.1338 96.6475C70.1346 96.6744 70.1387 96.7014 70.1387 96.7285C68.9799 97.6713 67.766 98.5576 66.498 99.3867C65.3727 99.0271 64.5576 97.9732 64.5576 96.7285C64.5576 96.7014 64.5607 96.6744 64.5615 96.6475C64.5608 96.6205 64.5576 96.5935 64.5576 96.5664C64.5576 95.0251 65.8074 93.7754 67.3486 93.7754Z" fill="#EAEAD9"/>
<path d="M18.5107 79.3574C18.6928 79.3574 18.8706 79.3759 19.043 79.4092V85.0479C18.8705 85.0812 18.6929 85.1006 18.5107 85.1006C16.9696 85.1006 15.7199 83.8517 15.7197 82.3105C15.7197 82.2832 15.7228 82.2557 15.7236 82.2285C15.7229 82.2016 15.7197 82.1745 15.7197 82.1475C15.7198 80.6063 16.9696 79.3574 18.5107 79.3574Z" fill="#EAEAD9"/>
<path d="M60.2852 81.4727C60.339 81.689 60.3721 81.9144 60.3721 82.1475C60.3721 82.1745 60.368 82.2016 60.3672 82.2285C60.368 82.2557 60.3721 82.2832 60.3721 82.3105C60.3719 83.8516 59.1222 85.1005 57.5811 85.1006C57.2323 85.1006 56.8996 85.0338 56.5918 84.917C57.8187 83.9899 58.9504 82.9554 59.9854 81.8115C60.0871 81.7004 60.1852 81.5858 60.2852 81.4727Z" fill="#EAEAD9"/>
<path d="M77.1162 79.3574C78.6573 79.3576 79.9061 80.6064 79.9062 82.1475C79.9062 82.1722 79.903 82.1971 79.9023 82.2217C79.9033 82.2511 79.9062 82.2809 79.9062 82.3105C79.9061 83.8516 78.6573 85.1004 77.1162 85.1006C75.575 85.1006 74.3253 83.8517 74.3252 82.3105C74.3252 82.2832 74.3283 82.2557 74.3291 82.2285C74.3283 82.2016 74.3252 82.1745 74.3252 82.1475C74.3253 80.6063 75.575 79.3574 77.1162 79.3574Z" fill="#EAEAD9"/>
<path d="M116.511 79.3574C118.052 79.3574 119.302 80.6063 119.302 82.1475C119.302 82.1745 119.298 82.2016 119.297 82.2285C119.298 82.2557 119.302 82.2832 119.302 82.3105C119.302 83.8517 118.052 85.1006 116.511 85.1006C116.456 85.1006 116.402 85.0959 116.348 85.0928C116.294 85.0959 116.24 85.1006 116.186 85.1006C114.644 85.1006 113.395 83.8517 113.395 82.3105C113.395 82.2832 113.398 82.2557 113.398 82.2285C113.398 82.2016 113.395 82.1745 113.395 82.1475C113.395 80.6063 114.644 79.3574 116.186 79.3574C116.24 79.3574 116.294 79.3612 116.348 79.3643C116.402 79.3611 116.456 79.3574 116.511 79.3574Z" fill="#EAEAD9"/>
<path d="M175.116 79.3574C175.924 79.3575 176.649 79.7019 177.158 80.25V84.207C176.649 84.7554 175.924 85.1005 175.116 85.1006C175.061 85.1006 175.007 85.0949 174.953 85.0918C174.899 85.0949 174.845 85.1006 174.79 85.1006C173.249 85.1005 171.999 83.8516 171.999 82.3105C171.999 82.2832 172.002 82.2557 172.003 82.2285C172.002 82.2016 171.999 82.1745 171.999 82.1475C171.999 80.6063 173.249 79.3575 174.79 79.3574C174.845 79.3574 174.899 79.3621 174.953 79.3652C175.007 79.3621 175.061 79.3574 175.116 79.3574Z" fill="#EAEAD9"/>
<path d="M214.186 79.3574C215.727 79.3574 216.976 80.6063 216.977 82.1475C216.977 82.1745 216.972 82.2016 216.972 82.2285C216.972 82.2557 216.977 82.2832 216.977 82.3105C216.976 83.8517 215.727 85.1006 214.186 85.1006C214.131 85.1006 214.076 85.0959 214.022 85.0928C213.969 85.0959 213.915 85.1006 213.86 85.1006C213.367 85.1006 212.903 84.972 212.501 84.7471L211.104 82.7305C211.083 82.5934 211.069 82.4534 211.069 82.3105C211.069 82.2832 211.072 82.2557 211.073 82.2285C211.072 82.2016 211.069 82.1745 211.069 82.1475C211.069 80.6063 212.319 79.3574 213.86 79.3574C213.915 79.3574 213.969 79.3612 214.022 79.3643C214.076 79.3611 214.131 79.3574 214.186 79.3574Z" fill="#EAEAD9"/>
<path d="M233.721 79.3574C235.262 79.3575 236.512 80.6063 236.512 82.1475C236.512 82.1745 236.508 82.2016 236.507 82.2285C236.508 82.2557 236.512 82.2832 236.512 82.3105C236.512 83.8517 235.262 85.1005 233.721 85.1006C233.666 85.1006 233.612 85.0949 233.558 85.0918C233.504 85.0949 233.449 85.1006 233.395 85.1006C233.324 85.1006 233.255 85.095 233.186 85.0898C233.116 85.095 233.047 85.1006 232.977 85.1006C231.435 85.1006 230.186 83.8517 230.186 82.3105C230.186 82.2832 230.189 82.2557 230.189 82.2285C230.189 82.2016 230.186 82.1745 230.186 82.1475C230.186 80.6063 231.435 79.3574 232.977 79.3574L233.186 79.3672C233.255 79.3621 233.324 79.3574 233.395 79.3574L233.558 79.3652C233.612 79.3621 233.666 79.3574 233.721 79.3574Z" fill="#EAEAD9"/>
<path d="M272.79 79.3574C274.331 79.3574 275.581 80.6063 275.581 82.1475C275.581 82.1745 275.577 82.2016 275.576 82.2285C275.577 82.2557 275.581 82.2832 275.581 82.3105C275.581 83.8517 274.331 85.1006 272.79 85.1006C272.664 85.1006 272.54 85.0895 272.418 85.0732C272.413 85.0739 272.408 85.0745 272.402 85.0752V79.3809C272.408 79.3815 272.413 79.3831 272.418 79.3838C272.54 79.3675 272.664 79.3574 272.79 79.3574Z" fill="#EAEAD9"/>
<path d="M331.395 79.3574C332.936 79.3574 334.185 80.6063 334.186 82.1475C334.186 82.1745 334.181 82.2016 334.181 82.2285C334.181 82.2557 334.186 82.2832 334.186 82.3105C334.185 83.8517 332.936 85.1006 331.395 85.1006C331.324 85.1006 331.255 85.095 331.186 85.0898C331.116 85.095 331.047 85.1006 330.977 85.1006C330.922 85.1006 330.867 85.0959 330.813 85.0928C330.76 85.0959 330.706 85.1006 330.651 85.1006C330.639 85.1006 330.627 85.0988 330.615 85.0986C330.604 85.0988 330.592 85.1006 330.581 85.1006C329.04 85.1006 327.79 83.8517 327.79 82.3105C327.79 82.2832 327.793 82.2557 327.794 82.2285C327.793 82.2016 327.79 82.1745 327.79 82.1475C327.79 80.6063 329.04 79.3574 330.581 79.3574C330.592 79.3574 330.604 79.3583 330.615 79.3584C330.627 79.3582 330.639 79.3574 330.651 79.3574C330.706 79.3574 330.76 79.3612 330.813 79.3643C330.867 79.3612 330.922 79.3574 330.977 79.3574C331.047 79.3574 331.116 79.3621 331.186 79.3672C331.255 79.3621 331.324 79.3574 331.395 79.3574Z" fill="#EAEAD9"/>
<path d="M389.581 79.3574C391.122 79.3575 392.372 80.6063 392.372 82.1475C392.372 82.1745 392.368 82.2016 392.367 82.2285C392.368 82.2557 392.372 82.2832 392.372 82.3105C392.372 83.8516 391.122 85.1005 389.581 85.1006C389.57 85.1006 389.559 85.0988 389.548 85.0986C389.536 85.0988 389.523 85.1006 389.511 85.1006C389.465 85.1006 389.42 85.0959 389.375 85.0938C389.335 85.0954 389.295 85.1006 389.255 85.1006C389.243 85.1006 389.231 85.0988 389.22 85.0986C389.208 85.0988 389.197 85.1006 389.186 85.1006C387.644 85.1006 386.395 83.8517 386.395 82.3105C386.395 82.2832 386.398 82.2557 386.398 82.2285C386.398 82.2016 386.395 82.1745 386.395 82.1475C386.395 80.6063 387.644 79.3574 389.186 79.3574C389.197 79.3574 389.208 79.3583 389.22 79.3584C389.231 79.3583 389.243 79.3574 389.255 79.3574C389.298 79.3574 389.34 79.3614 389.383 79.3633C389.425 79.3614 389.468 79.3574 389.511 79.3574C389.522 79.3574 389.534 79.3583 389.545 79.3584C389.557 79.3582 389.569 79.3574 389.581 79.3574Z" fill="#EAEAD9"/>
<path d="M448.186 79.3574C449.727 79.3574 450.976 80.6063 450.977 82.1475C450.977 82.1745 450.972 82.2016 450.972 82.2285C450.972 82.2557 450.977 82.2832 450.977 82.3105C450.976 83.8517 449.727 85.1006 448.186 85.1006C448.174 85.1006 448.162 85.0988 448.15 85.0986C448.139 85.0988 448.128 85.1006 448.116 85.1006C448.073 85.1006 448.03 85.0957 447.987 85.0938C447.945 85.0956 447.903 85.1006 447.86 85.1006C447.849 85.1006 447.837 85.0988 447.825 85.0986C447.814 85.0988 447.802 85.1006 447.79 85.1006C446.249 85.1005 445 83.8516 445 82.3105C445 82.2832 445.003 82.2557 445.004 82.2285C445.003 82.2016 445 82.1745 445 82.1475C445 80.6063 446.249 79.3575 447.79 79.3574C447.802 79.3574 447.814 79.3583 447.825 79.3584C447.837 79.3583 447.849 79.3574 447.86 79.3574C447.906 79.3574 447.951 79.3601 447.996 79.3623C448.036 79.3606 448.076 79.3574 448.116 79.3574C448.127 79.3574 448.138 79.3583 448.148 79.3584C448.161 79.3582 448.173 79.3574 448.186 79.3574Z" fill="#EAEAD9"/>
<path d="M505.989 79.3896C506.451 81.3681 507.205 83.1307 508.26 84.6787C507.833 84.9444 507.33 85.1006 506.79 85.1006C506.778 85.1006 506.767 85.0988 506.755 85.0986C506.743 85.0988 506.732 85.1006 506.721 85.1006C506.665 85.1006 506.61 85.095 506.555 85.0918C506.502 85.0948 506.448 85.1006 506.395 85.1006C504.853 85.1004 503.605 83.8516 503.604 82.3105C503.604 82.2832 503.608 82.2557 503.608 82.2285C503.608 82.2016 503.604 82.1745 503.604 82.1475C503.605 80.7442 504.641 79.5863 505.989 79.3896Z" fill="#EAEAD9"/>
<path d="M565.395 79.3574C566.512 79.3574 567.473 80.0152 567.919 80.9639C567.816 82.067 567.658 83.1445 567.446 84.1963C566.936 84.7508 566.207 85.1006 565.395 85.1006C565.383 85.1006 565.371 85.0988 565.359 85.0986C565.348 85.0988 565.337 85.1006 565.325 85.1006C563.784 85.1006 562.534 83.8517 562.534 82.3105C562.534 82.2832 562.537 82.2557 562.538 82.2285C562.537 82.2016 562.534 82.1745 562.534 82.1475C562.534 80.6063 563.784 79.3575 565.325 79.3574C565.337 79.3574 565.348 79.3583 565.359 79.3584C565.371 79.3583 565.383 79.3574 565.395 79.3574Z" fill="#EAEAD9"/>
<path d="M291.445 85.0967C289.934 85.0619 288.72 83.8298 288.72 82.3105C288.72 82.2832 288.723 82.2557 288.724 82.2285C288.723 82.2016 288.72 82.1745 288.72 82.1475C288.72 80.6282 289.934 79.3952 291.445 79.3604V85.0967Z" fill="#EAEAD9"/>
<path d="M487.255 79.3574C488.796 79.3576 490.045 80.6064 490.045 82.1475C490.045 82.1722 490.042 82.1971 490.041 82.2217C490.042 82.2511 490.045 82.2809 490.045 82.3105C490.045 83.5688 489.212 84.6314 488.067 84.9795C487.578 83.1963 487.224 81.3238 487.002 79.3623C487.011 79.3627 487.02 79.3637 487.028 79.3643C487.08 79.3614 487.133 79.3574 487.186 79.3574C487.197 79.3574 487.208 79.3583 487.219 79.3584C487.231 79.3582 487.243 79.3574 487.255 79.3574Z" fill="#EAEAD9"/>
<path d="M548.514 81.2852C548.602 81.5568 548.651 81.8464 548.651 82.1475C548.651 82.1745 548.647 82.2016 548.646 82.2285C548.647 82.2557 548.651 82.2832 548.651 82.3105C548.651 83.5239 547.875 84.5532 546.794 84.9375C547.559 83.7908 548.138 82.5767 548.514 81.2852Z" fill="#EAEAD9"/>
<path d="M0 79.5527C1.03435 79.9611 1.76652 80.968 1.7666 82.1475C1.7666 82.1722 1.76334 82.1971 1.7627 82.2217C1.76361 82.2511 1.76758 82.2809 1.76758 82.3105C1.76745 83.49 1.03426 84.4959 0 84.9043V79.5527Z" fill="#EAEAD9"/>
<path d="M158.115 80.9834C158.278 81.338 158.372 81.7316 158.372 82.1475C158.372 82.1745 158.368 82.2016 158.367 82.2285C158.368 82.2557 158.372 82.2832 158.372 82.3105C158.372 82.7261 158.278 83.1193 158.115 83.4736V80.9834Z" fill="#EAEAD9"/>
<path d="M8.74316 64.7754C10.2844 64.7754 11.5342 66.0251 11.5342 67.5664C11.5342 67.5922 11.53 67.6179 11.5293 67.6436C11.5301 67.6718 11.5342 67.7001 11.5342 67.7285C11.5342 69.2698 10.2844 70.5195 8.74316 70.5195C7.20206 70.5193 5.95312 69.2697 5.95312 67.7285C5.95313 67.7014 5.95528 67.6744 5.95605 67.6475C5.95528 67.6205 5.95313 67.5935 5.95312 67.5664C5.95312 66.0253 7.20206 64.7756 8.74316 64.7754Z" fill="#EAEAD9"/>
<path d="M67.6338 64.79C69.0409 64.9331 70.1387 66.1216 70.1387 67.5664C70.1387 67.5922 70.1345 67.6179 70.1338 67.6436C70.1346 67.6718 70.1387 67.7001 70.1387 67.7285C70.1387 69.2696 68.8897 70.5193 67.3486 70.5195C66.9792 70.5195 66.6264 70.4468 66.3037 70.3164C66.8339 68.5834 67.2653 66.7408 67.5957 64.7881L67.6338 64.79Z" fill="#EAEAD9"/>
<path d="M126.278 64.7754C127.82 64.7754 129.069 66.0251 129.069 67.5664C129.069 67.5922 129.066 67.6179 129.065 67.6436C129.066 67.6718 129.069 67.7001 129.069 67.7285C129.069 69.2698 127.82 70.5195 126.278 70.5195C126.223 70.5195 126.169 70.5139 126.115 70.5107C126.062 70.5138 126.008 70.5195 125.953 70.5195C124.412 70.5195 123.162 69.2698 123.162 67.7285C123.162 67.7014 123.165 67.6744 123.166 67.6475C123.165 67.6205 123.162 67.5935 123.162 67.5664C123.162 66.0251 124.412 64.7754 125.953 64.7754C126.008 64.7754 126.062 64.7801 126.115 64.7832C126.169 64.7801 126.224 64.7754 126.278 64.7754Z" fill="#EAEAD9"/>
<path d="M165.349 64.7754C166.89 64.7756 168.139 66.0253 168.139 67.5664C168.139 67.5922 168.135 67.6179 168.135 67.6436C168.136 67.6718 168.139 67.7001 168.139 67.7285C168.139 69.2696 166.89 70.5193 165.349 70.5195C165.294 70.5195 165.239 70.5138 165.186 70.5107C165.132 70.5138 165.077 70.5195 165.022 70.5195C163.481 70.5193 162.232 69.2696 162.232 67.7285C162.232 67.7014 162.236 67.6744 162.236 67.6475C162.236 67.6205 162.232 67.5935 162.232 67.5664C162.232 66.0253 163.481 64.7756 165.022 64.7754C165.077 64.7754 165.132 64.7801 165.186 64.7832C165.239 64.7801 165.294 64.7754 165.349 64.7754Z" fill="#EAEAD9"/>
<path d="M204.418 64.7754C205.959 64.7755 207.208 66.0252 207.208 67.5664C207.208 67.5922 207.205 67.6179 207.204 67.6436C207.205 67.6718 207.208 67.7001 207.208 67.7285C207.208 69.2697 205.959 70.5194 204.418 70.5195C204.363 70.5195 204.309 70.5139 204.255 70.5107C204.201 70.5139 204.147 70.5195 204.092 70.5195C203.226 70.5195 202.452 70.1249 201.94 69.5059L201.687 69.1396C201.443 68.7254 201.302 68.2437 201.302 67.7285C201.302 67.7014 201.304 67.6744 201.305 67.6475C201.304 67.6205 201.302 67.5935 201.302 67.5664C201.302 66.0252 202.551 64.7755 204.092 64.7754C204.147 64.7754 204.201 64.7801 204.255 64.7832C204.309 64.7801 204.363 64.7754 204.418 64.7754Z" fill="#EAEAD9"/>
<path d="M243.488 64.7754C244.167 64.7755 244.79 65.0186 245.273 65.4219V69.8721C244.79 70.2757 244.168 70.5194 243.488 70.5195C243.362 70.5195 243.237 70.5075 243.115 70.4912C242.993 70.5074 242.869 70.5195 242.743 70.5195C241.298 70.5194 240.11 69.4216 239.967 68.0146L239.953 67.7285C239.953 67.7014 239.955 67.6744 239.956 67.6475C239.955 67.6205 239.953 67.5935 239.953 67.5664C239.953 66.0253 241.202 64.7756 242.743 64.7754C242.869 64.7754 242.994 64.7865 243.115 64.8027C243.237 64.7864 243.362 64.7754 243.488 64.7754Z" fill="#EAEAD9"/>
<path d="M282.558 64.7754C284.099 64.7755 285.349 66.0252 285.349 67.5664C285.349 67.5922 285.345 67.6179 285.345 67.6436C285.346 67.6718 285.349 67.7001 285.349 67.7285C285.349 69.2697 284.099 70.5194 282.558 70.5195C282.431 70.5195 282.307 70.5075 282.186 70.4912C282.064 70.5075 281.94 70.5195 281.813 70.5195C281.802 70.5195 281.79 70.5177 281.778 70.5176C281.767 70.5177 281.755 70.5195 281.743 70.5195C280.298 70.5194 279.11 69.4216 278.967 68.0146L278.953 67.7285C278.953 67.7014 278.955 67.6744 278.956 67.6475C278.955 67.6205 278.953 67.5935 278.953 67.5664C278.953 66.0253 280.202 64.7756 281.743 64.7754C281.755 64.7754 281.767 64.7762 281.778 64.7764C281.79 64.7762 281.802 64.7754 281.813 64.7754C281.94 64.7754 282.064 64.7865 282.186 64.8027C282.307 64.7865 282.431 64.7754 282.558 64.7754Z" fill="#EAEAD9"/>
<path d="M321.628 64.7754C323.169 64.7756 324.418 66.0253 324.418 67.5664C324.418 67.5922 324.415 67.6179 324.414 67.6436C324.415 67.6718 324.418 67.7001 324.418 67.7285C324.418 69.2697 323.169 70.5193 321.628 70.5195C321.501 70.5195 321.377 70.5075 321.255 70.4912C321.133 70.5075 321.009 70.5195 320.883 70.5195L320.848 70.5176C320.836 70.5177 320.825 70.5195 320.813 70.5195C319.272 70.5195 318.022 69.2698 318.022 67.7285C318.022 67.7001 318.026 67.6718 318.026 67.6436C318.026 67.6179 318.022 67.5922 318.022 67.5664C318.022 66.0251 319.272 64.7754 320.813 64.7754C320.825 64.7754 320.836 64.7762 320.848 64.7764C320.859 64.7762 320.871 64.7754 320.883 64.7754L321.168 64.79C321.197 64.793 321.226 64.7989 321.255 64.8027C321.377 64.7864 321.501 64.7754 321.628 64.7754Z" fill="#EAEAD9"/>
<path d="M379.813 64.7754C381.355 64.7756 382.604 66.0253 382.604 67.5664C382.604 67.5922 382.6 67.6179 382.6 67.6436C382.6 67.6718 382.604 67.7001 382.604 67.7285C382.604 69.2696 381.355 70.5193 379.813 70.5195C379.802 70.5195 379.79 70.5177 379.778 70.5176C379.767 70.5177 379.755 70.5195 379.743 70.5195C379.699 70.5195 379.655 70.5147 379.611 70.5127C379.57 70.5145 379.53 70.5195 379.488 70.5195L379.453 70.5176C379.441 70.5177 379.43 70.5195 379.418 70.5195C378.578 70.5195 377.826 70.1462 377.314 69.5586V65.7354C377.826 65.1481 378.578 64.7754 379.418 64.7754C379.429 64.7754 379.441 64.7762 379.452 64.7764C379.464 64.7762 379.476 64.7754 379.488 64.7754L379.619 64.7812C379.66 64.7794 379.702 64.7754 379.743 64.7754C379.754 64.7754 379.765 64.7762 379.776 64.7764C379.789 64.7762 379.801 64.7754 379.813 64.7754Z" fill="#EAEAD9"/>
<path d="M457.953 64.7754C459.494 64.7756 460.743 66.0252 460.743 67.5664C460.743 67.5922 460.74 67.6179 460.739 67.6436C460.74 67.6718 460.743 67.7001 460.743 67.7285C460.743 69.2697 459.494 70.5194 457.953 70.5195C457.941 70.5195 457.93 70.5177 457.918 70.5176C457.906 70.5177 457.895 70.5195 457.883 70.5195C457.839 70.5195 457.795 70.5147 457.751 70.5127C457.71 70.5145 457.669 70.5195 457.628 70.5195L457.593 70.5176C457.581 70.5177 457.569 70.5195 457.558 70.5195C456.016 70.5195 454.767 69.2698 454.767 67.7285C454.767 67.7001 454.77 67.6718 454.771 67.6436C454.77 67.6179 454.767 67.5922 454.767 67.5664C454.767 66.0251 456.016 64.7754 457.558 64.7754C457.569 64.7754 457.58 64.7762 457.592 64.7764C457.604 64.7762 457.616 64.7754 457.628 64.7754C457.672 64.7754 457.715 64.7792 457.759 64.7812C457.8 64.7795 457.841 64.7754 457.883 64.7754C457.894 64.7754 457.905 64.7762 457.916 64.7764C457.928 64.7762 457.941 64.7754 457.953 64.7754Z" fill="#EAEAD9"/>
<path d="M555.628 64.7754C557.169 64.7756 558.418 66.0253 558.418 67.5664C558.418 67.5922 558.415 67.6179 558.414 67.6436C558.415 67.6718 558.418 67.7001 558.418 67.7285C558.418 69.2697 557.169 70.5193 555.628 70.5195C555.616 70.5195 555.604 70.5177 555.592 70.5176C555.58 70.5177 555.569 70.5195 555.558 70.5195C554.016 70.5195 552.767 69.2698 552.767 67.7285C552.767 67.7001 552.77 67.6718 552.771 67.6436C552.77 67.6179 552.767 67.5922 552.767 67.5664C552.767 66.0251 554.016 64.7754 555.558 64.7754C555.569 64.7754 555.58 64.7762 555.592 64.7764C555.604 64.7762 555.616 64.7754 555.628 64.7754Z" fill="#EAEAD9"/>
<path d="M222.903 70.4209C221.714 70.1016 220.837 69.0189 220.837 67.7285C220.837 67.7014 220.84 67.6744 220.841 67.6475C220.84 67.6205 220.837 67.5935 220.837 67.5664C220.837 67.5209 220.842 67.4756 220.844 67.4307L222.903 70.4209Z" fill="#EAEAD9"/>
<path d="M86.7744 64.7803C86.5176 66.6716 86.1865 68.5095 85.7832 70.2939C84.7888 69.8671 84.0918 68.8793 84.0918 67.7285C84.0918 67.7014 84.0949 67.6744 84.0957 67.6475C84.0949 67.6205 84.0918 67.5935 84.0918 67.5664C84.0918 66.0614 85.2834 64.8372 86.7744 64.7803Z" fill="#EAEAD9"/>
<path d="M226.377 66.1875C226.609 66.5945 226.743 67.0645 226.743 67.5664C226.743 67.5922 226.74 67.6179 226.739 67.6436C226.74 67.6718 226.743 67.7001 226.743 67.7285C226.743 68.2304 226.609 68.7005 226.377 69.1074V66.1875Z" fill="#EAEAD9"/>
<path d="M396.357 68.749C396.233 68.4328 396.162 68.0889 396.162 67.7285C396.162 67.7001 396.165 67.6718 396.166 67.6436C396.165 67.6179 396.162 67.5922 396.162 67.5664C396.162 67.2056 396.233 66.8615 396.357 66.5449V68.749Z" fill="#EAEAD9"/>
<path d="M298.489 67.6162C298.489 67.5996 298.488 67.583 298.488 67.5664C298.488 66.1586 299.531 64.9968 300.886 64.8057L298.489 67.6162Z" fill="#EAEAD9"/>
<path d="M536.17 64.7793C536.816 64.797 537.408 65.0318 537.872 65.417C537.325 65.2013 536.757 64.9886 536.17 64.7793Z" fill="#EAEAD9"/>
<path d="M18.7959 50.3711C18.8795 50.3796 18.9617 50.3935 19.043 50.4092V56.0479C18.8705 56.0812 18.6929 56.1006 18.5107 56.1006C16.9696 56.1006 15.7199 54.8517 15.7197 53.3105C15.7197 53.2832 15.7228 53.2557 15.7236 53.2285C15.7229 53.2016 15.7197 53.1745 15.7197 53.1475C15.7198 51.6063 16.9696 50.3574 18.5107 50.3574L18.7959 50.3711Z" fill="#EAEAD9"/>
<path d="M77.1162 50.3574C78.6573 50.3576 79.9061 51.6064 79.9062 53.1475C79.9062 53.1722 79.903 53.1971 79.9023 53.2217C79.9033 53.2511 79.9062 53.2809 79.9062 53.3105L79.8926 53.5957C79.7497 55.0028 78.561 56.1005 77.1162 56.1006C75.575 56.1006 74.3253 54.8517 74.3252 53.3105C74.3252 53.2832 74.3283 53.2557 74.3291 53.2285C74.3283 53.2016 74.3252 53.1745 74.3252 53.1475C74.3253 51.6063 75.575 50.3574 77.1162 50.3574Z" fill="#EAEAD9"/>
<path d="M116.796 50.3711C118.203 50.5139 119.302 51.7025 119.302 53.1475C119.302 53.1765 119.298 53.2055 119.297 53.2344C119.298 53.2596 119.302 53.2851 119.302 53.3105C119.302 54.8517 118.052 56.1006 116.511 56.1006C116.456 56.1006 116.402 56.0959 116.348 56.0928C116.294 56.0959 116.24 56.1006 116.186 56.1006C114.644 56.1006 113.395 54.8517 113.395 53.3105C113.395 53.2832 113.398 53.2557 113.398 53.2285C113.398 53.2016 113.395 53.1745 113.395 53.1475C113.395 51.6063 114.644 50.3574 116.186 50.3574L116.348 50.3643C116.402 50.3611 116.456 50.3574 116.511 50.3574L116.796 50.3711Z" fill="#EAEAD9"/>
<path d="M175.401 50.3711C176.094 50.4414 176.709 50.7673 177.158 51.25V55.207C176.649 55.7554 175.924 56.1005 175.116 56.1006C175.061 56.1006 175.007 56.0949 174.953 56.0918C174.899 56.0949 174.845 56.1006 174.79 56.1006C173.249 56.1005 171.999 54.8516 171.999 53.3105C171.999 53.2832 172.002 53.2557 172.003 53.2285C172.002 53.2016 171.999 53.1745 171.999 53.1475C171.999 51.6063 173.249 50.3575 174.79 50.3574L174.953 50.3652C175.007 50.3621 175.061 50.3574 175.116 50.3574L175.401 50.3711Z" fill="#EAEAD9"/>
<path d="M194.937 50.3711C196.344 50.5141 197.441 51.7027 197.441 53.1475C197.441 53.1722 197.438 53.1971 197.438 53.2217C197.438 53.2511 197.441 53.2809 197.441 53.3105C197.441 54.8516 196.192 56.1004 194.651 56.1006C194.596 56.1006 194.542 56.0959 194.487 56.0928C194.434 56.0959 194.38 56.1006 194.325 56.1006C192.784 56.1006 191.534 54.8517 191.534 53.3105C191.534 53.2832 191.537 53.2557 191.538 53.2285C191.537 53.2016 191.534 53.1745 191.534 53.1475C191.534 51.6063 192.784 50.3575 194.325 50.3574L194.487 50.3643C194.542 50.3611 194.596 50.3574 194.651 50.3574L194.937 50.3711Z" fill="#EAEAD9"/>
<path d="M234.006 50.3711C235.413 50.5139 236.512 51.7026 236.512 53.1475C236.512 53.1765 236.508 53.2055 236.507 53.2344C236.508 53.2596 236.512 53.2851 236.512 53.3105C236.512 54.8517 235.262 56.1005 233.721 56.1006C233.666 56.1006 233.612 56.0949 233.558 56.0918C233.504 56.0949 233.449 56.1006 233.395 56.1006C233.322 56.1006 233.251 56.0952 233.181 56.0898C233.113 56.0947 233.045 56.1006 232.977 56.1006C231.435 56.1006 230.186 54.8517 230.186 53.3105C230.186 53.2832 230.189 53.2557 230.189 53.2285C230.189 53.2016 230.186 53.1745 230.186 53.1475C230.186 51.6063 231.435 50.3574 232.977 50.3574C233.047 50.3574 233.116 50.3621 233.186 50.3672C233.255 50.3621 233.324 50.3574 233.395 50.3574L233.558 50.3652C233.612 50.3621 233.666 50.3574 233.721 50.3574L234.006 50.3711Z" fill="#EAEAD9"/>
<path d="M273.075 50.3711C274.483 50.5138 275.581 51.7025 275.581 53.1475C275.581 53.1765 275.577 53.2055 275.576 53.2344C275.577 53.2596 275.581 53.2851 275.581 53.3105C275.581 54.8517 274.331 56.1006 272.79 56.1006C272.664 56.1006 272.54 56.0895 272.418 56.0732C272.413 56.0739 272.408 56.0745 272.402 56.0752V50.3809C272.408 50.3815 272.413 50.3831 272.418 50.3838C272.54 50.3675 272.664 50.3574 272.79 50.3574L273.075 50.3711Z" fill="#EAEAD9"/>
<path d="M292.61 50.3711C294.018 50.5139 295.116 51.7025 295.116 53.1475C295.116 53.1765 295.112 53.2055 295.111 53.2344C295.112 53.2596 295.116 53.2851 295.116 53.3105C295.116 54.8517 293.866 56.1006 292.325 56.1006C292.199 56.1006 292.075 56.0895 291.953 56.0732C291.831 56.0895 291.707 56.1006 291.581 56.1006L291.547 56.0986C291.535 56.0988 291.523 56.1006 291.511 56.1006C289.97 56.1006 288.72 54.8517 288.72 53.3105C288.72 53.2832 288.723 53.2557 288.724 53.2285C288.723 53.2016 288.72 53.1745 288.72 53.1475C288.72 51.6063 289.97 50.3574 291.511 50.3574C291.522 50.3574 291.534 50.3583 291.546 50.3584C291.558 50.3583 291.569 50.3574 291.581 50.3574L291.866 50.3711C291.895 50.3741 291.924 50.3799 291.953 50.3838C292.075 50.3675 292.199 50.3574 292.325 50.3574L292.61 50.3711Z" fill="#EAEAD9"/>
<path d="M312.146 50.3711C313.553 50.5139 314.651 51.7026 314.651 53.1475C314.651 53.1765 314.647 53.2055 314.646 53.2344C314.647 53.2596 314.651 53.2851 314.651 53.3105C314.651 54.8517 313.402 56.1006 311.86 56.1006C311.734 56.1006 311.61 56.0895 311.488 56.0732C311.366 56.0895 311.243 56.1006 311.116 56.1006L311.082 56.0986C311.07 56.0988 311.058 56.1006 311.046 56.1006C309.505 56.1006 308.255 54.8517 308.255 53.3105C308.255 53.2832 308.258 53.2557 308.259 53.2285C308.258 53.2016 308.255 53.1745 308.255 53.1475C308.255 51.6063 309.505 50.3574 311.046 50.3574C311.058 50.3574 311.069 50.3583 311.081 50.3584C311.093 50.3583 311.105 50.3574 311.116 50.3574C311.242 50.3574 311.366 50.3675 311.488 50.3838C311.61 50.3675 311.734 50.3574 311.86 50.3574L312.146 50.3711Z" fill="#EAEAD9"/>
<path d="M389.866 50.3711C391.273 50.514 392.372 51.7026 392.372 53.1475C392.372 53.1765 392.368 53.2055 392.367 53.2344C392.368 53.2596 392.372 53.2851 392.372 53.3105C392.372 54.8516 391.122 56.1005 389.581 56.1006C389.57 56.1006 389.559 56.0988 389.548 56.0986C389.536 56.0988 389.523 56.1006 389.511 56.1006C389.465 56.1006 389.42 56.0959 389.375 56.0938C389.335 56.0954 389.295 56.1006 389.255 56.1006L389.221 56.0986C389.209 56.0988 389.197 56.1006 389.186 56.1006C387.644 56.1006 386.395 54.8517 386.395 53.3105C386.395 53.2832 386.398 53.2557 386.398 53.2285C386.398 53.2016 386.395 53.1745 386.395 53.1475C386.395 51.6063 387.644 50.3574 389.186 50.3574C389.197 50.3574 389.208 50.3583 389.22 50.3584C389.231 50.3583 389.243 50.3574 389.255 50.3574C389.298 50.3574 389.34 50.3614 389.383 50.3633C389.425 50.3614 389.468 50.3574 389.511 50.3574C389.522 50.3574 389.534 50.3583 389.545 50.3584C389.557 50.3582 389.569 50.3574 389.581 50.3574L389.866 50.3711Z" fill="#EAEAD9"/>
<path d="M448.471 50.3711C449.878 50.5139 450.976 51.7026 450.977 53.1475C450.977 53.1765 450.973 53.2055 450.972 53.2344C450.972 53.2596 450.977 53.2851 450.977 53.3105C450.976 54.8517 449.727 56.1006 448.186 56.1006C448.174 56.1006 448.162 56.0988 448.15 56.0986C448.139 56.0988 448.128 56.1006 448.116 56.1006C448.073 56.1006 448.03 56.0957 447.987 56.0938C447.945 56.0956 447.903 56.1006 447.86 56.1006L447.826 56.0986C447.814 56.0988 447.802 56.1006 447.79 56.1006C446.345 56.1005 445.157 55.0029 445.014 53.5957L445 53.3105C445 53.2809 445.003 53.2511 445.004 53.2217C445.003 53.1971 445 53.1722 445 53.1475C445 51.6063 446.249 50.3575 447.79 50.3574C447.802 50.3574 447.814 50.3583 447.825 50.3584C447.837 50.3583 447.849 50.3574 447.86 50.3574L447.996 50.3623C448.036 50.3606 448.076 50.3574 448.116 50.3574C448.127 50.3574 448.138 50.3583 448.148 50.3584C448.161 50.3582 448.173 50.3574 448.186 50.3574L448.471 50.3711Z" fill="#EAEAD9"/>
<path d="M526.61 50.3711C528.018 50.5139 529.116 51.7025 529.116 53.1475C529.116 53.1765 529.112 53.2055 529.111 53.2344C529.112 53.2596 529.116 53.2851 529.116 53.3105C529.116 54.8517 527.866 56.1006 526.325 56.1006C526.313 56.1006 526.302 56.0988 526.29 56.0986C526.278 56.0988 526.267 56.1006 526.255 56.1006C524.714 56.1006 523.464 54.8517 523.464 53.3105C523.464 53.2832 523.467 53.2557 523.468 53.2285C523.467 53.2016 523.464 53.1745 523.464 53.1475C523.464 51.6063 524.714 50.3574 526.255 50.3574C526.267 50.3574 526.278 50.3583 526.29 50.3584C526.302 50.3583 526.313 50.3574 526.325 50.3574L526.61 50.3711Z" fill="#EAEAD9"/>
<path d="M546.146 50.3711C547.553 50.5139 548.651 51.7026 548.651 53.1475C548.651 53.1765 548.647 53.2055 548.646 53.2344C548.647 53.2596 548.651 53.2851 548.651 53.3105C548.651 54.8517 547.402 56.1006 545.86 56.1006C545.849 56.1006 545.837 56.0988 545.825 56.0986C545.814 56.0988 545.802 56.1006 545.79 56.1006C544.249 56.1005 543 54.8516 543 53.3105C543 53.2809 543.003 53.2511 543.004 53.2217C543.003 53.1971 543 53.1722 543 53.1475C543 51.6064 544.249 50.3575 545.79 50.3574L545.825 50.3584C545.837 50.3583 545.849 50.3574 545.86 50.3574L546.146 50.3711Z" fill="#EAEAD9"/>
<path d="M507.075 50.3711C508.483 50.5138 509.581 51.7025 509.581 53.1475C509.581 53.1765 509.577 53.2055 509.576 53.2344C509.577 53.2596 509.581 53.2851 509.581 53.3105C509.581 54.7156 508.542 55.874 507.19 56.0684C506.001 55.5224 504.872 54.9475 503.803 54.3428C503.709 54.1076 503.645 53.8573 503.618 53.5957L503.604 53.3105C503.604 53.2809 503.607 53.2511 503.608 53.2217C503.608 53.1971 503.604 53.1722 503.604 53.1475C503.605 51.6064 504.853 50.3576 506.395 50.3574L506.563 50.3643C506.616 50.3614 506.668 50.3574 506.721 50.3574C506.732 50.3574 506.743 50.3583 506.754 50.3584C506.766 50.3582 506.778 50.3574 506.79 50.3574L507.075 50.3711Z" fill="#EAEAD9"/>
<path d="M212.926 55.9365C211.845 55.5519 211.069 54.5234 211.069 53.3105C211.069 53.2891 211.072 53.2674 211.072 53.2461L212.926 55.9365Z" fill="#EAEAD9"/>
<path d="M0 50.5527C1.03435 50.9611 1.76652 51.968 1.7666 53.1475C1.7666 53.1709 1.76327 53.1944 1.7627 53.2178C1.7637 53.2485 1.76758 53.2796 1.76758 53.3105C1.76745 54.49 1.03426 55.4959 0 55.9043V50.5527Z" fill="#EAEAD9"/>
<path d="M158.115 51.9834C158.278 52.338 158.372 52.7316 158.372 53.1475C158.372 53.1765 158.368 53.2055 158.367 53.2344C158.368 53.2596 158.372 53.2851 158.372 53.3105C158.372 53.7261 158.278 54.1193 158.115 54.4736V51.9834Z" fill="#EAEAD9"/>
<path d="M8.74316 35.7754C10.2844 35.7754 11.5342 37.0251 11.5342 38.5664C11.5342 38.5913 11.5299 38.6159 11.5293 38.6406C11.5302 38.6698 11.5342 38.6991 11.5342 38.7285C11.5342 40.2698 10.2844 41.5195 8.74316 41.5195C7.29849 41.5194 6.10983 40.4216 5.9668 39.0146L5.95312 38.7285C5.95313 38.7014 5.95528 38.6744 5.95605 38.6475C5.95528 38.6205 5.95313 38.5935 5.95312 38.5664C5.95312 37.0253 7.20206 35.7756 8.74316 35.7754Z" fill="#EAEAD9"/>
<path d="M67.3486 35.7754C68.8897 35.7757 70.1387 37.0253 70.1387 38.5664C70.1387 38.5913 70.1344 38.6159 70.1338 38.6406C70.1347 38.6698 70.1387 38.6991 70.1387 38.7285C70.1387 40.2696 68.8897 41.5193 67.3486 41.5195C67.2734 41.5195 67.1987 41.5136 67.125 41.5078C66.7196 39.6928 66.2177 37.9829 65.6211 36.377C66.0964 36.0015 66.6959 35.7754 67.3486 35.7754Z" fill="#EAEAD9"/>
<path d="M126.278 35.7754C127.82 35.7754 129.069 37.0251 129.069 38.5664C129.069 38.5913 129.065 38.6159 129.064 38.6406C129.065 38.6698 129.069 38.6991 129.069 38.7285L129.055 39.0146C128.912 40.4217 127.723 41.5195 126.278 41.5195C126.222 41.5195 126.167 41.514 126.111 41.5107C126.059 41.5137 126.006 41.5195 125.953 41.5195C124.412 41.5195 123.162 40.2698 123.162 38.7285C123.162 38.7014 123.165 38.6744 123.166 38.6475C123.165 38.6205 123.162 38.5935 123.162 38.5664C123.162 37.0251 124.412 35.7754 125.953 35.7754C126.008 35.7754 126.062 35.7801 126.115 35.7832C126.169 35.7801 126.224 35.7754 126.278 35.7754Z" fill="#EAEAD9"/>
<path d="M165.349 35.7754C166.89 35.7756 168.139 37.0253 168.139 38.5664C168.139 38.5913 168.134 38.6159 168.134 38.6406C168.135 38.6698 168.139 38.6991 168.139 38.7285C168.139 40.2696 166.89 41.5193 165.349 41.5195L165.181 41.5107C165.128 41.5137 165.075 41.5195 165.022 41.5195C163.481 41.5193 162.232 40.2696 162.232 38.7285C162.232 38.7014 162.236 38.6744 162.236 38.6475C162.236 38.6205 162.232 38.5935 162.232 38.5664C162.232 37.0253 163.481 35.7756 165.022 35.7754C165.077 35.7754 165.132 35.7801 165.186 35.7832C165.239 35.7801 165.294 35.7754 165.349 35.7754Z" fill="#EAEAD9"/>
<path d="M184.883 35.7754C186.424 35.7755 187.674 37.0252 187.674 38.5664C187.674 38.5913 187.67 38.6159 187.669 38.6406C187.67 38.6698 187.674 38.6991 187.674 38.7285L187.659 39.0146C187.516 40.4217 186.328 41.5195 184.883 41.5195L184.716 41.5107C184.663 41.5137 184.611 41.5195 184.558 41.5195C183.016 41.5195 181.767 40.2698 181.767 38.7285C181.767 38.7014 181.77 38.6744 181.771 38.6475C181.77 38.6205 181.767 38.5935 181.767 38.5664C181.767 37.0251 183.016 35.7754 184.558 35.7754C184.612 35.7754 184.666 35.7801 184.72 35.7832C184.774 35.7801 184.828 35.7754 184.883 35.7754Z" fill="#EAEAD9"/>
<path d="M243.488 35.7754C244.167 35.7755 244.79 36.0186 245.273 36.4219V40.8721C244.79 41.2757 244.168 41.5194 243.488 41.5195C243.361 41.5195 243.236 41.5077 243.113 41.4912C242.992 41.5073 242.869 41.5195 242.743 41.5195C241.202 41.5193 239.953 40.2697 239.953 38.7285C239.953 38.7014 239.955 38.6744 239.956 38.6475C239.955 38.6205 239.953 38.5935 239.953 38.5664C239.953 37.0253 241.202 35.7756 242.743 35.7754C242.869 35.7754 242.994 35.7865 243.115 35.8027C243.237 35.7864 243.362 35.7754 243.488 35.7754Z" fill="#EAEAD9"/>
<path d="M282.558 35.7754C284.099 35.7755 285.349 37.0252 285.349 38.5664C285.349 38.5913 285.344 38.6159 285.344 38.6406C285.345 38.6698 285.349 38.6991 285.349 38.7285C285.349 40.2697 284.099 41.5194 282.558 41.5195C282.431 41.5195 282.306 41.5076 282.184 41.4912C282.062 41.5073 281.939 41.5195 281.813 41.5195L281.778 41.5176C281.767 41.5177 281.755 41.5195 281.743 41.5195C280.298 41.5194 279.11 40.4216 278.967 39.0146L278.953 38.7285C278.953 38.7014 278.955 38.6744 278.956 38.6475C278.955 38.6205 278.953 38.5935 278.953 38.5664C278.953 37.0253 280.202 35.7756 281.743 35.7754C281.755 35.7754 281.767 35.7762 281.778 35.7764C281.79 35.7762 281.802 35.7754 281.813 35.7754C281.94 35.7754 282.064 35.7865 282.186 35.8027C282.307 35.7865 282.431 35.7754 282.558 35.7754Z" fill="#EAEAD9"/>
<path d="M304.291 36.8516C304.661 37.3249 304.883 37.9193 304.883 38.5664C304.883 38.5913 304.879 38.6159 304.878 38.6406C304.879 38.6698 304.883 38.6991 304.883 38.7285L304.868 39.0146C304.725 40.4217 303.537 41.5195 302.092 41.5195C301.965 41.5195 301.84 41.5076 301.718 41.4912C301.597 41.5072 301.474 41.5195 301.349 41.5195L301.313 41.5176C301.302 41.5177 301.29 41.5195 301.278 41.5195C300.984 41.5195 300.701 41.474 300.435 41.3896L304.291 36.8516Z" fill="#EAEAD9"/>
<path d="M321.628 35.7754C323.169 35.7756 324.418 37.0253 324.418 38.5664C324.418 38.5913 324.415 38.6159 324.414 38.6406C324.415 38.6698 324.418 38.6991 324.418 38.7285C324.418 40.2697 323.169 41.5193 321.628 41.5195C321.501 41.5195 321.376 41.5077 321.253 41.4912C321.132 41.5073 321.008 41.5195 320.883 41.5195L320.848 41.5176C320.836 41.5177 320.825 41.5195 320.813 41.5195C319.272 41.5195 318.022 40.2698 318.022 38.7285C318.022 38.7014 318.026 38.6744 318.026 38.6475C318.026 38.6205 318.022 38.5935 318.022 38.5664C318.022 37.0251 319.272 35.7754 320.813 35.7754C320.825 35.7754 320.836 35.7762 320.848 35.7764C320.859 35.7762 320.871 35.7754 320.883 35.7754C321.009 35.7754 321.133 35.7865 321.255 35.8027C321.377 35.7864 321.501 35.7754 321.628 35.7754Z" fill="#EAEAD9"/>
<path d="M379.813 35.7754C381.355 35.7756 382.604 37.0253 382.604 38.5664C382.604 38.5913 382.6 38.6159 382.6 38.6406C382.601 38.6698 382.604 38.6991 382.604 38.7285C382.604 40.2696 381.355 41.5193 379.813 41.5195C379.802 41.5195 379.79 41.5177 379.778 41.5176C379.767 41.5177 379.755 41.5195 379.743 41.5195C379.699 41.5195 379.654 41.5148 379.61 41.5127C379.57 41.5144 379.529 41.5195 379.488 41.5195L379.453 41.5176C379.441 41.5177 379.43 41.5195 379.418 41.5195C378.578 41.5195 377.826 41.1462 377.314 40.5586V36.7354C377.826 36.1481 378.578 35.7754 379.418 35.7754C379.429 35.7754 379.441 35.7762 379.452 35.7764C379.464 35.7762 379.476 35.7754 379.488 35.7754C379.532 35.7754 379.576 35.7792 379.619 35.7812C379.66 35.7794 379.702 35.7754 379.743 35.7754C379.754 35.7754 379.765 35.7762 379.776 35.7764C379.789 35.7762 379.801 35.7754 379.813 35.7754Z" fill="#EAEAD9"/>
<path d="M457.953 35.7754C459.494 35.7756 460.743 37.0252 460.743 38.5664C460.743 38.5913 460.74 38.6159 460.739 38.6406C460.74 38.6698 460.743 38.6991 460.743 38.7285C460.743 40.2697 459.494 41.5194 457.953 41.5195C457.941 41.5195 457.93 41.5177 457.918 41.5176C457.906 41.5177 457.895 41.5195 457.883 41.5195C457.838 41.5195 457.794 41.5148 457.75 41.5127C457.709 41.5144 457.669 41.5195 457.628 41.5195L457.593 41.5176C457.581 41.5177 457.569 41.5195 457.558 41.5195C456.016 41.5195 454.767 40.2698 454.767 38.7285C454.767 38.7014 454.77 38.6744 454.771 38.6475C454.77 38.6205 454.767 38.5935 454.767 38.5664C454.767 37.0251 456.016 35.7754 457.558 35.7754C457.569 35.7754 457.58 35.7762 457.592 35.7764C457.604 35.7762 457.616 35.7754 457.628 35.7754C457.672 35.7754 457.715 35.7792 457.759 35.7812C457.8 35.7795 457.841 35.7754 457.883 35.7754C457.894 35.7754 457.905 35.7762 457.916 35.7764C457.928 35.7762 457.941 35.7754 457.953 35.7754Z" fill="#EAEAD9"/>
<path d="M497.023 35.7754C498.564 35.7757 499.813 37.0253 499.813 38.5664C499.813 38.5913 499.809 38.6159 499.809 38.6406C499.81 38.6698 499.813 38.6991 499.813 38.7285C499.813 40.2696 498.564 41.5193 497.023 41.5195C497.012 41.5195 497 41.5177 496.988 41.5176C496.977 41.5177 496.965 41.5195 496.953 41.5195C496.896 41.5195 496.839 41.5141 496.783 41.5107C496.732 41.5136 496.68 41.5195 496.628 41.5195C495.087 41.5195 493.837 40.2698 493.837 38.7285C493.837 38.7014 493.84 38.6744 493.841 38.6475C493.84 38.6205 493.837 38.5935 493.837 38.5664C493.837 37.0251 495.087 35.7754 496.628 35.7754C496.683 35.7754 496.738 35.78 496.793 35.7832C496.846 35.7802 496.899 35.7754 496.953 35.7754C496.965 35.7754 496.976 35.7762 496.987 35.7764C496.999 35.7762 497.012 35.7754 497.023 35.7754Z" fill="#EAEAD9"/>
<path d="M513.94 39.4775C514.989 40.1615 516.131 40.8019 517.368 41.3984C517.112 41.4763 516.84 41.5195 516.558 41.5195C516.546 41.5195 516.534 41.5177 516.522 41.5176C516.511 41.5177 516.5 41.5195 516.488 41.5195C515.166 41.5195 514.06 40.5991 513.772 39.3643C513.828 39.4018 513.884 39.4405 513.94 39.4775Z" fill="#EAEAD9"/>
<path d="M85.2266 36.3232C85.6764 37.9911 86.0578 39.7067 86.3711 41.4697C85.0744 41.2292 84.0918 40.0948 84.0918 38.7285C84.0918 38.7014 84.0949 38.6744 84.0957 38.6475C84.0949 38.6205 84.0918 38.5935 84.0918 38.5664C84.0918 37.6459 84.5393 36.8316 85.2266 36.3232Z" fill="#EAEAD9"/>
<path d="M202.761 41.1816C201.996 40.7655 201.45 40.0019 201.329 39.1025L202.761 41.1816Z" fill="#EAEAD9"/>
<path d="M226.377 37.1875C226.609 37.5945 226.743 38.0645 226.743 38.5664C226.743 38.5913 226.74 38.6159 226.739 38.6406C226.74 38.6698 226.743 38.6991 226.743 38.7285C226.743 39.2304 226.609 39.7005 226.377 40.1074V37.1875Z" fill="#EAEAD9"/>
<path d="M396.357 39.749C396.233 39.4328 396.162 39.0889 396.162 38.7285C396.162 38.7014 396.165 38.6744 396.166 38.6475C396.165 38.6205 396.162 38.5935 396.162 38.5664C396.162 38.2056 396.233 37.8615 396.357 37.5449V39.749Z" fill="#EAEAD9"/>
<path d="M18.5107 21.3574C18.6928 21.3574 18.8706 21.3759 19.043 21.4092V27.0479C18.8705 27.0812 18.6929 27.1006 18.5107 27.1006C16.9696 27.1006 15.7199 25.8517 15.7197 24.3105C15.7197 24.2832 15.7228 24.2557 15.7236 24.2285C15.7229 24.2016 15.7197 24.1745 15.7197 24.1475C15.7198 22.6063 16.9696 21.3574 18.5107 21.3574Z" fill="#EAEAD9"/>
<path d="M77.1162 21.3574C77.832 21.3575 78.4826 21.6291 78.9766 22.0723C79.257 22.5059 79.5315 22.9459 79.7998 23.3926C79.8673 23.6329 79.9062 23.8855 79.9062 24.1475C79.9062 24.1722 79.903 24.1971 79.9023 24.2217C79.9033 24.2511 79.9062 24.2809 79.9062 24.3105C79.9061 25.8516 78.6573 27.1004 77.1162 27.1006C75.575 27.1006 74.3253 25.8517 74.3252 24.3105C74.3252 24.2832 74.3283 24.2557 74.3291 24.2285C74.3283 24.2016 74.3252 24.1745 74.3252 24.1475C74.3253 22.6063 75.575 21.3574 77.1162 21.3574Z" fill="#EAEAD9"/>
<path d="M116.511 21.3574C118.052 21.3574 119.302 22.6063 119.302 24.1475C119.302 24.1722 119.298 24.1971 119.297 24.2217C119.298 24.2511 119.302 24.2809 119.302 24.3105C119.302 25.8517 118.052 27.1006 116.511 27.1006C116.456 27.1006 116.402 27.0959 116.348 27.0928C116.294 27.0959 116.24 27.1006 116.186 27.1006C114.644 27.1006 113.395 25.8517 113.395 24.3105C113.395 24.2832 113.398 24.2557 113.398 24.2285C113.398 24.2016 113.395 24.1745 113.395 24.1475C113.395 22.6063 114.644 21.3574 116.186 21.3574C116.24 21.3574 116.294 21.3612 116.348 21.3643C116.402 21.3611 116.456 21.3574 116.511 21.3574Z" fill="#EAEAD9"/>
<path d="M175.116 21.3574C176.657 21.3576 177.906 22.6064 177.906 24.1475C177.906 24.1716 177.903 24.1957 177.902 24.2197C177.903 24.2498 177.906 24.2802 177.906 24.3105C177.906 25.8516 176.657 27.1005 175.116 27.1006L174.943 27.0918C174.893 27.0945 174.842 27.1006 174.79 27.1006C173.249 27.1005 171.999 25.8516 171.999 24.3105C171.999 24.2832 172.002 24.2557 172.003 24.2285C172.002 24.2016 171.999 24.1745 171.999 24.1475C171.999 22.6063 173.249 21.3575 174.79 21.3574C174.845 21.3574 174.899 21.3621 174.953 21.3652C175.007 21.3621 175.061 21.3574 175.116 21.3574Z" fill="#EAEAD9"/>
<path d="M233.721 21.3574C235.262 21.3575 236.512 22.6063 236.512 24.1475C236.512 24.1722 236.507 24.1971 236.507 24.2217C236.508 24.2511 236.512 24.2809 236.512 24.3105L236.497 24.5957C236.354 26.0029 235.166 27.1005 233.721 27.1006L233.548 27.0918C233.497 27.0945 233.446 27.1006 233.395 27.1006C233.325 27.1006 233.257 27.0948 233.188 27.0898C233.118 27.0951 233.048 27.1006 232.977 27.1006C231.435 27.1006 230.186 25.8517 230.186 24.3105C230.186 24.2832 230.189 24.2557 230.189 24.2285C230.189 24.2016 230.186 24.1745 230.186 24.1475C230.186 22.6063 231.435 21.3574 232.977 21.3574C233.047 21.3574 233.116 21.3621 233.186 21.3672C233.255 21.3621 233.324 21.3574 233.395 21.3574C233.449 21.3574 233.504 21.3621 233.558 21.3652C233.612 21.3621 233.666 21.3574 233.721 21.3574Z" fill="#EAEAD9"/>
<path d="M272.79 21.3574C274.331 21.3574 275.581 22.6063 275.581 24.1475C275.581 24.1722 275.577 24.1971 275.576 24.2217C275.577 24.2511 275.581 24.2809 275.581 24.3105C275.581 25.8517 274.331 27.1006 272.79 27.1006C272.663 27.1006 272.539 27.0896 272.417 27.0732C272.412 27.0739 272.407 27.0746 272.402 27.0752V21.3809C272.408 21.3815 272.413 21.3831 272.418 21.3838C272.54 21.3675 272.664 21.3574 272.79 21.3574Z" fill="#EAEAD9"/>
<path d="M331.395 21.3574C332.936 21.3574 334.185 22.6063 334.186 24.1475C334.186 24.1722 334.181 24.1971 334.181 24.2217C334.182 24.2511 334.186 24.2809 334.186 24.3105L334.171 24.5957C334.028 26.0029 332.839 27.1006 331.395 27.1006C331.322 27.1006 331.251 27.0952 331.181 27.0898C331.113 27.0947 331.045 27.1006 330.977 27.1006L330.813 27.0928C330.76 27.0959 330.706 27.1006 330.651 27.1006L330.616 27.0986C330.605 27.0988 330.593 27.1006 330.581 27.1006C329.04 27.1006 327.79 25.8517 327.79 24.3105C327.79 24.2832 327.793 24.2557 327.794 24.2285C327.793 24.2016 327.79 24.1745 327.79 24.1475C327.79 22.6063 329.04 21.3574 330.581 21.3574C330.592 21.3574 330.604 21.3583 330.615 21.3584C330.627 21.3582 330.639 21.3574 330.651 21.3574C330.706 21.3574 330.76 21.3612 330.813 21.3643C330.867 21.3612 330.922 21.3574 330.977 21.3574C331.047 21.3574 331.116 21.3621 331.186 21.3672C331.255 21.3621 331.324 21.3574 331.395 21.3574Z" fill="#EAEAD9"/>
<path d="M389.581 21.3574C391.122 21.3575 392.372 22.6063 392.372 24.1475C392.372 24.1722 392.368 24.1971 392.367 24.2217C392.368 24.2511 392.372 24.2809 392.372 24.3105L392.357 24.5957C392.214 26.0029 391.026 27.1005 389.581 27.1006L389.547 27.0986C389.535 27.0988 389.523 27.1006 389.511 27.1006C389.464 27.1006 389.417 27.096 389.371 27.0938C389.332 27.0953 389.294 27.1006 389.255 27.1006L389.221 27.0986C389.209 27.0988 389.197 27.1006 389.186 27.1006C387.644 27.1006 386.395 25.8517 386.395 24.3105C386.395 24.2832 386.398 24.2557 386.398 24.2285C386.398 24.2016 386.395 24.1745 386.395 24.1475C386.395 22.6063 387.644 21.3574 389.186 21.3574C389.197 21.3574 389.208 21.3583 389.22 21.3584C389.231 21.3583 389.243 21.3574 389.255 21.3574C389.298 21.3574 389.34 21.3614 389.383 21.3633C389.425 21.3614 389.468 21.3574 389.511 21.3574C389.522 21.3574 389.534 21.3583 389.545 21.3584C389.557 21.3582 389.569 21.3574 389.581 21.3574Z" fill="#EAEAD9"/>
<path d="M448.186 21.3574C449.727 21.3574 450.976 22.6063 450.977 24.1475C450.977 24.1722 450.972 24.1971 450.972 24.2217C450.973 24.2511 450.977 24.2809 450.977 24.3105L450.962 24.5957C450.819 26.0029 449.63 27.1006 448.186 27.1006C448.174 27.1006 448.163 27.0988 448.151 27.0986C448.14 27.0988 448.128 27.1006 448.116 27.1006C448.071 27.1006 448.025 27.0959 447.98 27.0938C447.941 27.0954 447.901 27.1006 447.86 27.1006L447.826 27.0986C447.814 27.0988 447.802 27.1006 447.79 27.1006C446.249 27.1005 445 25.8516 445 24.3105C445 24.2802 445.003 24.2498 445.004 24.2197C445.003 24.1957 445 24.1716 445 24.1475C445 22.6063 446.249 21.3575 447.79 21.3574C447.802 21.3574 447.814 21.3583 447.825 21.3584C447.837 21.3583 447.849 21.3574 447.86 21.3574C447.906 21.3574 447.951 21.3601 447.996 21.3623C448.036 21.3606 448.076 21.3574 448.116 21.3574C448.127 21.3574 448.138 21.3583 448.148 21.3584C448.161 21.3582 448.173 21.3574 448.186 21.3574Z" fill="#EAEAD9"/>
<path d="M506.79 21.3574C508.331 21.3574 509.581 22.6063 509.581 24.1475C509.581 24.1722 509.577 24.1971 509.576 24.2217C509.577 24.2511 509.581 24.2809 509.581 24.3105L509.566 24.5957C509.423 26.0029 508.235 27.1006 506.79 27.1006C506.779 27.1006 506.767 27.0988 506.756 27.0986C506.744 27.0988 506.732 27.1006 506.721 27.1006C506.662 27.1006 506.604 27.0954 506.546 27.0918C506.496 27.0945 506.445 27.1006 506.395 27.1006C504.853 27.1004 503.605 25.8516 503.604 24.3105C503.604 24.2802 503.607 24.2498 503.608 24.2197C503.608 24.1957 503.604 24.1716 503.604 24.1475C503.605 22.6064 504.853 21.3576 506.395 21.3574C506.451 21.3574 506.508 21.3609 506.563 21.3643C506.616 21.3614 506.668 21.3574 506.721 21.3574C506.732 21.3574 506.743 21.3583 506.754 21.3584C506.766 21.3582 506.778 21.3574 506.79 21.3574Z" fill="#EAEAD9"/>
<path d="M564.971 21.3809C565.595 23.1669 566.039 25.0215 566.306 26.9453C566.02 27.0441 565.714 27.1006 565.395 27.1006C565.383 27.1006 565.372 27.0988 565.36 27.0986C565.349 27.0988 565.337 27.1006 565.325 27.1006C563.784 27.1006 562.534 25.8517 562.534 24.3105C562.534 24.2832 562.537 24.2557 562.538 24.2285C562.537 24.2016 562.534 24.1745 562.534 24.1475C562.534 22.7265 563.597 21.5551 564.971 21.3809Z" fill="#EAEAD9"/>
<path d="M291.445 27.0967C289.934 27.0619 288.72 25.8298 288.72 24.3105C288.72 24.2832 288.723 24.2557 288.724 24.2285C288.723 24.2016 288.72 24.1745 288.72 24.1475C288.72 22.6282 289.934 21.3952 291.445 21.3604V27.0967Z" fill="#EAEAD9"/>
<path d="M314.621 24.6963C314.471 25.7788 313.703 26.6622 312.683 26.9766L314.621 24.6963Z" fill="#EAEAD9"/>
<path d="M0 21.5527C1.03435 21.9611 1.76652 22.968 1.7666 24.1475C1.7666 24.1709 1.76327 24.1944 1.7627 24.2178C1.7637 24.2485 1.76758 24.2796 1.76758 24.3105L1.75293 24.5957C1.64575 25.6506 0.949847 26.5292 0 26.9043V21.5527Z" fill="#EAEAD9"/>
<path d="M545.86 21.3574C547.402 21.3574 548.651 22.6063 548.651 24.1475C548.651 24.1722 548.647 24.1971 548.646 24.2217C548.647 24.2511 548.651 24.2809 548.651 24.3105L548.637 24.5957C548.55 25.4543 548.071 26.1953 547.385 26.6445C546.697 24.8205 545.656 23.2089 544.268 21.8096C544.705 21.5238 545.228 21.3575 545.79 21.3574C545.802 21.3574 545.814 21.3583 545.825 21.3584C545.837 21.3583 545.849 21.3574 545.86 21.3574Z" fill="#EAEAD9"/>
<path d="M192.697 26.5742C192.18 26.2015 191.796 25.6573 191.629 25.0234L192.697 26.5742Z" fill="#EAEAD9"/>
<path d="M57.5811 21.3574C59.1222 21.3575 60.372 22.6063 60.3721 24.1475C60.3721 24.1722 60.3678 24.1971 60.3672 24.2217C60.3681 24.2511 60.3721 24.2809 60.3721 24.3105C60.372 25.1358 60.0109 25.8749 59.4414 26.3857C58.1242 25.0699 56.6732 23.908 55.0869 22.8994C55.5453 21.9854 56.4889 21.3574 57.5811 21.3574Z" fill="#EAEAD9"/>
<path d="M158.115 22.9834C158.278 23.338 158.372 23.7316 158.372 24.1475C158.372 24.1722 158.368 24.1971 158.367 24.2217C158.368 24.2511 158.372 24.2809 158.372 24.3105L158.357 24.5957C158.326 24.9067 158.24 25.2014 158.115 25.4736V22.9834Z" fill="#EAEAD9"/>
<path d="M8.74316 6.93848C10.2843 6.93848 11.5339 8.18747 11.5342 9.72852C11.5342 11.2698 10.2844 12.5195 8.74316 12.5195C7.20206 12.5193 5.95312 11.2697 5.95312 9.72852C5.95337 8.18758 7.20221 6.93866 8.74316 6.93848Z" fill="#EAEAD9"/>
<path d="M28.2783 6.93848C29.8194 6.93848 31.0691 8.18747 31.0693 9.72852C31.0693 11.2698 29.8196 12.5195 28.2783 12.5195C26.7372 12.5194 25.4883 11.2697 25.4883 9.72852C25.4885 8.18755 26.7373 6.93861 28.2783 6.93848Z" fill="#EAEAD9"/>
<path d="M47.8135 6.93848C49.3544 6.93868 50.6033 8.18759 50.6035 9.72852C50.6035 11.2696 49.3546 12.5193 47.8135 12.5195C46.2722 12.5195 45.0225 11.2698 45.0225 9.72852C45.0227 8.18747 46.2724 6.93848 47.8135 6.93848Z" fill="#EAEAD9"/>
<path d="M64.8662 8.45605C66.4737 9.411 67.9958 10.4514 69.4346 11.5771C68.9234 12.1538 68.1798 12.5194 67.3486 12.5195C65.8074 12.5195 64.5576 11.2698 64.5576 9.72852C64.5577 9.26979 64.67 8.83781 64.8662 8.45605Z" fill="#EAEAD9"/>
<path d="M126.278 6.77539C127.82 6.77539 129.069 8.02515 129.069 9.56641C129.069 9.59355 129.065 9.6205 129.064 9.64746C129.065 9.67442 129.069 9.70137 129.069 9.72852C129.069 11.2698 127.82 12.5195 126.278 12.5195C126.223 12.5195 126.169 12.5139 126.115 12.5107C126.062 12.5138 126.008 12.5195 125.953 12.5195C124.412 12.5195 123.162 11.2698 123.162 9.72852C123.162 8.56538 123.874 7.56839 124.886 7.14941C125.296 6.9126 125.771 6.77543 126.278 6.77539Z" fill="#EAEAD9"/>
<path d="M165.349 6.77539C166.89 6.77565 168.139 8.0253 168.139 9.56641C168.139 9.59355 168.135 9.6205 168.134 9.64746C168.135 9.67442 168.139 9.70137 168.139 9.72852C168.139 11.2696 166.89 12.5193 165.349 12.5195C165.294 12.5195 165.239 12.5138 165.186 12.5107C165.132 12.5138 165.077 12.5195 165.022 12.5195C163.481 12.5193 162.232 11.2696 162.232 9.72852C162.233 8.56609 162.943 7.56982 163.954 7.15039C164.365 6.91305 164.84 6.77539 165.349 6.77539Z" fill="#EAEAD9"/>
<path d="M243.488 6.77539C244.167 6.77549 244.79 7.01855 245.273 7.42188V11.8721C244.79 12.2757 244.168 12.5194 243.488 12.5195C243.362 12.5195 243.237 12.5075 243.115 12.4912C242.993 12.5074 242.869 12.5195 242.743 12.5195C241.202 12.5193 239.953 11.2697 239.953 9.72852C239.953 8.26093 241.086 7.06057 242.525 6.94922C242.826 6.83873 243.15 6.77539 243.488 6.77539Z" fill="#EAEAD9"/>
<path d="M282.558 6.77539C284.099 6.77547 285.349 8.0252 285.349 9.56641C285.349 9.59355 285.345 9.62051 285.344 9.64746C285.345 9.67442 285.349 9.70137 285.349 9.72852C285.349 11.2697 284.099 12.5194 282.558 12.5195C282.431 12.5195 282.307 12.5075 282.186 12.4912C282.064 12.5075 281.94 12.5195 281.813 12.5195C281.802 12.5195 281.79 12.5177 281.778 12.5176C281.767 12.5177 281.755 12.5195 281.743 12.5195C280.202 12.5193 278.953 11.2697 278.953 9.72852C278.953 8.23348 280.129 7.01685 281.606 6.94531C281.904 6.83747 282.223 6.77539 282.558 6.77539Z" fill="#EAEAD9"/>
<path d="M340.743 6.77539C342.284 6.77539 343.534 8.02515 343.534 9.56641C343.534 9.59355 343.53 9.6205 343.529 9.64746C343.53 9.67442 343.534 9.70137 343.534 9.72852C343.534 11.2698 342.284 12.5195 340.743 12.5195C340.688 12.5195 340.634 12.5139 340.58 12.5107C340.526 12.5138 340.472 12.5195 340.418 12.5195C340.406 12.5195 340.394 12.5177 340.383 12.5176C340.371 12.5177 340.36 12.5195 340.349 12.5195C338.807 12.5195 337.558 11.2698 337.558 9.72852C337.558 8.48239 338.374 7.42664 339.502 7.06836C339.876 6.88208 340.297 6.77544 340.743 6.77539Z" fill="#EAEAD9"/>
<path d="M379.813 6.77539C381.355 6.77561 382.604 8.02528 382.604 9.56641C382.604 9.59355 382.6 9.62051 382.6 9.64746C382.6 9.67441 382.604 9.70138 382.604 9.72852C382.604 11.2696 381.355 12.5193 379.813 12.5195C379.802 12.5195 379.79 12.5177 379.778 12.5176C379.767 12.5177 379.755 12.5195 379.743 12.5195C379.699 12.5195 379.655 12.5147 379.611 12.5127C379.57 12.5145 379.53 12.5195 379.488 12.5195C379.476 12.5195 379.464 12.5177 379.452 12.5176C379.441 12.5177 379.429 12.5195 379.418 12.5195C378.578 12.5195 377.826 12.1462 377.314 11.5586V7.89844C377.596 7.57511 377.949 7.31588 378.352 7.14941C378.761 6.91285 379.236 6.77545 379.743 6.77539C379.755 6.77539 379.767 6.77623 379.778 6.77637C379.79 6.77623 379.802 6.77539 379.813 6.77539Z" fill="#EAEAD9"/>
<path d="M457.953 6.77539C459.494 6.77556 460.743 8.02525 460.743 9.56641C460.743 9.59355 460.74 9.62051 460.739 9.64746C460.74 9.67441 460.743 9.70138 460.743 9.72852C460.743 11.2697 459.494 12.5194 457.953 12.5195C457.941 12.5195 457.93 12.5177 457.918 12.5176C457.906 12.5177 457.895 12.5195 457.883 12.5195C457.839 12.5195 457.795 12.5147 457.751 12.5127C457.71 12.5145 457.669 12.5195 457.628 12.5195C457.616 12.5195 457.604 12.5177 457.592 12.5176C457.58 12.5177 457.569 12.5195 457.558 12.5195C456.016 12.5195 454.767 11.2698 454.767 9.72852C454.767 8.56588 455.478 7.56969 456.489 7.15039C456.9 6.91322 457.375 6.77539 457.883 6.77539C457.895 6.77539 457.906 6.77622 457.918 6.77637C457.93 6.77623 457.941 6.77539 457.953 6.77539Z" fill="#EAEAD9"/>
<path d="M499.813 9.56641C499.813 9.59355 499.809 9.6205 499.809 9.64746C499.809 9.67442 499.813 9.70137 499.813 9.72852C499.813 11.2696 498.564 12.5193 497.023 12.5195C497.012 12.5195 497 12.5177 496.988 12.5176C496.977 12.5177 496.965 12.5195 496.953 12.5195C496.897 12.5195 496.841 12.514 496.785 12.5107C496.733 12.5136 496.681 12.5195 496.628 12.5195C496.599 12.5195 496.57 12.5155 496.542 12.5146C497.542 11.384 498.627 10.3231 499.801 9.33301C499.807 9.40999 499.813 9.48778 499.813 9.56641Z" fill="#EAEAD9"/>
<path d="M516.558 6.77539C518.099 6.77549 519.349 8.02521 519.349 9.56641C519.349 9.59355 519.345 9.62051 519.344 9.64746C519.345 9.67442 519.349 9.70137 519.349 9.72852C519.349 11.2697 518.099 12.5194 516.558 12.5195C516.546 12.5195 516.534 12.5177 516.522 12.5176C516.511 12.5177 516.5 12.5195 516.488 12.5195C514.947 12.5195 513.697 11.2698 513.697 9.72852C513.697 9.70138 513.7 9.67441 513.701 9.64746C513.7 9.62051 513.697 9.59354 513.697 9.56641C513.697 8.02515 514.947 6.77539 516.488 6.77539C516.5 6.77539 516.511 6.77623 516.522 6.77637C516.534 6.77622 516.546 6.77539 516.558 6.77539Z" fill="#EAEAD9"/>
<path d="M536.092 6.77539C537.633 6.77539 538.883 8.02515 538.883 9.56641C538.883 9.59355 538.879 9.6205 538.878 9.64746C538.879 9.67442 538.883 9.70137 538.883 9.72852C538.883 11.2698 537.633 12.5195 536.092 12.5195C536.08 12.5195 536.069 12.5177 536.058 12.5176C536.046 12.5177 536.035 12.5195 536.023 12.5195C534.482 12.5195 533.232 11.2698 533.232 9.72852C533.232 9.70138 533.236 9.67441 533.236 9.64746C533.236 9.62051 533.232 9.59354 533.232 9.56641C533.232 8.02515 534.482 6.77539 536.023 6.77539C536.035 6.77539 536.046 6.77623 536.058 6.77637C536.069 6.77623 536.08 6.77539 536.092 6.77539Z" fill="#EAEAD9"/>
<path d="M554.004 7.24707C555.536 8.31545 556.942 9.48345 558.221 10.7539C557.812 11.7873 556.807 12.5194 555.628 12.5195C555.616 12.5195 555.604 12.5177 555.592 12.5176C555.58 12.5177 555.569 12.5195 555.558 12.5195C554.016 12.5195 552.767 11.2698 552.767 9.72852C552.767 9.70138 552.77 9.67441 552.771 9.64746C552.77 9.62051 552.767 9.59354 552.767 9.56641C552.767 8.60009 553.258 7.74796 554.004 7.24707Z" fill="#EAEAD9"/>
<path d="M226.377 8.1875C226.609 8.59446 226.743 9.06447 226.743 9.56641C226.743 9.59355 226.74 9.62051 226.739 9.64746C226.74 9.67441 226.743 9.70138 226.743 9.72852C226.743 10.2304 226.609 10.7005 226.377 11.1074V8.1875Z" fill="#EAEAD9"/>
<path d="M396.357 10.749C396.233 10.4328 396.162 10.0889 396.162 9.72852C396.162 9.36798 396.233 9.02433 396.357 8.70801V10.749Z" fill="#EAEAD9"/>
</svg>
