<?xml version="1.0" encoding="UTF-8"?>
<svg id="_레이어_1" data-name="레이어_1" xmlns="http://www.w3.org/2000/svg" version="1.1" viewBox="0 0 1024 1024">
  <!-- Generator: Adobe Illustrator 29.8.2, SVG Export Plug-In . SVG Version: 2.1.1 Build 3)  -->
  <defs>
    <style>
      .st0 {
        fill: #fdf8e7;
      }

      .st1 {
        fill: #fdf9eb;
      }

      .st2 {
        fill: #fdefd8;
      }

      .st3 {
        fill: #fdf6e5;
      }

      .st4 {
        fill: #fff;
      }

      .st5 {
        fill: #fdf6e4;
      }
    </style>
  </defs>
  <path class="st4" d="M217.7,338.3c.1,0,.2-.2.3-.3l-.3.3Z"/>
  <path class="st2" d="M824,432c-1,2.1,1,5.5,1,6,0,.6,0,1.4,0,2h-2s1,2,1,2c-2.2,42.5-33.8,90.8-59,124h-1.9c0,0,0,3,0,3-1.8,2.3-3.2,3.9-5,6h-1.9c0,0,0,3,0,3-2.6,3-5.3,6.1-8,9-.1.1-1.3-.2-2,.5-.5.4-2.5,4.4-3,5.5-.9.8-1.6,1.8-3,3-1.3,1.1-4.8.7-4,5-2.3,2.5-4.7,4.6-7,7l-.5.5c-.2.2-.3.3-.5.5-10.3,10.4-20.4,20.9-31,31l-.5.5c-.2.2-.3.3-.5.5-1.3,1.2-2.5,2.6-4,4h-2.9c0,0,0,2,0,2-38.6,35.8-80.1,69.8-121.5,103-14.6,11.7-35.1,30.7-50,40-2.3,1.5-5.8,3.9-8.5,2.5-57-46.9-116.5-91.2-171-141-70.8-64.7-153.1-153.7-139-257.5h2c1-1.9-1-4.7-1-5,0-.7,0-1.3,0-2,2.9.6,1.8-1.4,2.3-3.2,1.2-4.4,4-10.5,2.7-14.8,1.9-5.9,3.9-12.1,6-18l2,1c1.5-2.4,1.4-6,2-8,0-.3,0-.7,0-1l1-1c.4-1,.6-1.9,1-3l1-1c.7-1.6,1.2-2.5,2-4,2.9.7,1.2-2.7,4-3.6l-1-1.4c.6-1,1-2.5,2-4l1.8-1.8h.2c0-.2,0-.2,0-.2.7-1,1.3-2,2-3l3-1.5-1-1.5c11.2-15.4,22.4-26.9,38-38-.5,2,4.5-1,4.7-1.2.6-.6.2-1.7.3-1.8,2.1-1.8,2.5-1.9,5-3l1-1c.3-.1.7.1,1,0,1.9-.8,7.5-.5,7-4,1-.3,2-.7,3-1,7.9-2.5,16.8-6.1,25-8,7.3-1.7,16.9-2.5,24.5-3,1.9-.1,4,1.1,3.5-2,.7,0,1.3,0,2,0v2s5.4,0,5.4,0l.6-2c1.7,0,3.3,0,5,0v2c4-.5,7.9.4,11.7.7.8,0,1.2-.7,1.3-.7,13.1,1,28.7,4.5,40.6,8.9,32.2,12.2,61.7,35.2,85,60,5.1,5.5,10.7,11.7,14.5,18,1.7,1.2,7-7.6,8.5-9,1.2-1.2,2.2-2,3.5-3,1.1-.8,3.8,0,3-4,8-8.7,15.2-15.3,24-23l1-1c.3-.3.7-.7,1-1,4,.8,3.2-2,4-3,.8-1,1.3-1.3,2-2h2.9c0-.1,0-2,0-2,.3-.3.6-.7,1-1h2.9c0-.1,0-2,0-2,.3-.3.6-.7,1-1l10.8-5.7,11.2-8.3c3.6-1.9,7.3-4.2,11-6l1-1c.5-.2,1.4.1,2,0,9.3-1.5,21.1-6.5,31-9.5,1.6-.5,3.5.2,3-2.5.7,0,1.3,0,2,0,.2,0,2.2,1.9,4,1v-2c6.3-.5,12.9-2.7,19.5-3,11.9-.7,23.7,1.4,35.5,2v2c2,0,4,0,6,0,.3,0,.7,0,1,0l26.8,9.7,4.2.3c13.9,6.7,28.6,15.5,39,27,4.3,4.8,4.8,5.7,10,10,.4.3.6.7,1,1,.5,1.1,2.5,5,3,5.5.7.7,1.9.4,2,.5,18.7,19.9,32.1,57.4,36,84h-2s0,1.5,0,1.5l2,.5c0,.6,0,1.3,0,2-2.6,3.6-.2,8.6,0,12.5.2,4.8.7,10.2,1,14.5,0,1.7,0,3.3,0,5h-2Z"/>
  <path class="st3" d="M632,260.5c-9.9,3-21.7,8-31,9.5,8.2-4,25.2-11.7,34-12,.6,2.7-1.3,2-3,2.5Z"/>
  <path class="st5" d="M734,268l-4.2-.3-26.8-9.7c11,.6,20.9,5.2,31,10Z"/>
  <path class="st1" d="M826,427c-.2-4.4-.7-9.7-1-14.5-.2-3.9-2.6-8.9,0-12.5,0,.2.8.8.9,1.6,1.1,7.9,2,17.7,0,25.4Z"/>
  <path class="st0" d="M340.5,256c-7.6.5-17.2,1.3-24.5,3v-1c10.3-2.5,17.4-3.5,28-4,.6,3.1-1.5,1.9-3.5,2Z"/>
  <path class="st3" d="M316,258v1c-8.2,1.9-17.1,5.5-25,8,7.4-5,16.5-7,25-9Z"/>
  <path class="st0" d="M202.3,383.8c-.5,1.7.6,3.8-2.3,3.2,0-5.2,3.4-13.1,5-18,1.3,4.3-1.5,10.4-2.7,14.8Z"/>
  <path class="st0" d="M783,305c-5.2-4.3-5.7-5.2-10-10,4,1.5,8.5,6.1,10,10Z"/>
  <path class="st0" d="M370,256c0,0-.5.7-1.3.7-3.8-.2-7.7-1.2-11.7-.7v-2c4.2,0,10-1.2,13,2Z"/>
  <path class="st3" d="M281,272c1.3-2.6,4.5-3.2,7-4,.5,3.5-5.1,3.2-7,4Z"/>
  <path class="st3" d="M215,344c-.7,2-.5,5.6-2,8l-2-1c.8-2.2,2.4-5.2,4-7Z"/>
  <path class="st0" d="M352,254l-.6,2h-5.4s0-2,0-2c2,0,4,0,6,0Z"/>
  <path class="st3" d="M587,277l-11.2,8.3-10.8,5.7c8.1-6.1,13-9.2,22-14Z"/>
  <path class="st1" d="M825,438c0-.5-2-3.9-1-6h2c0,2.1.5,4.3-1,6Z"/>
  <path class="st5" d="M702,258c-2,0-4,0-6,0v-2c2.3.1,5.1-.8,6,2Z"/>
  <path class="st5" d="M740,596c0,2.9-2.6,3.5-4,5-.8-4.3,2.7-3.9,4-5Z"/>
  <path class="st0" d="M201,394h-2c.2-1.6-.6-3.5,1-5,0,.3,2,3.1,1,5Z"/>
  <path class="st3" d="M641,257v2c-1.8.9-3.8-1-4-1,1.2-1.3,2.5-.9,4-1Z"/>
  <path class="st3" d="M522,331c-.2-2.5,2-2.9,3-4,.8,4-1.9,3.2-3,4Z"/>
  <path class="st3" d="M555,299c-.8,1,0,3.8-4,3,1.1-1.1,1.5-3.2,4-3Z"/>
  <path class="st0" d="M789,312c-.1-.1-1.3.2-2-.5-.5-.5-2.5-4.4-3-5.5,2,1.7,4.7,3,5,6Z"/>
  <path class="st5" d="M748,587c-.3,3-3,4.3-5,6,.4-1.1,2.5-5.1,3-5.5.7-.7,1.9-.4,2-.5Z"/>
  <path class="st3" d="M232,318.5l-3,1.5c.7-1,1.1-1.8,2-3l1,1.5Z"/>
  <path class="st3" d="M564,292v1.9c0,0-3,.1-3,.1,1.4-1.2,2.4-1.5,3-2Z"/>
  <path class="st3" d="M560,295v1.9c0,0-3,.1-3,.1,1.7-1.8,2.5-1.6,3-2Z"/>
  <path class="st3" d="M224,330.4c-2.9.9-1.1,4.3-4,3.6,1.1-2.1,1.9-3.2,3-5l1,1.4Z"/>
  <path class="st3" d="M273.7,277.8c-.2.2-5.2,3.2-4.7,1.2,1.6-1.1,2.7-2.9,5-3,0,0,.4,1.2-.3,1.8Z"/>
  <path class="st3" d="M765,566c-.5.7-1,1.7-2,3v-2.9c0,0,2,0,2,0Z"/>
  <path class="st3" d="M758,575c-.3.4-.8,1.6-2,3v-2.9c0,0,2,0,2,0Z"/>
  <path class="st5" d="M692,645c-1.5,1.4-2.8,1.8-3,2v-1.9c0,0,3,0,3,0Z"/>
  <path class="st1" d="M825,440c-.2,1.8-1,1.9-1,2l-1-2h2Z"/>
  <path class="st1" d="M825,398l-2-.5v-1.5s2,0,2,0c0,.6,0,1.4,0,2Z"/>
  <path class="st3" d="M217.7,338.3l-.7.7c.1-.3.5-.5.7-.7Z"/>
  <path class="st3" d="M218,338c0,0-.1.2-.3.3l.3-.3Z"/>
  <path class="st3" d="M216,342l-1,1c.3-.8,1-.9,1-1Z"/>
  <path class="st3" d="M280,272l-1,1c0,0,.2-.7,1-1Z"/>
  <path class="st3" d="M226.8,323.2l-1.8,1.8c.6-.9,1.4-1.5,1.8-1.8Z"/>
  <path class="st3" d="M599,270l-1,1c0,0,.1-.8,1-1Z"/>
</svg>