<svg width="524" height="408" viewBox="0 0 524 408" fill="none" xmlns="http://www.w3.org/2000/svg">
<path d="M524 205.447C524 317.009 406.699 407.447 262 407.447C117.301 407.447 0 317.009 0 205.447C0 93.8857 144.5 -21.5527 262 3.44722C426 -13.0527 524 93.8857 524 205.447Z" fill="#B74E4E"/>
<path d="M275.328 319.86L286.693 336.297L286.985 336.233L290.419 316.547L295.896 315.344L301.355 340.205L297.062 341.147L293.304 324.03L293.064 324.083L289.918 342.626L286.708 343.331L276.059 327.78L275.853 327.825L279.619 344.977L275.309 345.924L269.851 321.063L275.328 319.86ZM317.33 336.188C315.583 336.726 313.922 336.808 312.348 336.435C310.785 336.058 309.426 335.268 308.271 334.067C307.117 332.865 306.253 331.334 305.681 329.475C305.101 327.594 304.953 325.837 305.235 324.205C305.514 322.562 306.193 321.145 307.273 319.954C308.365 318.76 309.784 317.893 311.531 317.356C313.29 316.814 314.95 316.732 316.513 317.109C318.076 317.486 319.429 318.277 320.573 319.482C321.713 320.676 322.573 322.214 323.152 324.095C323.725 325.955 323.877 327.704 323.61 329.344C323.342 330.983 322.668 332.399 321.588 333.59C320.508 334.78 319.088 335.647 317.33 336.188ZM316.314 332.767C317.254 332.478 317.968 331.97 318.456 331.243C318.951 330.502 319.222 329.628 319.267 328.621C319.312 327.614 319.161 326.544 318.813 325.413C318.461 324.271 317.983 323.296 317.379 322.489C316.775 321.682 316.061 321.117 315.238 320.794C314.423 320.456 313.545 320.432 312.605 320.722C311.641 321.018 310.907 321.539 310.4 322.284C309.89 323.017 309.607 323.889 309.55 324.899C309.494 325.91 309.641 326.987 309.993 328.129C310.345 329.271 310.828 330.244 311.444 331.048C312.055 331.841 312.78 332.402 313.618 332.733C314.452 333.052 315.35 333.064 316.314 332.767ZM336.848 329.298L332.685 330.912L325.785 313.113L329.767 311.569L330.936 314.584L331.133 314.508C331.172 313.311 331.529 312.255 332.205 311.34C332.881 310.424 333.874 309.712 335.185 309.204C336.42 308.725 337.592 308.573 338.703 308.745C339.82 308.903 340.819 309.389 341.7 310.204C342.592 311.014 343.312 312.124 343.858 313.534L348.255 324.875L344.092 326.489L339.943 315.787C339.634 314.989 339.235 314.365 338.745 313.913C338.252 313.451 337.689 313.167 337.057 313.06C336.425 312.953 335.737 313.043 334.994 313.332C334.251 313.62 333.657 314.032 333.212 314.569C332.767 315.106 332.504 315.742 332.424 316.477C332.345 317.212 332.47 318.005 332.801 318.858L336.848 329.298ZM357.55 303.696L347.642 308.32L346.185 305.198L356.093 300.574L357.55 303.696ZM350.767 298.016L358.35 314.263C358.593 314.783 358.863 315.155 359.162 315.378C359.455 315.59 359.761 315.693 360.081 315.686C360.407 315.663 360.763 315.568 361.151 315.4C361.623 315.193 362.2 314.891 362.881 314.495L364.435 317.824C363.831 318.248 363.094 318.664 362.223 319.07C361.183 319.556 360.172 319.814 359.19 319.845C358.204 319.866 357.311 319.63 356.512 319.136C355.713 318.643 355.073 317.868 354.593 316.812L346.705 299.911L350.767 298.016ZM374.793 312.354L370.903 314.545L358.412 292.368L362.225 290.22L366.935 298.582L367.119 298.479C366.977 297.294 367.169 296.204 367.697 295.207C368.225 294.21 369.112 293.361 370.358 292.66C371.522 292.004 372.671 291.68 373.805 291.687C374.933 291.684 375.996 292.019 376.995 292.694C377.994 293.369 378.864 294.365 379.606 295.682L385.575 306.281L381.685 308.472L376.052 298.471C375.632 297.725 375.14 297.162 374.575 296.78C374.021 296.393 373.421 296.2 372.776 296.2C372.125 296.19 371.452 296.381 370.758 296.772C370.053 297.169 369.514 297.668 369.139 298.269C368.775 298.864 368.599 299.541 368.61 300.302C368.626 301.046 368.855 301.811 369.298 302.598L374.793 312.354ZM396.095 299.772L392.384 302.254L378.231 281.099L381.942 278.616L396.095 299.772ZM409.112 299.227C408.42 299.769 407.793 300.224 407.232 300.59L405.007 297.755L405.648 297.319C405.895 297.14 406.194 296.913 406.544 296.638C406.904 296.356 407.174 296.092 407.354 295.847C407.543 295.594 407.646 295.26 407.662 294.845C407.696 294.432 407.604 293.907 407.389 293.272L407.078 292.221L389.596 281.158L393.33 278.229L405.698 286.846L405.864 286.716L400.438 272.652L404.2 269.7L411.375 291.262C411.902 292.845 411.993 294.3 411.649 295.627C411.322 296.956 410.476 298.156 409.112 299.227Z" fill="#EBEBEB"/>
<ellipse cx="439.506" cy="254.308" rx="9.36007" ry="9.69436" transform="rotate(-129.589 439.506 254.308)" fill="#EBEBEB"/>
<circle cx="442.35" cy="161.716" r="21.0602" transform="rotate(-129.589 442.35 161.716)" fill="#F4E5E5"/>
<ellipse cx="448.427" cy="215.264" rx="15.043" ry="14.7087" transform="rotate(-129.589 448.427 215.264)" fill="#F5ECEC"/>
<path d="M310.902 36.5576C329.763 40.6194 342.468 48.8294 342.983 59.0615C343.801 75.3271 313.506 90.5397 275.317 93.0391C237.128 95.5384 205.505 84.378 204.687 68.1123C204.08 56.0311 220.637 44.5329 244.844 38.3916C244.815 39.1183 244.835 39.8485 244.908 40.5801C246.15 53.0259 261.978 61.1905 280.259 58.8164C296.283 56.7356 308.872 47.2493 310.902 36.5576Z" fill="#597E5E"/>
</svg>
