<?xml version="1.0" encoding="UTF-8"?>
<svg id="_레이어_1" data-name="레이어_1" xmlns="http://www.w3.org/2000/svg" version="1.1" viewBox="0 0 878 783">
  <!-- Generator: Adobe Illustrator 29.8.2, SVG Export Plug-In . SVG Version: 2.1.1 Build 3)  -->
  <defs>
    <style>
      .st0 {
        fill: #fdedd6;
      }
    </style>
  </defs>
  <path class="st0" d="M323.4,287.4c11.8-.7,16.8.2,22.9-11.6s6-16,9.1-23.9c23.9-61.9,46.8-124.3,70.6-186.3,2.5-6.7,11-16.8,18.5-10.5s6.3,10.9,7.2,12.8c22.8,48.7,39.8,107.9,59.1,158.3,5,13.1,10.8,28.7,16.3,42.1,7.1,17.3,10.9,18.1,28.4,19.1,7.6.4,15.4.8,23,1,8.3.2,16.7-.2,25,0,7.4.2,14.7.8,22,1s17.4-.2,26,0,21.3.8,32,1,22.6-.2,34,0c12.4.2,24.7.7,37,1s21.6.2,33,1,4-.1,6,0c4.3.3,9.9,1,11,6.5s-3.1,11.5-8,16c-26.7,25-64.6,50.9-94.1,73.8s-65,46.2-92.4,70.6-9.7,8-8.3,17.2c3,20.4,15,51,20.9,72.1,14.7,52,33.4,107.5,45.5,160.2s2.7,8.4,1.3,16.2-.8,1.3-1,2c-7.1,4.8-10.2,3.2-16.9-.6-24.4-13.6-52.8-36.2-76.4-52.6-44.4-30.8-87.9-63-132.9-93-6.3-2.5-11.2,2.3-16.1,5.5-66.8,42.9-129.9,95.8-196.7,139.1-5.3,2.8-12.8,6-18.2,1.6s.9-22.3,2.8-29.9c15.1-61.2,34.1-121.1,50.9-181.9,2.7-9.8,13.2-38,11.3-46.2-1.1-4.9-9.4-10.4-13.3-13.7-59-48.8-123.5-91.3-181-141.9-4.8-4.2-8-3-8.5-12s-.1-1.5,0-2c.3-1.3,4-6.8,4.7-7,3.4-.8,11.9.2,16.3,0,7.3-.3,14.7-.8,22-1s20.7.2,31,0c6.5-.2,13.3-.9,20-1,7-.2,14,.1,21,0,12-.2,24-.8,36-1s15.4.2,23,0,12.6-.9,19-1c10.6-.2,21.4.3,32,0,8.3-.2,16.7-.5,25-1Z"/>
</svg>