<svg width="479" height="505" viewBox="0 0 479 505" fill="none" xmlns="http://www.w3.org/2000/svg">
<path d="M439.396 291.709C418.633 409.462 311.855 489.06 200.901 469.496C89.9463 449.932 16.8318 338.614 37.5948 220.861C58.3579 103.108 171.148 4.76923 276.09 43.0741C415.41 53.424 460.159 173.956 439.396 291.709Z" fill="#DED9A4"/>
<ellipse cx="252.351" cy="120.122" rx="49" ry="22" transform="rotate(10 252.351 120.122)" fill="#CFD8BE"/>
<ellipse cx="12.6441" cy="12.1239" rx="12.6441" ry="12.1239" transform="matrix(-0.311483 -0.950252 0.743605 -0.668619 319.419 351.924)" fill="#EBEBEB"/>
<ellipse cx="28.4491" cy="26.3382" rx="28.4491" ry="26.3382" transform="matrix(-0.311483 -0.950252 0.743605 -0.668619 341.423 236.006)" fill="#FDEBA5"/>
<ellipse cx="20.3208" cy="18.3949" rx="20.3208" ry="18.3949" transform="matrix(-0.311483 -0.950252 0.743605 -0.668619 336.412 305.532)" fill="#F0EDD2"/>
<path d="M175.4 372.455L180.086 373.841L179.201 393.121L179.42 393.186L189.441 376.61L193.772 377.892L193.169 397.273L193.372 397.333L203.11 380.655L207.813 382.047L193.73 404.424L189.364 403.132L189.576 384.514L189.374 384.454L179.403 400.184L175.054 398.897L175.4 372.455ZM213.129 408.746C211.256 408.511 209.678 407.912 208.393 406.948C207.109 405.984 206.18 404.722 205.608 403.162C205.047 401.604 204.889 399.842 205.135 397.877C205.379 395.935 205.965 394.267 206.896 392.872C207.84 391.466 209.037 390.441 210.488 389.796C211.938 389.151 213.559 388.941 215.35 389.165C216.966 389.367 218.382 389.893 219.599 390.742C220.815 391.591 221.717 392.785 222.304 394.322C222.892 395.849 223.054 397.67 222.789 399.786L222.614 401.182L207.108 399.24L207.486 396.223L218.736 397.631C218.844 396.771 218.76 395.981 218.484 395.261C218.208 394.542 217.762 393.949 217.148 393.482C216.544 393.017 215.818 392.731 214.97 392.625C214.063 392.511 213.233 392.626 212.482 392.969C211.73 393.312 211.111 393.825 210.624 394.508C210.15 395.181 209.853 395.947 209.734 396.806L209.411 399.387C209.272 400.492 209.351 401.47 209.646 402.322C209.954 403.163 210.448 403.839 211.128 404.35C211.808 404.86 212.636 405.176 213.613 405.299C214.241 405.377 214.816 405.361 215.338 405.249C215.871 405.138 216.336 404.966 216.731 404.732C217.128 404.487 217.444 404.178 217.68 403.806L222.04 404.352C221.637 405.4 221.012 406.29 220.165 407.022C219.33 407.745 218.309 408.26 217.101 408.57C215.895 408.867 214.57 408.926 213.129 408.746ZM237.081 410.284C235.195 410.307 233.549 409.928 232.145 409.148C230.741 408.368 229.65 407.244 228.87 405.777C228.103 404.31 227.707 402.586 227.683 400.605C227.66 398.649 228.014 396.916 228.746 395.407C229.489 393.886 230.536 392.707 231.885 391.871C233.235 391.034 234.812 390.605 236.616 390.583C238.245 390.564 239.72 390.892 241.04 391.567C242.361 392.243 243.417 393.303 244.208 394.746C244.998 396.178 245.407 397.961 245.432 400.093L245.449 401.499L229.823 401.687L229.787 398.646L241.124 398.51C241.113 397.643 240.922 396.872 240.551 396.197C240.18 395.521 239.658 394.994 238.985 394.616C238.324 394.237 237.566 394.053 236.711 394.063C235.797 394.074 234.991 394.3 234.293 394.742C233.595 395.184 233.051 395.777 232.662 396.52C232.284 397.251 232.094 398.05 232.093 398.918L232.124 401.519C232.137 402.632 232.348 403.591 232.756 404.394C233.176 405.186 233.758 405.789 234.501 406.202C235.244 406.615 236.108 406.815 237.092 406.803C237.725 406.796 238.292 406.701 238.794 406.519C239.308 406.337 239.744 406.103 240.104 405.818C240.464 405.521 240.735 405.172 240.918 404.771L245.312 404.718C245.056 405.811 244.557 406.778 243.817 407.619C243.089 408.448 242.148 409.098 240.993 409.569C239.838 410.028 238.534 410.267 237.081 410.284ZM255.33 397.679L256.045 397.595L261.978 389.182L267.181 388.571L259.86 398.882L258.97 398.986L255.959 403.039L255.33 397.679ZM249.662 384.221L254.096 383.7L257.063 408.98L252.629 409.5L249.662 384.221ZM257.306 400.19L259.942 396.713L269.842 407.48L264.535 408.103L257.306 400.19ZM279.961 405.619L275.602 406.583L270.105 381.73L274.465 380.766L279.961 405.619ZM292.312 409.809C291.472 410.067 290.724 410.266 290.069 410.407L289.01 406.962L289.764 406.785C290.059 406.707 290.419 406.602 290.845 406.471C291.282 406.337 291.628 406.188 291.884 406.023C292.151 405.855 292.367 405.58 292.532 405.199C292.711 404.825 292.814 404.303 292.841 403.633L292.928 402.539L280.579 385.941L285.116 384.546L293.569 397.027L293.77 396.965L293.752 381.891L298.322 380.486L297.283 403.186C297.207 404.853 296.77 406.244 295.973 407.359C295.19 408.482 293.97 409.299 292.312 409.809Z" fill="#868E72"/>
<ellipse cx="262.663" cy="124.987" rx="18" ry="7" transform="rotate(10 262.663 124.987)" fill="#C5C5C5"/>
<path d="M302.512 91.9039C279.163 111.762 257.465 125.544 255.676 123.44C253.887 121.336 269.719 101.973 293.068 82.115C319.029 60.0365 334.54 42.7182 340.232 51.5288C346.288 56.712 323.641 75.1912 302.512 91.9039Z" fill="#593E18"/>
</svg>
