<svg width="834" height="836" viewBox="0 0 834 836" fill="none" xmlns="http://www.w3.org/2000/svg">
<path d="M681.617 592.009C680.307 598.506 673.978 602.711 667.482 601.401L114.609 489.92C108.112 488.61 103.908 482.281 105.218 475.785L152.063 243.461C153.373 236.964 159.702 232.759 166.198 234.069L719.071 345.55C725.568 346.86 729.772 353.188 728.462 359.685L681.617 592.009ZM655.609 543.92C657.137 536.34 652.232 528.957 644.652 527.429C637.073 525.9 629.69 530.806 628.161 538.385C626.633 545.965 631.538 553.348 639.118 554.876C646.697 556.405 654.081 551.499 655.609 543.92Z" fill="#C9C2BC"/>
<path d="M223.248 426.027L227.739 440.348L228.04 440.41L237.812 429.017L243.738 430.234L229.414 446.261L227.178 457.149L221.935 456.072L224.171 445.184L217.341 424.814L223.248 426.027ZM250.571 462.392C248.415 461.949 246.634 461.109 245.227 459.871C243.82 458.633 242.855 457.081 242.331 455.215C241.82 453.351 241.797 451.288 242.262 449.025C242.721 446.788 243.555 444.901 244.765 443.362C245.99 441.814 247.475 440.73 249.222 440.111C250.968 439.493 252.872 439.395 254.934 439.819C256.796 440.201 258.395 440.941 259.733 442.04C261.071 443.138 262.011 444.608 262.554 446.45C263.1 448.279 263.122 450.412 262.622 452.849L262.292 454.456L244.433 450.789L245.146 447.314L258.104 449.975C258.307 448.984 258.281 448.057 258.025 447.195C257.77 446.333 257.306 445.603 256.633 445.004C255.974 444.408 255.155 444.01 254.178 443.809C253.133 443.594 252.158 443.652 251.253 443.983C250.348 444.313 249.581 444.854 248.952 445.604C248.34 446.344 247.925 447.208 247.708 448.196L247.097 451.169C246.836 452.441 246.838 453.586 247.104 454.604C247.386 455.611 247.899 456.442 248.644 457.097C249.388 457.753 250.323 458.196 251.448 458.427C252.171 458.575 252.842 458.608 253.459 458.526C254.089 458.446 254.645 458.288 255.126 458.052C255.61 457.802 256.006 457.472 256.314 457.06L261.336 458.091C260.772 459.274 259.964 460.252 258.912 461.027C257.875 461.791 256.641 462.298 255.208 462.548C253.777 462.785 252.232 462.733 250.571 462.392ZM283.434 458.63C282.976 458.55 281.939 458.4 280.323 458.18L278.261 457.924C276.98 457.773 275.938 457.887 275.134 458.266C274.331 458.645 273.833 459.304 273.64 460.241C273.516 460.844 273.564 461.391 273.785 461.883C274.007 462.361 274.377 462.772 274.892 463.115C275.421 463.461 276.041 463.707 276.751 463.853C277.768 464.062 278.7 464.044 279.546 463.799C280.408 463.543 281.117 463.116 281.672 462.519C282.241 461.924 282.609 461.218 282.777 460.401L284.168 453.422C284.317 452.699 284.296 452.052 284.106 451.483C283.916 450.913 283.546 450.44 282.995 450.061C282.458 449.686 281.761 449.41 280.904 449.234C279.806 449.009 278.855 449.051 278.052 449.36C277.262 449.673 276.684 450.21 276.318 450.972L271.336 449.949C271.739 448.734 272.423 447.716 273.387 446.895C274.367 446.063 275.577 445.509 277.015 445.232C278.47 444.945 280.081 444.983 281.849 445.346C283.403 445.665 284.794 446.195 286.024 446.936C287.253 447.677 288.188 448.699 288.827 450.003C289.47 451.293 289.604 452.849 289.23 454.67L286.231 469.275L281.329 468.268L281.948 465.255L281.787 465.222C281.318 465.809 280.743 466.299 280.062 466.689C279.395 467.083 278.6 467.352 277.677 467.497C276.757 467.629 275.747 467.583 274.649 467.357C273.243 467.068 272.043 466.557 271.049 465.822C270.056 465.088 269.339 464.159 268.9 463.036C268.474 461.916 268.403 460.666 268.686 459.287C269.153 457.01 270.246 455.531 271.962 454.851C273.682 454.158 275.756 453.983 278.183 454.328C278.54 454.359 279.805 454.55 281.981 454.899L284.087 455.247L283.434 458.63ZM299.686 449.302L304.628 450.316L303.881 453.952L304.122 454.002C304.769 452.823 305.645 451.991 306.75 451.506C307.857 451.007 309.04 450.887 310.299 451.146C310.942 451.278 311.555 451.453 312.138 451.67L311.169 456.391C310.974 456.253 310.641 456.108 310.169 455.955C309.698 455.803 309.255 455.684 308.84 455.599C307.916 455.409 307.038 455.438 306.205 455.686C305.373 455.934 304.668 456.375 304.091 457.01C303.517 457.632 303.135 458.405 302.945 459.329L300.309 472.166L295.206 471.118L299.686 449.302ZM319.931 476.195L314.829 475.147L320.802 446.059L325.905 447.107L319.931 476.195ZM330.358 486.878C329.353 486.672 328.476 486.457 327.727 486.233L328.572 482.115L329.444 482.356C329.789 482.441 330.217 482.536 330.726 482.641C331.248 482.748 331.686 482.789 332.04 482.764C332.408 482.742 332.782 482.581 333.165 482.283C333.558 482.001 333.956 481.524 334.358 480.853L335.06 479.783L331.72 455.88L337.144 456.993L338.803 474.501L339.044 474.551L347.469 459.114L352.933 460.236L339.154 482.885C338.143 484.548 336.917 485.726 335.476 486.421C334.046 487.133 332.34 487.285 330.358 486.878Z" fill="#717171"/>
</svg>
