<svg width="30" height="36" viewBox="0 0 30 36" fill="none" xmlns="http://www.w3.org/2000/svg">
<path d="M0 35.3516V0H12.207C15.6982 0 18.7256 0.708008 21.2646 2.12402C23.8037 3.54004 25.7324 5.56641 27.0996 8.20312C28.4668 10.8643 29.1504 14.0137 29.1504 17.627C29.1504 21.2891 28.4668 24.4629 27.0996 27.124C25.7324 29.7852 23.7549 31.8115 21.1914 33.2275C18.6035 34.6436 15.5518 35.3516 12.0117 35.3516H0ZM11.6699 29.834C15.3564 29.834 18.1396 28.833 19.9951 26.7822C21.8506 24.7559 22.8027 21.7041 22.8027 17.627C22.8027 13.5986 21.875 10.5713 20.0439 8.54492C18.1885 6.54297 15.4785 5.51758 11.8652 5.51758H6.34766V29.834H11.6699Z" fill="#FED47A"/>
</svg>
